<?xml version="1.0" encoding="UTF-8" standalone="no"?>
<!-- Created with Inkscape (http://www.inkscape.org/) -->

<svg
   version="1.1"
   id="svg2"
   xml:space="preserve"
   width="666.66669"
   height="496.74667"
   viewBox="0 0 666.66669 496.74667"
   sodipodi:docname="8174445_3857455.eps"
   xmlns:inkscape="http://www.inkscape.org/namespaces/inkscape"
   xmlns:sodipodi="http://sodipodi.sourceforge.net/DTD/sodipodi-0.dtd"
   xmlns="http://www.w3.org/2000/svg"
   xmlns:svg="http://www.w3.org/2000/svg"><defs
     id="defs6" /><sodipodi:namedview
     id="namedview4"
     pagecolor="#ffffff"
     bordercolor="#666666"
     borderopacity="1.0"
     inkscape:pageshadow="2"
     inkscape:pageopacity="0.0"
     inkscape:pagecheckerboard="0" /><g
     id="g8"
     inkscape:groupmode="layer"
     inkscape:label="ink_ext_XXXXXX"
     transform="matrix(1.3333333,0,0,-1.3333333,0,496.74667)"><g
       id="g10"
       transform="scale(0.1)"><path
         d="m 0,449.102 h 5000 v 2.5 H 0 Z"
         style="fill:#e7e8e5;fill-opacity:1;fill-rule:nonzero;stroke:none"
         id="path12" /><path
         d="m 1500.4,385.301 h 231.801 v 2.5 H 1500.4 Z"
         style="fill:#e7e8e5;fill-opacity:1;fill-rule:nonzero;stroke:none"
         id="path14" /><path
         d="m 4021,334.199 h 566.7 v -2.5 H 4021 v 2.5"
         style="fill:#e7e8e5;fill-opacity:1;fill-rule:nonzero;stroke:none"
         id="path16" /><path
         d="m 427.203,334.199 h 566.699 v -2.5 H 427.203 v 2.5"
         style="fill:#e7e8e5;fill-opacity:1;fill-rule:nonzero;stroke:none"
         id="path18" /><path
         d="m 439.102,3723.6 c -30.118,-0.05 -54.504,-24.48 -54.504,-54.6 V 954.699 c 0,-30.117 24.386,-54.551 54.504,-54.597 H 2370 c 30.13,0.046 54.55,24.457 54.6,54.597 V 3669 c -0.05,30.13 -24.47,54.55 -54.6,54.6 H 439.102 M 2370,897.602 H 439.102 c -31.5,0.046 -57.004,25.609 -57.004,57.097 V 3669 c 0.277,31.3 25.699,56.55 57.004,56.6 H 2370 c 31.53,0 57.1,-25.56 57.1,-57.1 V 954.699 c 0,-31.527 -25.57,-57.097 -57.1,-57.097"
         style="fill:#e7e8e5;fill-opacity:1;fill-rule:nonzero;stroke:none"
         id="path20" /><path
         d="m 2602.1,3723.6 c -30.13,-0.05 -54.54,-24.47 -54.6,-54.6 V 954.699 c 0.06,-30.14 24.47,-54.551 54.6,-54.597 h 1931 c 30.13,0.046 54.55,24.457 54.59,54.597 V 3669 c -0.04,30.13 -24.46,54.55 -54.59,54.6 h -1931 m 1931,-2825.998 h -1931 c -31.51,0.046 -57.04,25.589 -57.1,57.097 L 2545,3669 c 0.33,31.32 25.78,56.55 57.1,56.6 h 1931 c 31.27,-0.11 56.63,-25.34 56.9,-56.6 V 954.699 c 0,-31.449 -25.44,-56.988 -56.9,-57.097"
         style="fill:#e7e8e5;fill-opacity:1;fill-rule:nonzero;stroke:none"
         id="path22" /><path
         d="m 2919.8,446.199 h 230.91 V 1245.34 H 2919.8 Z"
         style="fill:#e2e2e0;fill-opacity:1;fill-rule:nonzero;stroke:none"
         id="path24" /><path
         d="m 2756.3,446.199 h 230.91 V 1245.34 H 2756.3 Z"
         style="fill:#e2e2e0;fill-opacity:1;fill-rule:nonzero;stroke:none"
         id="path26" /><path
         d="m 2943.38,446.199 h 43.83 V 570.98 h -89.9 l 46.07,-124.781"
         style="fill:#ededeb;fill-opacity:1;fill-rule:nonzero;stroke:none"
         id="path28" /><path
         d="m 1595.63,446.199 h 230.91 v 799.141 h -230.91 z"
         style="fill:#e2e2e0;fill-opacity:1;fill-rule:nonzero;stroke:none"
         id="path30" /><path
         d="m 1788.25,507.609 h 1198.96 v 737.73 H 1788.25 Z"
         style="fill:#ededeb;fill-opacity:1;fill-rule:nonzero;stroke:none"
         id="path32" /><path
         d="m 2442.98,1203.84 c -19.61,0 -35.51,-15.87 -35.57,-35.48 V 719.281 c -0.21,-19.652 15.53,-35.742 35.18,-35.949 h 0.39 469.5 c 19.64,-0.172 35.69,15.617 35.86,35.27 v 0.679 449.079 c -0.06,19.61 -15.97,35.48 -35.58,35.48 h -469.78 m 469.59,-530.231 h -469.59 c -25.2,0.051 -45.62,20.473 -45.67,45.672 v 449.079 c 0.05,25.21 20.47,45.63 45.67,45.69 h 469.5 c 25.2,-0.06 45.62,-20.48 45.67,-45.69 V 719.281 c -0.05,-25.16 -20.41,-45.562 -45.58,-45.672"
         style="fill:#dadbd8;fill-opacity:1;fill-rule:nonzero;stroke:none"
         id="path34" /><path
         d="m 1862.89,1203.84 c -19.59,0 -35.47,-15.88 -35.47,-35.48 V 719.281 c 0,-19.59 15.88,-35.472 35.47,-35.472 h 469.49 c 19.61,0 35.52,15.863 35.57,35.472 v 449.079 c -0.05,19.61 -15.96,35.48 -35.57,35.48 h -469.49 m 469.49,-530.231 h -469.49 c -25.21,0.051 -45.62,20.473 -45.68,45.672 v 449.079 c 0.06,25.21 20.47,45.63 45.68,45.69 h 469.49 c 25.23,0 45.68,-20.45 45.68,-45.68 v -0.01 -449.079 c 0,-25.222 -20.45,-45.672 -45.67,-45.672 h -0.01"
         style="fill:#dadbd8;fill-opacity:1;fill-rule:nonzero;stroke:none"
         id="path36" /><path
         d="m 2288.85,1072.05 c -24.37,-0.04 -44.17,19.66 -44.22,44.03 -0.05,24.37 19.66,44.17 44.02,44.22 24.37,0.06 44.17,-19.65 44.22,-44.03 v -0.19 c -0.05,-24.29 -19.73,-43.97 -44.02,-44.03"
         style="fill:#fafaf9;fill-opacity:1;fill-rule:nonzero;stroke:none"
         id="path38" /><path
         d="m 2486.62,1072.05 c -24.37,-0.15 -44.25,19.47 -44.41,43.84 -0.16,24.37 19.46,44.25 43.83,44.41 24.36,0.16 44.24,-19.47 44.41,-43.83 v -0.67 c -0.17,-24.13 -19.71,-43.64 -43.83,-43.75"
         style="fill:#fafaf9;fill-opacity:1;fill-rule:nonzero;stroke:none"
         id="path40" /><path
         d="m 1832.08,446.199 h -43.83 V 570.98 h 89.9 l -46.07,-124.781"
         style="fill:#ededeb;fill-opacity:1;fill-rule:nonzero;stroke:none"
         id="path42" /><path
         d="m 1522.07,446.199 h 230.898 V 1245.34 H 1522.07 Z"
         style="fill:#e2e2e0;fill-opacity:1;fill-rule:nonzero;stroke:none"
         id="path44" /><path
         d="m 1709.15,446.199 h 43.82 V 570.98 h -89.89 l 46.07,-124.781"
         style="fill:#ededeb;fill-opacity:1;fill-rule:nonzero;stroke:none"
         id="path46" /><path
         d="m 554.016,507.609 h 1198.95 v 737.73 H 554.016 Z"
         style="fill:#ededeb;fill-opacity:1;fill-rule:nonzero;stroke:none"
         id="path48" /><path
         d="m 1208.75,1203.84 c -19.61,0 -35.52,-15.87 -35.58,-35.48 V 719.281 c -0.21,-19.652 15.54,-35.742 35.18,-35.949 h 0.4 469.49 c 19.65,-0.172 35.7,15.617 35.86,35.27 v 0.679 449.079 c -0.05,19.57 -15.9,35.42 -35.47,35.48 h -469.88 m 469.59,-530.231 h -469.59 c -25.25,0 -45.73,20.43 -45.78,45.672 v 449.079 c 0.05,25.25 20.53,45.69 45.78,45.69 h 469.49 c 25.2,-0.06 45.62,-20.48 45.68,-45.69 V 719.281 c -0.06,-25.16 -20.41,-45.562 -45.58,-45.672"
         style="fill:#dadbd8;fill-opacity:1;fill-rule:nonzero;stroke:none"
         id="path50" /><path
         d="m 628.652,1203.84 c -19.605,0 -35.511,-15.87 -35.566,-35.48 V 719.281 c -0.215,-19.652 15.531,-35.742 35.176,-35.949 h 0.39 469.498 c 19.6,0 35.52,15.859 35.57,35.457 v 449.571 c -0.05,19.61 -15.97,35.48 -35.57,35.48 H 628.652 M 1098.15,673.609 H 628.652 c -25.226,0 -45.675,20.45 -45.675,45.672 v 449.079 c 0,25.24 20.449,45.69 45.675,45.69 h 469.498 c 25.2,-0.06 45.62,-20.48 45.67,-45.69 V 719.281 c -0.05,-25.199 -20.47,-45.621 -45.67,-45.672"
         style="fill:#dadbd8;fill-opacity:1;fill-rule:nonzero;stroke:none"
         id="path52" /><path
         d="m 1054.61,1072.05 c -24.37,-0.04 -44.17,19.66 -44.22,44.03 -0.05,24.37 19.66,44.17 44.03,44.22 24.36,0.06 44.16,-19.65 44.21,-44.03 v -0.19 c 0,-24.31 -19.7,-44.03 -44.02,-44.03"
         style="fill:#fafaf9;fill-opacity:1;fill-rule:nonzero;stroke:none"
         id="path54" /><path
         d="m 1252.38,1072.05 c -24.37,-0.15 -44.25,19.47 -44.41,43.84 -0.16,24.37 19.46,44.25 43.83,44.41 24.37,0.16 44.25,-19.47 44.41,-43.83 v -0.67 c -0.16,-24.13 -19.71,-43.64 -43.83,-43.75"
         style="fill:#fafaf9;fill-opacity:1;fill-rule:nonzero;stroke:none"
         id="path56" /><path
         d="M 597.848,446.199 H 554.016 V 570.98 h 89.797 L 597.848,446.199"
         style="fill:#ededeb;fill-opacity:1;fill-rule:nonzero;stroke:none"
         id="path58" /><path
         d="m 2243.21,3030.76 h 429.648 v 429.641 H 2243.21 Z"
         style="fill:#e7e8e5;fill-opacity:1;fill-rule:nonzero;stroke:none"
         id="path60" /><path
         d="m 2672.86,3030.69 h 19.0391 v 429.645 H 2672.86 Z"
         style="fill:#dadbd8;fill-opacity:1;fill-rule:nonzero;stroke:none"
         id="path62" /><path
         d="m 2301.47,3088.94 h 313.211 v 313.207 H 2301.47 Z"
         style="fill:#ffffff;fill-opacity:1;fill-rule:nonzero;stroke:none"
         id="path64" /><path
         d="m 2510.47,3193.16 v 0 c -28.95,-28.95 -75.89,-28.95 -104.83,0 -28.95,28.95 -28.95,75.88 0,104.82 28.94,28.95 75.88,28.95 104.83,0 28.94,-28.94 28.94,-75.87 0,-104.82"
         style="fill:#f3f2f1;fill-opacity:1;fill-rule:nonzero;stroke:none"
         id="path66" /><path
         d="m 1748.26,2404.3 h 503.719 v 503.723 H 1748.26 Z"
         style="fill:#e7e8e5;fill-opacity:1;fill-rule:nonzero;stroke:none"
         id="path68" /><path
         d="m 2251.98,2907.93 h 22.32 v -503.71 h -22.32 v 503.71"
         style="fill:#dadbd8;fill-opacity:1;fill-rule:nonzero;stroke:none"
         id="path70" /><path
         d="m 1816.56,2472.51 h 367.203 v 367.211 H 1816.56 Z"
         style="fill:#ffffff;fill-opacity:1;fill-rule:nonzero;stroke:none"
         id="path72" /><path
         d="m 1921.81,2577.86 h 156.613 v 156.602 H 1921.81 Z"
         style="fill:#f3f2f1;fill-opacity:1;fill-rule:nonzero;stroke:none"
         id="path74" /><path
         d="m 4232.27,3069.96 h 272.7 v -63.73 h -272.7 v 63.73"
         style="fill:#e2e2e0;fill-opacity:1;fill-rule:nonzero;stroke:none"
         id="path76" /><path
         d="M 4232.27,3006.23 H 3103.49 v 63.73 h 1128.78 v -63.73"
         style="fill:#f3f2f1;fill-opacity:1;fill-rule:nonzero;stroke:none"
         id="path78" /><path
         d="m 3427.14,3408.24 h 317.77 v -338.28 h -317.77 v 338.28"
         style="fill:#dadbd8;fill-opacity:1;fill-rule:nonzero;stroke:none"
         id="path80" /><path
         d="m 3427.14,3069.96 h -81.39 v 338.28 h 81.39 v -338.28"
         style="fill:#ededeb;fill-opacity:1;fill-rule:nonzero;stroke:none"
         id="path82" /><path
         d="m 3589.53,3460.4 h 238.7 v -390.44 h -238.7 v 390.44"
         style="fill:#e2e2e0;fill-opacity:1;fill-rule:nonzero;stroke:none"
         id="path84" /><path
         d="m 3589.63,3069.97 h -69.01 v 390.43 h 69.01 v -390.43"
         style="fill:#ededeb;fill-opacity:1;fill-rule:nonzero;stroke:none"
         id="path86" /><path
         d="m 3659.86,3408.24 h 201.25 v -338.28 h -201.25 v 338.28"
         style="fill:#ededeb;fill-opacity:1;fill-rule:nonzero;stroke:none"
         id="path88" /><path
         d="m 3659.86,3069.96 h -45.97 v 338.28 h 45.97 v -338.28"
         style="fill:#fafaf9;fill-opacity:1;fill-rule:nonzero;stroke:none"
         id="path90" /><path
         d="m 3824.58,3351 h 263.97 V 3069.96 H 3824.58 V 3351"
         style="fill:#e2e2e0;fill-opacity:1;fill-rule:nonzero;stroke:none"
         id="path92" /><path
         d="m 3824.58,3069.97 h -67.6 V 3351 h 67.6 v -281.03"
         style="fill:#fafaf9;fill-opacity:1;fill-rule:nonzero;stroke:none"
         id="path94" /><path
         d="m 3959.46,3394.33 h 198.31 v -324.37 h -198.31 v 324.37"
         style="fill:#e2e2e0;fill-opacity:1;fill-rule:nonzero;stroke:none"
         id="path96" /><path
         d="m 3959.56,3069.96 h -57.34 v 324.37 h 57.34 v -324.37"
         style="fill:#ededeb;fill-opacity:1;fill-rule:nonzero;stroke:none"
         id="path98" /><path
         d="m 4017.92,3351 h 192.63 V 3069.96 H 4017.92 V 3351"
         style="fill:#ededeb;fill-opacity:1;fill-rule:nonzero;stroke:none"
         id="path100" /><path
         d="m 4017.82,3069.97 h -38.16 V 3351 h 38.16 v -281.03"
         style="fill:#fafaf9;fill-opacity:1;fill-rule:nonzero;stroke:none"
         id="path102" /><path
         d="m 4070.91,1181.36 c 85.42,111.67 288.73,153.17 358.99,223.53 92.03,92.32 91.56,230.81 13.23,280.76 -68.03,43.45 -293.6,-250.25 -318.97,-283 -87.46,-112.83 -112.72,-196.6 -129.15,-277.66 1.85,68.91 3.69,132.28 5.15,181.06 4.76,159.38 10.69,210.6 13.4,226.35 9.73,7.77 20.61,16.71 27.03,21.47 54.62,40.72 175.61,89.22 236.15,148.3 88.35,86.4 74.06,189.81 12.05,228.29 -64.72,40.23 -179.3,-54.91 -240.14,-149.18 -60.84,-94.26 -34.79,-184.64 -51.79,-262.4 -3.6,-15.35 -7.3,-73.66 -10.7,-154.62 -14.37,79.72 -58.45,151.03 -123.33,199.52 -83.77,66.87 -156.07,148.21 -225.08,137.72 -68.99,-10.5 -31.48,-118.19 22.75,-193.79 48.59,-67.34 288.54,-134.5 323.82,-188.63 -4.18,-109.63 -7.87,-248.5 -10.5,-377.861 -18.95,66.771 -5.93,72.411 -83.38,174.941 -46.06,60.84 -234.99,136.05 -257.44,94.07 -22.45,-41.98 11.66,-120.8 83,-176.09 57.53,-44.609 184.64,-44.519 214.67,-72.21 6.9,-6.418 29.64,-31.2 42.66,-45.489 -3.11,-157.82 -4.46,-297.191 -2.91,-344.711 l 12.34,-0.492 c -0.58,12.254 0.87,92.524 3.3,198.844 31.01,56.559 239.66,89.609 304.1,148.398 67.44,61.52 115.84,133.34 86.98,181.45 -24.1,40.13 -213.81,-14.39 -291.55,-80.86 -51.42,-44.218 -82.81,-91.449 -97.19,-154.922 1.75,72.411 3.79,150.162 5.73,223.532 15.45,18.08 51.12,60.25 76.78,93.68"
         style="fill:#e2e2e0;fill-opacity:1;fill-rule:nonzero;stroke:none"
         id="path104" /><path
         d="m 4089.08,448.309 h -216.62 c -11.85,0 -22.06,15.363 -24.39,36.832 l -15.36,140.14 h 296.12 l -15.35,-140.14 c -2.44,-21.469 -12.54,-36.832 -24.4,-36.832"
         style="fill:#ededeb;fill-opacity:1;fill-rule:nonzero;stroke:none"
         id="path106" /><path
         d="m 4135.05,570.949 h -308.56 c -7.39,0 -13.61,10.211 -14.38,23.813 l -6.32,103.597 c -0.98,15.942 5.73,29.84 14.39,29.84 h 321.19 c 8.65,0 15.35,-13.898 14.38,-29.84 l -6.32,-103.597 c -0.78,-13.602 -7,-23.813 -14.38,-23.813"
         style="fill:#ededeb;fill-opacity:1;fill-rule:nonzero;stroke:none"
         id="path108" /><path
         d="M 485.434,334.199 H 1036.18"
         style="fill:#e7e8e5;fill-opacity:1;fill-rule:nonzero;stroke:none"
         id="path110" /><path
         d="m 2500,226.398 c 1070.82,0 1938.9,-50.679 1938.9,-113.199 C 4438.9,50.6797 3570.82,0 2500,0 1429.17,0 561.098,50.6797 561.098,113.199 c 0,62.52 868.072,113.199 1938.902,113.199"
         style="fill:#f3f2f1;fill-opacity:1;fill-rule:nonzero;stroke:none"
         id="path112" /><path
         d="m 2144.92,2718.78 c -22.14,-53.67 -152.2,-50.07 -288.56,6.18 -136.37,56.25 -228.97,145.35 -206.83,199.02 5.13,12.44 19.44,58.9 34.78,65.36 50.82,21.43 147.46,-26.83 252.21,-70.04 97.5,-40.22 208.93,-66.07 226.24,-119.03 10.49,-32.13 -11.53,-66.2 -17.84,-81.49"
         style="fill:#406fbf;fill-opacity:1;fill-rule:nonzero;stroke:none"
         id="path114" /><path
         d="m 1814.25,2744 v 0 c -8.79,4.36 -17.32,8.84 -25.56,13.41 8.26,-4.57 16.79,-9.04 25.57,-13.39 l -0.01,-0.02"
         style="fill:#b1b3b1;fill-opacity:1;fill-rule:nonzero;stroke:none"
         id="path116" /><path
         d="m 1733.33,2792.37 v 0 c -11.42,8.31 -21.93,16.76 -31.37,25.23 9.45,-8.46 19.95,-16.89 31.39,-25.2 l -0.02,-0.03"
         style="fill:#c3c5c2;fill-opacity:1;fill-rule:nonzero;stroke:none"
         id="path118" /><path
         d="m 2078.42,2682.09 v 0.05 c 1.06,0.13 2.11,0.27 3.15,0.41 -1.04,-0.17 -2.09,-0.32 -3.15,-0.46 m 12.5,2.01 c 0.05,0.01 0.1,0.02 0.15,0.03 -0.05,-0.01 -0.1,-0.02 -0.15,-0.03 m 0.17,0.03 c 15.77,3.11 28.82,8.24 38.46,15.46 -9.64,-7.22 -22.7,-12.36 -38.46,-15.46 m 38.49,15.48 c 0.02,0.01 0.04,0.03 0.06,0.04 -0.02,-0.01 -0.04,-0.02 -0.06,-0.04 m -207.77,2.1 c -7.25,2.15 -14.57,4.46 -21.95,6.91 l 0.03,0.06 c 7.37,-2.47 14.67,-4.78 21.92,-6.93 v -0.04 m -31.58,10.29 v 0 c -11.17,3.93 -22.56,8.21 -33.88,12.92 -10.1,4.14 -19.95,8.53 -29.6,13.08 9.61,-4.51 19.49,-8.86 29.61,-13.04 11.35,-4.68 22.67,-9 33.88,-12.95 l -0.01,-0.01 m 257.76,13.49 c 5.06,10.47 12.82,25.5 16.06,41.97 -2.57,-17.89 -10.34,-30.5 -16.06,-41.97 m 14.85,74.56 c -0.02,0.09 -0.05,0.18 -0.08,0.27 0.01,-0.02 0.03,-0.03 0.04,-0.05 0.01,-0.07 0.03,-0.15 0.04,-0.22"
         style="fill:#c3c5c2;fill-opacity:1;fill-rule:nonzero;stroke:none"
         id="path120" /><path
         d="m 2050.52,2680.54 c -15.05,0 -31.37,1.18 -48.66,3.58 17.24,-2.36 33.51,-3.55 48.51,-3.55 9.94,0 19.32,0.52 28.05,1.57 v -0.05 c -2.91,-0.38 -5.91,-0.64 -8.98,-0.88 -6.04,-0.45 -12.36,-0.67 -18.92,-0.67 m -65.79,6.25 v 0 c -20.07,3.47 -41.17,8.49 -62.92,14.92 v 0.04 c 21.75,-6.45 42.87,-11.44 62.92,-14.95 v -0.01"
         style="fill:#babcba;fill-opacity:1;fill-rule:nonzero;stroke:none"
         id="path122" /><path
         d="m 2050.37,2680.57 c -15,0 -31.27,1.19 -48.51,3.55 -2.18,0.3 -4.37,0.62 -6.58,0.96 l 25.27,45.17 c 16.21,-2.13 31.54,-3.19 45.74,-3.19 49.47,0 85.18,12.91 95.91,38.92 1.18,2.87 2.04,5.84 2.58,8.91 -0.14,-2.57 -0.39,-5.05 -0.73,-7.43 -3.24,-16.47 -11,-31.5 -16.06,-41.97 -1.12,-2.27 -2.17,-4.49 -3.08,-6.7 -3.09,-7.49 -8.27,-13.87 -15.27,-19.14 -0.02,-0.01 -0.04,-0.03 -0.06,-0.04 -0.01,-0.01 -0.02,-0.01 -0.03,-0.02 -9.64,-7.22 -22.69,-12.35 -38.46,-15.46 -0.01,0 -0.01,0 -0.02,0 -0.05,-0.01 -0.1,-0.02 -0.15,-0.03 -3.01,-0.59 -6.1,-1.1 -9.29,-1.54 -0.02,-0.01 -0.04,-0.01 -0.06,-0.01 -1.04,-0.14 -2.09,-0.28 -3.15,-0.41 -8.73,-1.05 -18.11,-1.57 -28.05,-1.57 m -65.64,6.23 c -20.05,3.51 -41.17,8.5 -62.92,14.95 -7.25,2.15 -14.55,4.46 -21.92,6.93 l 24.53,43.86 c 29.86,-9.66 58.72,-16.59 85.47,-20.77 l -25.16,-44.97 m -94.49,25.21 c -11.21,3.95 -22.53,8.27 -33.88,12.95 -10.12,4.18 -20,8.53 -29.61,13.04 -1.13,0.53 -2.26,1.07 -3.39,1.61 l 24.14,43.19 c 9.01,-4.19 18.25,-8.25 27.7,-12.15 13.28,-5.47 26.47,-10.43 39.51,-14.88 L 1890.23,2712 m -75.97,32.02 c -8.78,4.35 -17.31,8.82 -25.57,13.39 -16.95,9.4 -32.72,19.22 -47.17,29.22 l 23.69,42.35 c 21.72,-14.69 46.32,-28.85 73.16,-41.84 l -24.11,-43.12 m -80.91,48.38 c -11.44,8.31 -21.94,16.74 -31.39,25.2 -9.02,8.09 -17.07,16.2 -24.01,24.22 l 22.93,41.02 c 14.79,-16.06 33.76,-32.37 56.1,-48.16 l -23.63,-42.28"
         style="fill:#3563b7;fill-opacity:1;fill-rule:nonzero;stroke:none"
         id="path124" /><path
         d="m 1651.08,2927.97 c 6.05,16.72 17.47,55.3 33.12,61.37 -0.06,-0.04 -0.11,-0.08 -0.17,-0.12 -3.52,-1.6 -6.99,-5.29 -10.3,-10.17 -1.79,-2.39 -3.32,-4.93 -4.57,-7.61 -7.76,-14.33 -14.29,-33.35 -18.08,-43.47"
         style="fill:#c3c5c2;fill-opacity:1;fill-rule:nonzero;stroke:none"
         id="path126" /><path
         d="m 1671.05,2850.08 v 0 c -21.53,27.27 -30.01,53.22 -21.5,73.88 0.47,1.12 0.98,2.47 1.53,4.01 3.79,10.12 10.32,29.14 18.08,43.47 -0.28,-0.58 -0.53,-1.17 -0.78,-1.77 -9.04,-21.92 1.06,-49.74 25.46,-78.84 l -22.79,-40.75 m 2.68,128.97 c 3.31,4.88 6.78,8.57 10.3,10.17 -4.04,-3.03 -7.49,-6.42 -10.3,-10.17"
         style="fill:#3563b7;fill-opacity:1;fill-rule:nonzero;stroke:none"
         id="path128" /><path
         d="m 1677.95,2841.82 v 0 c -2.48,2.77 -4.74,5.5 -6.9,8.26 l 22.79,40.75 c 2.23,-2.65 4.58,-5.32 7.04,-7.99 l -22.93,-41.02"
         style="fill:#2555ad;fill-opacity:1;fill-rule:nonzero;stroke:none"
         id="path130" /><path
         d="m 1734.93,2791.26 c -0.53,0.37 -1.06,0.74 -1.6,1.11 l 0.02,0.03 c 0.53,-0.38 1.05,-0.76 1.58,-1.14"
         style="fill:#969898;fill-opacity:1;fill-rule:nonzero;stroke:none"
         id="path132" /><path
         d="m 1741.52,2786.63 v 0 c -2.27,1.54 -4.43,3.11 -6.59,4.63 -0.53,0.38 -1.05,0.76 -1.58,1.14 l 23.63,42.28 c 2.69,-1.91 5.43,-3.8 8.23,-5.7 l -23.69,-42.35"
         style="fill:#2555ad;fill-opacity:1;fill-rule:nonzero;stroke:none"
         id="path134" /><path
         d="m 1899.86,2708.62 v 0 c -3.19,1.07 -6.41,2.22 -9.63,3.38 v 0 c 3.23,-1.13 6.45,-2.24 9.66,-3.32 l -0.03,-0.06"
         style="fill:#969898;fill-opacity:1;fill-rule:nonzero;stroke:none"
         id="path136" /><path
         d="m 1899.89,2708.68 c -3.21,1.08 -6.43,2.19 -9.65,3.33 l 24.47,43.76 c 3.24,-1.11 6.48,-2.18 9.71,-3.23 l -24.53,-43.86"
         style="fill:#2555ad;fill-opacity:1;fill-rule:nonzero;stroke:none"
         id="path138" /><path
         d="m 1816.56,2742.88 c -0.77,0.37 -1.54,0.75 -2.31,1.12 l 0.01,0.02 c 0.76,-0.38 1.53,-0.76 2.3,-1.13 v -0.01"
         style="fill:#898b8c;fill-opacity:1;fill-rule:nonzero;stroke:none"
         id="path140" /><path
         d="m 1822.9,2739.82 c -2.14,0.99 -4.25,2.03 -6.34,3.06 v 0.01 c 2.1,-1.03 4.21,-2.05 6.34,-3.07"
         style="fill:#969898;fill-opacity:1;fill-rule:nonzero;stroke:none"
         id="path142" /><path
         d="m 1823.36,2739.61 v 0 c -0.15,0.07 -0.31,0.14 -0.46,0.21 -2.13,1.02 -4.24,2.04 -6.34,3.07 -0.77,0.37 -1.54,0.75 -2.3,1.13 l 24.11,43.12 c 3.01,-1.46 6.06,-2.91 9.13,-4.34 l -24.14,-43.19"
         style="fill:#2555ad;fill-opacity:1;fill-rule:nonzero;stroke:none"
         id="path144" /><path
         d="m 1994.86,2685.14 c -3.37,0.42 -6.71,1.05 -10.13,1.65 v 0.01 c 3.41,-0.6 6.78,-1.15 10.13,-1.66"
         style="fill:#909292;fill-opacity:1;fill-rule:nonzero;stroke:none"
         id="path146" /><path
         d="m 1995.28,2685.08 v 0 c -0.14,0.02 -0.28,0.04 -0.42,0.06 -3.35,0.51 -6.72,1.06 -10.13,1.66 l 25.16,44.97 c 3.59,-0.56 7.14,-1.06 10.66,-1.52 l -25.27,-45.17"
         style="fill:#2555ad;fill-opacity:1;fill-rule:nonzero;stroke:none"
         id="path148" /><path
         d="m 2162.2,2765.98 c -22.14,-53.67 -150.63,-51.58 -287,4.67 -136.36,56.25 -228.95,145.36 -206.82,199.02 22.14,53.67 150.63,51.58 286.99,-4.67 136.36,-56.25 228.96,-145.36 206.83,-199.02"
         style="fill:#406fbf;fill-opacity:1;fill-rule:nonzero;stroke:none"
         id="path150" /><path
         d="m 2050.9,2759.82 c -41.94,0 -99.17,12.64 -158.78,37.23 -107.92,44.51 -182.72,111.33 -167.08,149.25 7.01,16.97 30.95,25.28 64.94,25.28 41.94,0 99.18,-12.64 158.78,-37.22 107.91,-44.52 182.72,-111.34 167.08,-149.26 -7,-16.97 -30.95,-25.28 -64.94,-25.28"
         style="fill:#5d87cd;fill-opacity:1;fill-rule:nonzero;stroke:none"
         id="path152" /><path
         d="m 2834.13,3204.16 c 35.54,-45.89 -32.27,-156.94 -148.9,-247.26 -116.62,-90.32 -239.98,-126.33 -275.52,-80.43 -8.25,10.64 -41.42,46.16 -39.41,62.68 6.69,54.74 96.62,114.58 186.21,183.96 83.39,64.58 161.24,148.39 215.8,137.05 33.09,-6.87 51.68,-42.91 61.82,-56"
         style="fill:#406fbf;fill-opacity:1;fill-rule:nonzero;stroke:none"
         id="path154" /><path
         d="m 2527.93,2868.99 c 5.59,1.85 11.28,3.9 17.07,6.15 v -0.02 c -5.79,-2.24 -11.48,-4.28 -17.07,-6.13 m 19.57,7.1 v 0.02 c 5.92,2.35 11.95,4.89 18.05,7.63 l 0.02,-0.03 c -6.11,-2.73 -12.14,-5.28 -18.07,-7.62"
         style="fill:#c3c5c2;fill-opacity:1;fill-rule:nonzero;stroke:none"
         id="path156" /><path
         d="m 2545,2875.12 v 0.02 c 0.83,0.32 1.67,0.65 2.5,0.97 v -0.02 c -0.83,-0.33 -1.67,-0.65 -2.5,-0.97"
         style="fill:#b1b3b1;fill-opacity:1;fill-rule:nonzero;stroke:none"
         id="path158" /><path
         d="m 2407.22,2879.55 c -11.36,13.45 -39.53,42.83 -36.97,59.52 0,-0.07 0.01,-0.14 0.02,-0.21 -0.37,-3.86 1.11,-8.72 3.71,-14.04 1.18,-2.72 2.61,-5.29 4.3,-7.7 8.67,-14.01 22.11,-29.3 28.94,-37.57 m 216.67,35.07 c 7.92,4.81 15.89,9.89 23.87,15.24 l 0.01,-0.02 c -7.99,-5.35 -15.96,-10.43 -23.88,-15.22 m 35.67,23.34 c 8.57,6.02 17.14,12.33 25.67,18.94 9.49,7.35 18.65,14.83 27.46,22.4 -8.76,-7.55 -17.93,-15.12 -27.43,-22.42 -8.49,-6.62 -17.08,-12.9 -25.7,-18.92 m 61.48,48.55 -0.03,0.06 c 23.24,20.66 43.82,41.86 61.18,62.72 l 0.01,-0.01 c -17.32,-20.91 -37.95,-42.05 -61.16,-62.77 v 0 m 69.55,73.16 c 19.71,25.1 34.52,49.44 43.41,71.4 -1.37,-3.64 -3.04,-7.32 -4.82,-11.07 -9.08,-18.97 -22.11,-39.42 -38.59,-60.33 m 49.63,89.89 c 0,0.01 0,0.02 0,0.03 0,-0.01 0,-0.02 0,-0.03 m 0.03,0.14 c 2.49,9.54 3.62,18.46 3.28,26.59 0.34,-8.13 -0.79,-17.05 -3.28,-26.59 m 3.28,26.67 c 0,0.02 0,0.03 0,0.06 0,-0.02 0,-0.05 0,-0.06 m -13.63,33.71 c -6.58,9.6 -15.79,23.87 -28.52,34.91 14.31,-11.16 21.38,-24.23 28.52,-34.91 m -57.36,50.05 c -0.09,0.03 -0.19,0.05 -0.28,0.07 0.02,0 0.04,0.01 0.06,0.01 0.08,-0.03 0.15,-0.05 0.22,-0.08"
         style="fill:#c3c5c2;fill-opacity:1;fill-rule:nonzero;stroke:none"
         id="path160" /><path
         d="m 2461.53,2856.56 c -23.27,0 -41.34,6.42 -51.8,19.92 -0.69,0.89 -1.54,1.92 -2.51,3.07 -6.83,8.27 -20.27,23.56 -28.94,37.57 0.38,-0.53 0.76,-1.06 1.16,-1.57 10.48,-13.53 28.59,-19.94 51.91,-19.94 8.99,0 18.75,0.95 29.15,2.81 l 24.01,-40.04 c -8.11,-1.21 -15.79,-1.82 -22.98,-1.82 m 33.59,3.7 -24.18,40.29 c 21.28,4.85 44.88,13.2 69.68,24.71 l 24.93,-41.52 c -6.1,-2.74 -12.13,-5.28 -18.05,-7.63 -0.83,-0.32 -1.67,-0.65 -2.5,-0.97 -5.79,-2.25 -11.48,-4.3 -17.07,-6.15 -11.46,-3.78 -22.45,-6.71 -32.81,-8.73 v 0 m 79.5,27.69 -24.97,41.62 c 23.55,11.53 48.08,25.84 72.69,42.66 l 25.42,-42.37 c -7.98,-5.35 -15.95,-10.43 -23.87,-15.24 -16.75,-10.14 -33.26,-19.04 -49.27,-26.67 v 0 m -200.64,36.87 c -2.6,5.32 -4.08,10.18 -3.71,14.04 0.62,-5.03 1.85,-9.73 3.71,-14.04 m 282.13,10.75 -25.47,42.42 c 8.12,5.73 16.24,11.73 24.33,17.99 11.35,8.79 22.22,17.78 32.56,26.87 l 25.79,-43 c -0.21,-0.18 -0.42,-0.37 -0.63,-0.55 -8.81,-7.57 -17.97,-15.05 -27.46,-22.4 -8.53,-6.61 -17.1,-12.92 -25.67,-18.94 -1.15,-0.8 -2.3,-1.6 -3.45,-2.39 v 0 m 64.9,51 -25.85,43.09 c 23.24,21.1 43.61,42.7 60.53,63.83 l 26.5,-44.2 c -17.36,-20.86 -37.94,-42.06 -61.18,-62.72 m 67.92,71.02 -26.61,44.39 c 44.4,58.29 61.63,112.02 39.46,140.65 -1.91,2.46 -4.06,4.68 -6.46,6.67 2.16,-1.39 4.17,-2.84 6.06,-4.31 12.73,-11.04 21.94,-25.31 28.52,-34.91 1.38,-2.08 2.77,-4.06 4.21,-5.92 5.89,-7.6 8.95,-16.97 9.42,-27.73 0,-0.03 0,-0.04 0,-0.06 0,-0.03 0,-0.06 0,-0.08 0.34,-8.13 -0.79,-17.05 -3.28,-26.59 -0.01,-0.04 -0.02,-0.07 -0.03,-0.11 0,-0.01 0,-0.02 0,-0.03 -1.55,-5.88 -3.61,-12.01 -6.16,-18.32 -0.02,-0.06 -0.04,-0.11 -0.06,-0.17 -8.89,-21.96 -23.7,-46.3 -43.41,-71.4 -0.55,-0.69 -1.1,-1.38 -1.66,-2.08 v 0"
         style="fill:#3563b7;fill-opacity:1;fill-rule:nonzero;stroke:none"
         id="path162" /><path
         d="m 2484.51,2858.38 -24.01,40.04 c 3.41,0.62 6.89,1.33 10.44,2.13 l 24.18,-40.29 c -3.64,-0.78 -7.13,-1.38 -10.61,-1.88 v 0"
         style="fill:#2555ad;fill-opacity:1;fill-rule:nonzero;stroke:none"
         id="path164" /><path
         d="m 2565.57,2883.71 -0.02,0.03 c 0.53,0.24 1.07,0.48 1.61,0.73 -0.54,-0.25 -1.07,-0.51 -1.59,-0.76 v 0"
         style="fill:#969898;fill-opacity:1;fill-rule:nonzero;stroke:none"
         id="path166" /><path
         d="m 2565.55,2883.74 -24.93,41.52 c 3,1.39 6,2.83 9.03,4.31 l 24.97,-41.62 c -2.52,-1.23 -5.02,-2.34 -7.46,-3.48 -0.54,-0.25 -1.08,-0.49 -1.61,-0.73"
         style="fill:#2555ad;fill-opacity:1;fill-rule:nonzero;stroke:none"
         id="path168" /><path
         d="m 2713.45,2979.96 c 2.55,2.2 5.07,4.41 7.56,6.61 l 0.03,-0.06 c -2.46,-2.19 -5.02,-4.37 -7.59,-6.55"
         style="fill:#969898;fill-opacity:1;fill-rule:nonzero;stroke:none"
         id="path170" /><path
         d="m 2713.32,2979.85 -25.79,43 c 2.58,2.27 5.11,4.53 7.63,6.81 l 25.85,-43.09 c -2.49,-2.2 -5.01,-4.41 -7.56,-6.61 -0.04,-0.03 -0.09,-0.07 -0.13,-0.11 v 0"
         style="fill:#2555ad;fill-opacity:1;fill-rule:nonzero;stroke:none"
         id="path172" /><path
         d="m 2647.77,2929.84 -0.01,0.02 c 2.61,1.75 5.23,3.53 7.84,5.34 -2.59,-1.85 -5.25,-3.59 -7.83,-5.36 v 0"
         style="fill:#969898;fill-opacity:1;fill-rule:nonzero;stroke:none"
         id="path174" /><path
         d="m 2647.76,2929.86 -25.42,42.37 c 2.77,1.89 5.54,3.81 8.3,5.76 l 25.47,-42.42 c -0.17,-0.13 -0.34,-0.25 -0.51,-0.37 -2.61,-1.81 -5.23,-3.59 -7.84,-5.34"
         style="fill:#2555ad;fill-opacity:1;fill-rule:nonzero;stroke:none"
         id="path176" /><path
         d="m 2782.2,3049.28 -0.01,0.01 c 2.26,2.72 4.47,5.44 6.62,8.14 -2.09,-2.77 -4.34,-5.41 -6.61,-8.15 v 0"
         style="fill:#969898;fill-opacity:1;fill-rule:nonzero;stroke:none"
         id="path178" /><path
         d="m 2782.19,3049.29 -26.5,44.2 c 2.27,2.83 4.48,5.67 6.63,8.49 l 26.61,-44.39 c -0.04,-0.05 -0.08,-0.11 -0.12,-0.16 -2.15,-2.7 -4.36,-5.42 -6.62,-8.14"
         style="fill:#2555ad;fill-opacity:1;fill-rule:nonzero;stroke:none"
         id="path180" /><path
         d="m 2801.78,3242.63 c 35.54,-45.9 -30.19,-156.33 -146.81,-246.65 -116.63,-90.32 -239.98,-126.33 -275.53,-80.43 -35.54,45.9 30.18,156.32 146.81,246.64 116.62,90.33 239.98,126.33 275.53,80.44"
         style="fill:#406fbf;fill-opacity:1;fill-rule:nonzero;stroke:none"
         id="path182" /><path
         d="m 2461.52,2940.34 c -15.27,0 -26.93,4.09 -33.62,12.74 -25.11,32.43 29.35,116.66 121.64,188.13 67.7,52.44 136.96,83.44 178.97,83.44 15.26,0 26.93,-4.09 33.62,-12.73 25.12,-32.43 -29.35,-116.66 -121.64,-188.13 -67.7,-52.44 -136.96,-83.45 -178.97,-83.45"
         style="fill:#5d87cd;fill-opacity:1;fill-rule:nonzero;stroke:none"
         id="path184" /><path
         d="m 2351.35,3419.2 c -11.71,-65.81 -158.91,-93.73 -326.15,-63.96 -167.24,29.76 -293.31,107.25 -281.6,173.06 2.72,15.26 7.41,71.04 23.07,82.09 51.9,36.59 172.49,6.05 300.95,-16.82 119.57,-21.28 251.29,-22.98 283.78,-78.31 19.69,-33.56 3.29,-77.3 -0.05,-96.06"
         style="fill:#406fbf;fill-opacity:1;fill-rule:nonzero;stroke:none"
         id="path186" /><path
         d="m 2154,3343.31 c -24.09,0 -49.53,1.43 -75.85,4.24 l 0.03,0.08 c 26.39,-2.88 51.91,-4.27 76.08,-4.27 8.42,0 16.67,0.16 24.74,0.5 v -0.01 0 c -8.15,-0.36 -16.49,-0.54 -25,-0.54 m 41.52,1.49 c 16.92,1.22 32.89,3.22 47.69,5.94 v -0.03 c -14.81,-2.73 -30.77,-4.72 -47.69,-5.91"
         style="fill:#c3c5c2;fill-opacity:1;fill-rule:nonzero;stroke:none"
         id="path188" /><path
         d="m 2243.21,3350.71 v 0.03 c 16.87,3.11 32.23,7.17 45.74,12.12 -4.2,-1.66 -8.66,-3.09 -13.27,-4.47 -10.05,-2.98 -20.9,-5.56 -32.47,-7.68"
         style="fill:#b1b3b1;fill-opacity:1;fill-rule:nonzero;stroke:none"
         id="path190" /><path
         d="m 2066.49,3348.99 v 0 c -13.53,1.67 -27.39,3.68 -41.29,6.21 -12.38,2.16 -24.53,4.68 -36.48,7.43 11.91,-2.71 24.08,-5.18 36.48,-7.39 13.92,-2.48 27.72,-4.56 41.29,-6.25 v 0 m -93.34,17.31 v 0 c -11.33,2.84 -22.36,5.89 -33.09,9.13 10.74,-3.23 21.79,-6.27 33.1,-9.1 l -0.01,-0.03"
         style="fill:#c3c5c2;fill-opacity:1;fill-rule:nonzero;stroke:none"
         id="path192" /><path
         d="m 2305.69,3369.93 c 0.02,0 0.04,0.02 0.06,0.03 -0.02,-0.01 -0.04,-0.03 -0.06,-0.03 m 0.11,0.05 c 12.95,6.29 23.5,13.63 31.25,21.94 -7.75,-8.32 -18.31,-15.66 -31.25,-21.94"
         style="fill:#c3c5c2;fill-opacity:1;fill-rule:nonzero;stroke:none"
         id="path194" /><path
         d="m 1870.23,3400.84 v 0 c -15.24,6.7 -29.45,13.79 -42.39,21.18 12.95,-7.37 27.14,-14.45 42.41,-21.14 l -0.02,-0.04 m 490.27,59.56 h -0.64 c 0.75,5.93 1.18,12.09 1.04,18.3 0.48,-6.53 0.25,-12.6 -0.4,-18.3"
         style="fill:#c3c5c2;fill-opacity:1;fill-rule:nonzero;stroke:none"
         id="path196" /><path
         d="m 2353.08,3427.15 c 2.12,8.9 5.17,20.55 6.78,33.25 h 0.64 c -1.44,-12.58 -4.94,-23.33 -7.42,-33.25"
         style="fill:#b1b3b1;fill-opacity:1;fill-rule:nonzero;stroke:none"
         id="path198" /><path
         d="m 2351.55,3515.03 c -0.06,0.1 -0.11,0.2 -0.17,0.3 0.02,-0.02 0.04,-0.04 0.06,-0.05 0.04,-0.08 0.07,-0.17 0.11,-0.25"
         style="fill:#c3c5c2;fill-opacity:1;fill-rule:nonzero;stroke:none"
         id="path200" /><path
         d="m 2154.26,3343.36 c -24.17,0 -49.69,1.39 -76.08,4.27 l 16.81,55.37 c 23.1,-2.27 45.43,-3.37 66.71,-3.37 11.87,0 23.41,0.34 34.55,1.01 L 2179,3343.86 c -8.07,-0.34 -16.32,-0.5 -24.74,-0.5 m 37.03,1.16 17.33,57.02 c 84.07,7.15 143.26,33.96 150.57,75.01 0.63,3.52 0.86,7.08 0.71,10.67 0.48,-2.93 0.8,-5.76 1,-8.52 0.14,-6.21 -0.29,-12.37 -1.04,-18.3 -1.61,-12.7 -4.66,-24.35 -6.78,-33.25 -0.68,-2.7 -1.28,-5.34 -1.74,-7.93 -1.78,-10.01 -6.67,-19.13 -14.29,-27.3 -7.75,-8.31 -18.3,-15.65 -31.25,-21.94 -0.02,-0.01 -0.03,-0.02 -0.05,-0.02 -0.02,-0.01 -0.04,-0.03 -0.06,-0.03 -5.18,-2.52 -10.73,-4.86 -16.64,-7.03 -0.03,-0.01 -0.07,-0.02 -0.1,-0.04 -13.51,-4.95 -28.87,-9.01 -45.74,-12.12 -14.8,-2.72 -30.77,-4.72 -47.69,-5.94 -1.4,-0.1 -2.81,-0.19 -4.23,-0.28 m -124.8,4.47 c -13.57,1.69 -27.37,3.77 -41.29,6.25 -12.4,2.21 -24.57,4.68 -36.48,7.39 -1.42,0.32 -2.83,0.65 -4.24,0.98 l 16.53,54.53 c 11.17,-2.5 22.57,-4.8 34.17,-6.86 16.28,-2.9 32.33,-5.24 48.09,-7.04 l -16.78,-55.25 m -93.33,17.34 c -11.31,2.83 -22.36,5.87 -33.1,9.1 -21,6.33 -40.8,13.38 -59.21,20.96 l 16.24,53.48 c 28.04,-11.2 59.21,-21.08 92.59,-29.1 l -16.52,-54.44 m -102.91,34.55 c -15.27,6.69 -29.46,13.77 -42.41,21.14 -11.79,6.73 -22.54,13.7 -32.07,20.84 l 15.71,51.78 c 20.59,-14.43 45.94,-28.12 74.95,-40.39 l -16.18,-53.37"
         style="fill:#3563b7;fill-opacity:1;fill-rule:nonzero;stroke:none"
         id="path202" /><path
         d="m 1744.32,3532.85 c 2.7,20.11 6.02,66.78 22.22,77.51 -0.05,-0.06 -0.1,-0.12 -0.16,-0.18 -3.56,-2.66 -6.55,-7.65 -9.07,-13.94 -1.44,-3.14 -2.54,-6.39 -3.29,-9.73 -5.26,-18.2 -7.92,-41.43 -9.7,-53.66"
         style="fill:#c3c5c2;fill-opacity:1;fill-rule:nonzero;stroke:none"
         id="path204" /><path
         d="m 1785.97,3450.46 v 0 c -30.92,25.38 -46.83,52.49 -42.34,77.83 0.23,1.3 0.46,2.83 0.69,4.56 1.78,12.23 4.44,35.46 9.7,53.66 -0.17,-0.72 -0.31,-1.44 -0.44,-2.17 -4.79,-26.88 13.41,-55.7 48.02,-82.43 l -15.63,-51.45 m -28.66,145.78 c 2.52,6.29 5.51,11.28 9.07,13.94 -3.79,-4.39 -6.84,-9.05 -9.07,-13.94"
         style="fill:#3563b7;fill-opacity:1;fill-rule:nonzero;stroke:none"
         id="path206" /><path
         d="m 1795.77,3442.86 v 0 c -3.48,2.5 -6.69,5.02 -9.8,7.6 l 15.63,51.45 c 3.16,-2.44 6.45,-4.86 9.88,-7.27 l -15.71,-51.78"
         style="fill:#2555ad;fill-opacity:1;fill-rule:nonzero;stroke:none"
         id="path208" /><path
         d="m 1872.14,3400.05 c -0.63,0.27 -1.27,0.53 -1.91,0.79 l 0.02,0.04 c 0.62,-0.27 1.26,-0.55 1.89,-0.83"
         style="fill:#969898;fill-opacity:1;fill-rule:nonzero;stroke:none"
         id="path210" /><path
         d="m 1880.85,3396.39 v 0 c -2.99,1.19 -5.85,2.46 -8.71,3.66 -0.63,0.28 -1.27,0.56 -1.89,0.83 l 16.18,53.37 c 3.5,-1.49 7.05,-2.95 10.66,-4.38 l -16.24,-53.48"
         style="fill:#2555ad;fill-opacity:1;fill-rule:nonzero;stroke:none"
         id="path212" /><path
         d="m 2078.15,3347.55 v 0 c -3.84,0.41 -7.75,0.93 -11.66,1.44 v 0 c 3.92,-0.49 7.81,-0.94 11.69,-1.36 l -0.03,-0.08"
         style="fill:#969898;fill-opacity:1;fill-rule:nonzero;stroke:none"
         id="path214" /><path
         d="m 2078.18,3347.63 c -3.88,0.42 -7.77,0.87 -11.69,1.36 l 16.78,55.25 c 3.92,-0.44 7.84,-0.86 11.72,-1.24 l -16.81,-55.37"
         style="fill:#2555ad;fill-opacity:1;fill-rule:nonzero;stroke:none"
         id="path216" /><path
         d="m 1983.97,3363.72 c -3.65,0.8 -7.26,1.74 -10.82,2.58 l 0.01,0.03 c 3.57,-0.89 7.18,-1.76 10.81,-2.61"
         style="fill:#969898;fill-opacity:1;fill-rule:nonzero;stroke:none"
         id="path218" /><path
         d="m 1984.48,3363.61 v 0 c -0.17,0.03 -0.34,0.07 -0.51,0.11 -3.63,0.85 -7.24,1.72 -10.81,2.61 l 16.52,54.44 c 3.75,-0.9 7.53,-1.78 11.33,-2.63 l -16.53,-54.53"
         style="fill:#2555ad;fill-opacity:1;fill-rule:nonzero;stroke:none"
         id="path220" /><path
         d="m 2179,3343.85 v 0.01 c 4.05,0.17 8.07,0.38 12.02,0.63 -3.96,-0.35 -7.94,-0.47 -12.02,-0.64"
         style="fill:#969898;fill-opacity:1;fill-rule:nonzero;stroke:none"
         id="path222" /><path
         d="m 2179,3343.86 17.25,56.78 c 4.18,0.26 8.3,0.56 12.37,0.9 l -17.33,-57.02 v 0 c -0.09,-0.01 -0.18,-0.02 -0.27,-0.03 -3.95,-0.25 -7.97,-0.46 -12.02,-0.63"
         style="fill:#2555ad;fill-opacity:1;fill-rule:nonzero;stroke:none"
         id="path224" /><path
         d="m 2359.19,3476.55 c -11.71,-65.81 -156.78,-95.04 -324.01,-65.27 -167.24,29.76 -293.32,107.25 -281.6,173.06 11.71,65.82 156.78,95.04 324.01,65.27 167.24,-29.76 293.32,-107.25 281.6,-173.06"
         style="fill:#406fbf;fill-opacity:1;fill-rule:nonzero;stroke:none"
         id="path226" /><path
         d="m 2157.47,3434.91 c -33.52,0 -70.84,3.29 -109.76,10.21 -132.34,23.56 -232.92,80.35 -224.64,126.85 5.84,32.83 64.38,51.76 144.87,51.76 33.52,0 70.84,-3.28 109.75,-10.21 132.35,-23.56 232.93,-80.35 224.65,-126.85 -5.84,-32.83 -64.38,-51.76 -144.87,-51.76"
         style="fill:#5d87cd;fill-opacity:1;fill-rule:nonzero;stroke:none"
         id="path228" /><path
         d="m 3224.39,1739.32 -1029.08,-59.87 c -36.48,-2.12 -72.29,-10.86 -105.63,-25.78 L 971.871,1153.29 c -40.582,-18.17 -63.023,-61.7 -53.937,-104.62 L 1102.88,175.262 c 12.69,-59.93 79.49,-91.4807 135.03,-63.75 l 1103.3,550.777 1018.74,34.441 c 53.53,1.809 93.47,49.661 84.96,101.79 l -136.35,836.4 c -7.04,43.19 -39.81,105.71 -84.17,104.4"
         style="fill:#406fbf;fill-opacity:1;fill-rule:nonzero;stroke:none"
         id="path230" /><path
         d="m 1159.82,108.121 c -27.81,11.07 -50.14,35.027 -56.94,67.141 L 917.934,1048.67 c -1.348,6.37 -2,12.75 -2.004,19.07 -0.02,36.21 21.383,70.08 55.941,85.55 l 178.569,79.93 30.06,-32.61 -169.92,-76.72 c -39.986,-18.05 -62.006,-61.5 -52.935,-104.42 L 1142.34,146.012 c 3.05,-14.403 9.18,-27.18 17.48,-37.891 m 871.09,1476.419 -13.35,36.84 72.12,32.29 c 33.34,14.92 69.15,23.66 105.63,25.78 l 81.98,4.77 c 3.95,-1.58 8.01,-2.98 12.18,-4.18 l 85.18,-24.47 -158.54,-8.93 c -35.98,-2.04 -71.29,-10.68 -104.14,-25.5 l -81.06,-36.6 m 830.04,98.42 10.29,35.81 159.65,9.29 c -1.02,-11.84 -2.03,-23.75 -3.03,-35.7 l -166.91,-9.4"
         style="fill:#3b69bb;fill-opacity:1;fill-rule:nonzero;stroke:none"
         id="path232" /><path
         d="M 2127.82,1256.6 1587.75,758.789 618.66,1810.17 l 540.08,497.8 969.08,-1051.37"
         style="fill:#406fbf;fill-opacity:1;fill-rule:nonzero;stroke:none"
         id="path234" /><path
         d="m 1139.29,1245.34 h -0.01 l -520.589,564.79 520.599,-564.79"
         style="fill:#fdfdfd;fill-opacity:1;fill-rule:nonzero;stroke:none"
         id="path236" /><path
         d="m 1150.44,1233.22 -11.16,12.12 h 0.01 l 11.16,-12.11 -0.01,-0.01"
         style="fill:#f3f2f1;fill-opacity:1;fill-rule:nonzero;stroke:none"
         id="path238" /><path
         d="m 1180.5,1200.61 -30.06,32.61 0.01,0.01 30.06,-32.62 h -0.01"
         style="fill:#89ade0;fill-opacity:1;fill-rule:nonzero;stroke:none"
         id="path240" /><path
         d="m 1180.51,1200.61 -30.06,32.62 -11.16,12.11 -520.595,564.79 354.403,326.7 57.192,52.72 -57.192,-52.72 18.047,-44.06 -312.528,-288.07 540.673,-586.58 -38.78,-17.51 m 48.39,21.84 -536.15,581.68 302.441,278.77 334.009,-815.16 -100.3,-45.29"
         style="fill:#8cb3e3;fill-opacity:1;fill-rule:nonzero;stroke:none"
         id="path242" /><path
         d="m 2068.77,1260.21 -3.39,3.68 -472.9,-435.89 -899.73,976.13 469.22,432.5 903.13,-979.81 3.67,3.39 -3.39,3.68 3.39,-3.68 3.68,3.39 -909.91,987.16 -483.923,-446.06 913.293,-990.829 483.93,446.049 -3.39,3.68 -3.68,-3.39"
         style="fill:#406fbf;fill-opacity:1;fill-rule:nonzero;stroke:none"
         id="path244" /><path
         d="m 1468.98,1631.29 c 63.17,-68.52 70.08,-164.9 15.44,-215.27 -54.64,-50.36 -150.15,-35.64 -213.31,32.89 -63.17,68.53 -70.07,164.91 -15.44,215.27 54.65,50.37 150.15,35.65 213.31,-32.89"
         style="fill:#406fbf;fill-opacity:1;fill-rule:nonzero;stroke:none"
         id="path246" /><path
         d="m 1329.2,1267.74 -334.009,815.16 55.289,50.96 181.62,-500.95 c -26.75,-52.92 -12.77,-127.82 39.01,-184 12.27,-13.31 25.77,-24.6 39.94,-33.77 l 48.48,-133.71 -30.33,-13.69 m -338.055,825.03 -18.047,44.06 57.192,52.72 16.5,-45.49 -55.645,-51.29"
         style="fill:#7ca1db;fill-opacity:1;fill-rule:nonzero;stroke:none"
         id="path248" /><path
         d="m 995.191,2082.9 -4.046,9.87 55.645,51.29 3.69,-10.2 -55.289,-50.96"
         style="fill:#3b69bb;fill-opacity:1;fill-rule:nonzero;stroke:none"
         id="path250" /><path
         d="m 1311.05,1415.14 c -14.17,9.17 -27.67,20.46 -39.94,33.77 -51.78,56.18 -65.76,131.08 -39.01,184 l 78.95,-217.77"
         style="fill:#3b69bb;fill-opacity:1;fill-rule:nonzero;stroke:none"
         id="path252" /><path
         d="M 2106.65,1375.65 1416.13,1125.3 928.781,2469.55 1619.3,2719.89 2106.65,1375.65"
         style="fill:#406fbf;fill-opacity:1;fill-rule:nonzero;stroke:none"
         id="path254" /><path
         d="m 1359.53,1281.43 -309.05,852.43 -3.69,10.2 -118.009,325.49 690.519,250.34 411.61,-1135.35 -32.88,-14.84 -397.33,1095.95 -618.735,-224.31 414.475,-1143.25 -36.91,-16.66 m 46.05,20.79 -410.807,1133.12 599.927,217.5 394.19,-1087.27 -583.31,-263.35"
         style="fill:#8cb3e3;fill-opacity:1;fill-rule:nonzero;stroke:none"
         id="path256" /><path
         d="m 2053.58,1401.8 -1.7,4.7 -604.64,-219.21 -452.467,1248.05 599.927,217.5 454.18,-1252.74 4.7,1.7 -1.7,4.7 1.7,-4.7 4.7,1.71 -457.58,1262.14 -618.735,-224.31 459.285,-1266.86 618.74,224.33 -1.71,4.7 -4.7,-1.71"
         style="fill:#406fbf;fill-opacity:1;fill-rule:nonzero;stroke:none"
         id="path258" /><path
         d="m 1643.86,1975.89 c 31.77,-87.62 0.89,-179.18 -68.98,-204.51 -69.87,-25.33 -152.25,25.17 -184.02,112.79 -31.76,87.62 -0.87,179.18 68.99,204.51 69.86,25.32 152.24,-25.17 184.01,-112.79"
         style="fill:#406fbf;fill-opacity:1;fill-rule:nonzero;stroke:none"
         id="path260" /><path
         d="m 3231.11,1703.81 -1015,-57.17 c -35.98,-2.04 -71.29,-10.68 -104.14,-25.5 L 1010.58,1123.89 c -39.986,-18.05 -62.006,-61.5 -52.935,-104.42 L 1142.34,146.012 c 12.68,-59.93 78.67,-91.6331 133.37,-64.0628 L 2362.67,629.59 3367.53,661.379 c 52.79,1.672 92.07,49.402 83.55,101.519 L 3314.4,1599.24 c -7.05,43.2 -39.54,105.76 -83.29,104.57"
         style="fill:#406fbf;fill-opacity:1;fill-rule:nonzero;stroke:none"
         id="path262" /><path
         d="m 2257.4,1483.58 c -5.24,0 -9.65,4.08 -9.97,9.38 -0.34,5.52 3.85,10.26 9.36,10.6 l 760.24,46.85 c -0.46,-6.74 -0.91,-13.44 -1.34,-20.13 l -757.67,-46.68 c -0.21,-0.02 -0.42,-0.02 -0.62,-0.02"
         style="fill:#3563b7;fill-opacity:1;fill-rule:nonzero;stroke:none"
         id="path264" /><path
         d="m 2312.2,730.27 c -4.6,0 -8.74,3.191 -9.76,7.871 L 2143.3,1468.94 c -1.17,5.4 2.25,10.73 7.64,11.9 0.72,0.16 1.44,0.23 2.14,0.23 4.6,0 8.74,-3.19 9.76,-7.87 l 159.14,-730.802 c 1.18,-5.398 -2.24,-10.726 -7.64,-11.898 -0.72,-0.16 -1.43,-0.23 -2.14,-0.23"
         style="fill:#3563b7;fill-opacity:1;fill-rule:nonzero;stroke:none"
         id="path266" /><path
         d="M 1204.49,249.148 1092.31,811.309 C 1290.5,472.219 1204.49,249.148 1204.49,249.148"
         style="fill:#5c85cc;fill-opacity:1;fill-rule:nonzero;stroke:none"
         id="path268" /><path
         d="m 1570.52,684.789 c -232.81,0 -453.68,114.75 -463.18,119.742 0.06,-0.011 0.14,-0.011 0.23,-0.011 26.67,0 995.99,416.15 995.99,416.15 0,0 25.12,-306.389 -273.62,-473.959 -80.9,-45.371 -171.03,-61.922 -259.42,-61.922 m -463.18,119.742 c -0.18,0.028 -0.29,0.078 -0.32,0.168 0,0 0.1,-0.051 0.32,-0.168"
         style="fill:#5c85cc;fill-opacity:1;fill-rule:nonzero;stroke:none"
         id="path270" /><path
         d="m 1809.41,831.141 c 0,-23.75 -19.24,-43.012 -42.99,-43.012 -23.75,0 -43,19.262 -43,43.012 0,23.738 19.25,43 43,43 23.75,0 42.99,-19.262 42.99,-43"
         style="fill:#406fbf;fill-opacity:1;fill-rule:nonzero;stroke:none"
         id="path272" /><path
         d="m 2197.42,719.781 -93.34,500.889 c 0,0 123.12,-185.23 93.34,-500.889"
         style="fill:#3563b7;fill-opacity:1;fill-rule:nonzero;stroke:none"
         id="path274" /><path
         d="m 1044.81,1027.1 c -1.92,0 -3.75,1.11 -4.58,2.98 -1.11,2.53 0.03,5.48 2.55,6.6 l 22.87,10.1 c 0.66,0.29 1.34,0.43 2.02,0.43 1.92,0 3.75,-1.11 4.57,-2.98 1.12,-2.52 -0.02,-5.48 -2.55,-6.59 l -22.86,-10.11 c -0.66,-0.29 -1.35,-0.43 -2.02,-0.43"
         style="fill:#5c85cc;fill-opacity:1;fill-rule:nonzero;stroke:none"
         id="path276" /><path
         d="m 1115.21,1058.22 c -1.92,0 -3.75,1.11 -4.57,2.98 -1.12,2.52 0.02,5.47 2.55,6.59 l 47.54,21.01 c 0.65,0.29 1.34,0.43 2.02,0.43 1.91,0 3.75,-1.11 4.57,-2.98 1.12,-2.52 -0.02,-5.48 -2.55,-6.59 l -47.54,-21.02 c -0.66,-0.29 -1.34,-0.42 -2.02,-0.42 m 95.08,42.02 c -1.92,0 -3.75,1.11 -4.58,2.98 -1.11,2.53 0.03,5.48 2.55,6.6 l 47.54,21.01 c 0.66,0.29 1.35,0.43 2.02,0.43 1.92,0 3.75,-1.12 4.58,-2.98 1.11,-2.53 -0.03,-5.48 -2.55,-6.6 l -47.54,-21.01 c -0.66,-0.29 -1.35,-0.43 -2.02,-0.43 m 95.08,42.03 c -1.92,0 -3.75,1.11 -4.58,2.98 -1.12,2.52 0.03,5.48 2.55,6.59 l 47.54,21.01 c 0.66,0.29 1.34,0.43 2.02,0.43 1.92,0 3.75,-1.11 4.57,-2.98 1.12,-2.52 -0.02,-5.48 -2.55,-6.59 l -47.54,-21.02 c -0.65,-0.29 -1.34,-0.42 -2.01,-0.42 m 95.07,42.02 c -1.92,0 -3.75,1.11 -4.57,2.98 -1.12,2.53 0.02,5.48 2.55,6.6 l 47.54,21.01 c 0.65,0.29 1.34,0.43 2.02,0.43 1.92,0 3.75,-1.12 4.57,-2.98 1.12,-2.53 -0.02,-5.48 -2.55,-6.6 l -47.54,-21.01 c -0.66,-0.29 -1.34,-0.43 -2.02,-0.43 m 95.08,42.03 c -1.92,0 -3.75,1.11 -4.58,2.98 -1.11,2.52 0.03,5.48 2.56,6.59 l 47.54,21.01 c 0.65,0.29 1.34,0.43 2.01,0.43 1.92,0 3.75,-1.11 4.58,-2.98 1.12,-2.52 -0.03,-5.48 -2.55,-6.59 l -47.54,-21.02 c -0.66,-0.29 -1.34,-0.42 -2.02,-0.42 m 95.08,42.02 c -1.92,0 -3.75,1.11 -4.58,2.98 -1.12,2.53 0.03,5.48 2.55,6.6 l 47.54,21.01 c 0.66,0.29 1.34,0.43 2.02,0.43 1.92,0 3.75,-1.11 4.58,-2.98 1.11,-2.53 -0.03,-5.48 -2.56,-6.6 l -47.53,-21.01 c -0.66,-0.29 -1.35,-0.43 -2.02,-0.43 m 95.07,42.03 c -1.92,0 -3.75,1.11 -4.57,2.98 -1.12,2.52 0.02,5.48 2.55,6.59 l 47.54,21.01 c 0.66,0.29 1.34,0.43 2.02,0.43 1.92,0 3.75,-1.11 4.57,-2.98 1.12,-2.52 -0.02,-5.48 -2.55,-6.59 l -47.54,-21.02 c -0.65,-0.29 -1.34,-0.42 -2.02,-0.42 m 95.08,42.02 c -1.92,0 -3.75,1.11 -4.57,2.98 -1.12,2.53 0.02,5.48 2.55,6.6 l 47.53,21.01 c 0.66,0.29 1.35,0.43 2.02,0.43 1.92,0 3.75,-1.11 4.58,-2.98 1.12,-2.53 -0.03,-5.48 -2.55,-6.6 l -47.54,-21.01 c -0.66,-0.29 -1.34,-0.43 -2.02,-0.43 m 95.08,42.03 c -1.92,0 -3.75,1.11 -4.58,2.98 -1.11,2.52 0.03,5.48 2.55,6.59 l 47.54,21.01 c 0.66,0.3 1.35,0.43 2.02,0.43 1.92,0 3.75,-1.11 4.58,-2.98 1.11,-2.52 -0.03,-5.48 -2.55,-6.59 l -47.54,-21.02 c -0.66,-0.29 -1.35,-0.42 -2.02,-0.42 m 95.07,42.02 c -1.92,0 -3.75,1.11 -4.57,2.98 -1.12,2.53 0.02,5.48 2.55,6.6 l 47.54,21.01 c 0.66,0.29 1.34,0.43 2.02,0.43 1.92,0 3.75,-1.11 4.57,-2.98 1.12,-2.53 -0.02,-5.48 -2.55,-6.6 l -47.54,-21.01 c -0.65,-0.29 -1.34,-0.43 -2.02,-0.43"
         style="fill:#5c85cc;fill-opacity:1;fill-rule:nonzero;stroke:none"
         id="path278" /><path
         d="m 2065.98,1478.47 c -1.92,0 -3.75,1.11 -4.58,2.98 -1.11,2.53 0.03,5.48 2.56,6.59 l 22.86,10.11 c 0.66,0.29 1.34,0.43 2.02,0.43 1.92,0 3.75,-1.11 4.58,-2.98 1.11,-2.53 -0.03,-5.48 -2.56,-6.59 L 2068,1478.9 c -0.66,-0.29 -1.35,-0.43 -2.02,-0.43"
         style="fill:#5c85cc;fill-opacity:1;fill-rule:nonzero;stroke:none"
         id="path280" /><path
         d="m 2286.6,1319.31 c -5.24,0 -9.65,4.08 -9.97,9.39 -0.34,5.51 3.85,10.25 9.36,10.59 l 721.91,44.49 c -0.25,-6.78 -0.49,-13.48 -0.7,-20.08 l -719.98,-44.37 c -0.21,-0.01 -0.42,-0.02 -0.62,-0.02"
         style="fill:#3563b7;fill-opacity:1;fill-rule:nonzero;stroke:none"
         id="path282" /><path
         d="m 2325.79,1114.44 c -5.24,0 -9.64,4.08 -9.97,9.38 -0.34,5.52 3.85,10.26 9.37,10.6 l 684.12,42.15 c 0.38,-6.55 0.78,-13.21 1.21,-19.96 l -684.1,-42.15 c -0.21,-0.02 -0.42,-0.02 -0.63,-0.02"
         style="fill:#3563b7;fill-opacity:1;fill-rule:nonzero;stroke:none"
         id="path284" /><path
         d="m 3005.83,2580.03 c 0,0 -21.93,-233.34 -108.6,-253.44 -86.66,-20.09 -159.93,15.97 -159.93,15.97 l -70.46,54.22 -34.41,-119.87 c 0,0 37.61,-51.12 116.07,-15.68 0,0 139.91,-61.67 217.37,0 77.46,61.66 102.23,230.56 102.23,230.56 l -62.27,88.24"
         style="fill:#c8685a;fill-opacity:1;fill-rule:nonzero;stroke:none"
         id="path286" /><path
         d="m 3075.52,2693.04 c 0,0 -60.48,103.09 -32.99,290.03 27.49,186.93 184.19,210.3 244.67,196.56 60.48,-13.75 109.96,-71.67 151.2,-182.22 41.23,-110.56 56.36,-139.43 125.08,-120.18 68.73,19.24 251.54,79.72 302.4,26.11 50.85,-53.61 34.35,-114.08 34.35,-114.08 0,0 254.3,61.85 232.3,-164.94 -21.99,-226.8 -388.99,-438.48 -738.12,-214.43 -349.13,224.04 -318.89,283.15 -318.89,283.15"
         style="fill:#17282f;fill-opacity:1;fill-rule:nonzero;stroke:none"
         id="path288" /><path
         d="m 3072.68,2144.13 c 0,0 -69.11,-594.33 -66.8,-873.07 2.3,-278.74 101.36,-935.271 101.36,-935.271 h 122.1 c 0,0 -16.14,525.223 -13.83,704.911 2.3,179.68 34.56,476.84 34.56,476.84 0,0 39.16,-267.21 85.23,-361.67 46.07,-94.44 301.77,-428.46 479.15,-532.132 l 82.93,76.024 c 0,0 -184.28,228.058 -253.4,340.938 -69.11,112.87 -131.3,145.12 -156.65,354.75 -25.33,209.63 18.43,545.96 -55.28,748.68 h -359.37"
         style="fill:#17282f;fill-opacity:1;fill-rule:nonzero;stroke:none"
         id="path290" /><path
         d="m 3237.66,1391.58 c 6.75,73.81 12.41,125.96 12.41,125.96 v 0 l -12.41,-125.96"
         style="fill:#3563b7;fill-opacity:1;fill-rule:nonzero;stroke:none"
         id="path292" /><path
         d="m 3237.63,1391.25 c -82.55,276.5 -40.67,502.99 -40.67,502.99 l 53.11,-376.7 c 0,0 -5.66,-52.15 -12.41,-125.96 l -0.03,-0.33"
         style="fill:#111d23;fill-opacity:1;fill-rule:nonzero;stroke:none"
         id="path294" /><path
         d="m 3132.28,302.301 4.1,-116.711 81.89,-6.828 4.1,10.918 v 120.812 l -90.09,-8.191"
         style="fill:#c8685a;fill-opacity:1;fill-rule:nonzero;stroke:none"
         id="path296" /><path
         d="m 3093.38,346.66 7.51,-43.68 140.58,-3.421 8.88,52.562 -156.97,-5.461"
         style="fill:#406fbf;fill-opacity:1;fill-rule:nonzero;stroke:none"
         id="path298" /><path
         d="m 3775.88,615.559 130.35,121.492 28.67,-45.731 -111.93,-102.371 -47.09,26.61"
         style="fill:#406fbf;fill-opacity:1;fill-rule:nonzero;stroke:none"
         id="path300" /><path
         d="m 3838.66,615.559 86,-72.34 55.28,64.84 -70.63,73.031 -70.65,-65.531"
         style="fill:#c8685a;fill-opacity:1;fill-rule:nonzero;stroke:none"
         id="path302" /><path
         d="m 3996.61,613.121 52.01,-32.031 c 10.11,-6.231 12.17,-20.051 4.29,-28.942 -37.74,-42.546 -134.02,-150.726 -143.6,-158.398 -11.95,-9.559 -26.28,6.832 -29.69,21.84 0,0 27.29,36.172 29.69,59.379 1.75,17.082 0.92,41.902 0.37,53.832 -0.22,4.508 1.31,8.879 4.24,12.32 l 58.13,68.129 c 6.11,7.172 16.54,8.809 24.56,3.871"
         style="fill:#17282f;fill-opacity:1;fill-rule:nonzero;stroke:none"
         id="path304" /><path
         d="m 3238.27,175.77 10.82,-60.122 c 2.1,-11.687 -6.81,-22.4488 -18.7,-22.4996 -56.87,-0.25 -201.7,-0.6796 -213.8,1.3633 -15.09,2.5274 -12.44,24.1293 -3.52,36.6873 0,0 45.15,3.77 64.04,17.481 13.89,10.07 31.84,27.242 40.35,35.621 3.22,3.168 7.49,4.949 12,5.058 l 89.54,2.129 c 9.43,0.223 17.6,-6.457 19.27,-15.718"
         style="fill:#17282f;fill-opacity:1;fill-rule:nonzero;stroke:none"
         id="path306" /><path
         d="m 3445.15,2473.68 124.8,87.62 c 0,0 -33.19,132.77 -82.31,139.41 -49.12,6.64 -293.41,53.1 -448.75,0 0,0 -55.77,-15.94 -73.02,-172.6 l 66.38,-21.24 c 0,0 23.9,-293.41 38.5,-338.55 h 354.48 c 0,0 3.99,252.25 19.92,305.36"
         style="fill:#406fbf;fill-opacity:1;fill-rule:nonzero;stroke:none"
         id="path308" /><path
         d="m 3472.11,2492.61 c 0,0 47.25,-135.02 55.7,-207.57 0,0 -112.44,44.73 -141.46,65.29 l -21.92,79 -74.81,35.86 -21.71,-59.24 61.61,-77.38 c 0,0 169.24,-158.39 255.11,-122.12 85.86,36.27 -33.97,341.31 -33.97,341.31 l -78.55,-55.15"
         style="fill:#c8685a;fill-opacity:1;fill-rule:nonzero;stroke:none"
         id="path310" /><path
         d="m 3154.56,3083.74 c 0,0 -43.22,-86.45 -39.62,-156.69 3.6,-70.25 38.72,-99.06 106.26,-108.97 0,0 28.82,-90.05 -46.82,-99.06 -5.76,-0.68 -7.83,-23.63 -7.34,-27.3 1.96,-14.64 16.45,-22.59 29.53,-26.01 14.03,-3.66 28.95,-4.31 43.36,-4.78 32.38,-1.06 59.05,12.02 80.65,35.89 1.66,1.83 16.8,21.3 16.79,21.3 -0.01,0 -36.04,17.88 -23.41,135.08 0,0 24.31,13.51 37.82,46.83 0,0 23.42,11.71 28.82,35.12 5.4,23.42 -15.32,55.83 -53.14,23.42 0,0 -71.14,36.02 -98.15,162.09 0,0 -27.92,-31.52 -74.75,-36.92"
         style="fill:#c8685a;fill-opacity:1;fill-rule:nonzero;stroke:none"
         id="path312" /><path
         d="m 3174.87,2946.18 6.17,46.23 -32.75,-36.22 c 0,0 10.41,-11.94 26.58,-10.01"
         style="fill:#b5413c;fill-opacity:1;fill-rule:nonzero;stroke:none"
         id="path314" /><path
         d="m 3193.34,2908.64 c 0.14,-0.01 3.91,-0.59 9.59,-0.59 5.96,0.01 14.03,0.63 22.25,3.27 8.2,2.64 16.63,7.38 22.81,15.66 1.24,1.66 0.9,4 -0.75,5.25 -1.66,1.24 -4.01,0.9 -5.25,-0.76 -5.03,-6.72 -11.94,-10.69 -19.12,-13.01 -7.16,-2.32 -14.51,-2.91 -19.94,-2.91 -2.59,0 -4.74,0.13 -6.22,0.26 l -1.7,0.18 -0.54,0.07 c -2.04,0.32 -3.96,-1.09 -4.27,-3.14 -0.31,-2.05 1.09,-3.96 3.14,-4.28"
         style="fill:#171717;fill-opacity:1;fill-rule:nonzero;stroke:none"
         id="path316" /><path
         d="m 3230.23,3052.46 -0.6,1.55 0.57,-1.56 0.03,0.01 -0.6,1.55 0.57,-1.56 c 0.13,0.05 3.96,1.43 9.81,1.43 7.53,-0.04 18.28,-2.13 29.76,-12.42 2.06,-1.84 5.22,-1.67 7.06,0.38 1.85,2.06 1.68,5.22 -0.37,7.06 -13.35,12.04 -26.98,15.01 -36.45,14.98 -7.89,-0.01 -12.98,-1.93 -13.38,-2.09 -2.58,-0.99 -3.86,-3.89 -2.87,-6.46 1,-2.58 3.89,-3.86 6.47,-2.87"
         style="fill:#171717;fill-opacity:1;fill-rule:nonzero;stroke:none"
         id="path318" /><path
         d="m 3169.49,3072.09 c -0.19,0.02 -2.87,0.44 -6.8,0.45 -3.6,-0.01 -8.26,-0.35 -13.08,-1.79 -4.79,-1.43 -9.86,-4.04 -13.67,-8.73 -1.74,-2.14 -1.41,-5.29 0.73,-7.03 2.15,-1.74 5.3,-1.41 7.04,0.73 2.16,2.68 5.26,4.4 8.77,5.46 3.49,1.05 7.27,1.36 10.21,1.36 1.61,0 2.97,-0.09 3.9,-0.18 l 1.05,-0.11 0.29,-0.04 c 2.73,-0.43 5.29,1.43 5.72,4.16 0.43,2.73 -1.43,5.29 -4.16,5.72"
         style="fill:#171717;fill-opacity:1;fill-rule:nonzero;stroke:none"
         id="path320" /><path
         d="m 3242.31,2996.31 c -0.9,-6.96 -5.39,-12.11 -10.02,-11.52 -4.64,0.61 -7.66,6.75 -6.76,13.71 0.91,6.96 5.4,12.12 10.04,11.52 4.63,-0.61 7.65,-6.74 6.74,-13.71"
         style="fill:#171717;fill-opacity:1;fill-rule:nonzero;stroke:none"
         id="path322" /><path
         d="m 3162.66,3011.61 c -0.9,-6.96 -5.39,-12.12 -10.03,-11.52 -4.64,0.61 -7.66,6.74 -6.76,13.7 0.91,6.97 5.4,12.13 10.04,11.52 4.63,-0.6 7.65,-6.73 6.75,-13.7"
         style="fill:#171717;fill-opacity:1;fill-rule:nonzero;stroke:none"
         id="path324" /><path
         d="m 3235.57,3010.02 -15.78,6.87 c 0,0 3.24,-14.23 15.78,-6.87"
         style="fill:#171717;fill-opacity:1;fill-rule:nonzero;stroke:none"
         id="path326" /><path
         d="m 3157.22,3024.81 -15.77,6.88 c 0,0 3.24,-14.24 15.77,-6.88"
         style="fill:#171717;fill-opacity:1;fill-rule:nonzero;stroke:none"
         id="path328" /><path
         d="m 3058.43,2183.92 v -41.69 l 383.92,-3.26 -10.23,49.67 -373.69,-4.72"
         style="fill:#406fbf;fill-opacity:1;fill-rule:nonzero;stroke:none"
         id="path330" /><path
         d="m 3442.35,2138.97 -8.49,0.08 -361.41,3.06 -14.02,0.12 v 41.69 l 373.69,4.72 10.23,-49.67"
         style="fill:#7da6dd;fill-opacity:1;fill-rule:nonzero;stroke:none"
         id="path332" /><path
         d="m 3063.09,2386.33 -211.14,-734.68 c -14.91,-51.93 -59.75,-87.08 -110.22,-92.12 -15.71,-1.53 -31.99,-0.23 -48.2,4.4 l -404.06,116.11 c -67.93,19.59 -107.21,90.51 -87.72,158.42 l 211.2,734.79 c 11.36,39.3 39.82,69.05 75.13,83.29 25.54,10.37 54.67,12.57 83.31,4.34 l 404.04,-116.02 c 67.94,-19.58 107.22,-90.5 87.66,-158.53"
         style="fill:#406fbf;fill-opacity:1;fill-rule:nonzero;stroke:none"
         id="path334" /><path
         d="m 2741.73,1559.53 c 35.2,14.22 63.76,43.99 75.09,83.38 l 211.13,734.68 c 3.4,11.83 5.02,23.74 5.02,35.46 0.02,55.68 -36.55,106.89 -92.67,123.07 l -404.04,116.02 c -11.92,3.41 -23.9,5.01 -35.65,5.01 -4.21,0 -8.39,-0.2 -12.53,-0.61 -35.31,-14.24 -63.77,-43.99 -75.13,-83.29 l -211.2,-734.79 c -3.39,-11.81 -5,-23.7 -5,-35.4 v 0 c 0,11.7 1.61,23.59 5,35.4 l 211.2,734.79 c 11.36,39.3 39.82,69.05 75.13,83.29 14.99,6.09 31.22,9.36 47.85,9.36 11.71,0 23.63,-1.62 35.46,-5.02 l 404.04,-116.02 c 56.13,-16.18 92.7,-67.4 92.68,-123.08 0,-11.71 -1.62,-23.63 -5.02,-35.45 l -15.02,-52.24 -196.12,-682.44 c -14.91,-51.93 -59.75,-87.08 -110.22,-92.12"
         style="fill:#3563b7;fill-opacity:1;fill-rule:nonzero;stroke:none"
         id="path336" /><path
         d="m 3027.95,2377.59 -211.13,-734.68 c -11.33,-39.39 -39.89,-69.16 -75.09,-83.38 -15.71,-1.53 -31.99,-0.23 -48.2,4.4 l -404.06,116.11 c -67.93,19.59 -107.21,90.51 -87.72,158.42 l 211.2,734.79 c 11.36,39.3 39.82,69.05 75.13,83.29 15.68,1.54 31.99,0.23 48.18,-4.4 l 404.04,-116.02 c 67.93,-19.58 107.21,-90.5 87.65,-158.53"
         style="fill:#406fbf;fill-opacity:1;fill-rule:nonzero;stroke:none"
         id="path338" /><path
         d="m 2729.2,1558.92 c -11.76,0 -23.74,1.6 -35.67,5.01 l -404.06,116.11 c -56.12,16.19 -92.69,67.4 -92.72,123.02 0,11.7 1.61,23.59 5,35.4 l 211.2,734.79 c 11.36,39.3 39.82,69.05 75.13,83.29 4.14,0.41 8.32,0.61 12.53,0.61 11.75,0 23.73,-1.6 35.65,-5.01 l 404.04,-116.02 c 56.12,-16.18 92.69,-67.39 92.67,-123.07 0,-11.72 -1.62,-23.63 -5.02,-35.46 l -211.13,-734.68 c -11.33,-39.39 -39.89,-69.16 -75.09,-83.38 -4.14,-0.41 -8.32,-0.61 -12.53,-0.61 m 64.24,660.39 -155.5,-551.88 43.24,-12.18 155.5,551.87 -43.24,12.19"
         style="fill:#8cb3e3;fill-opacity:1;fill-rule:nonzero;stroke:none"
         id="path340" /><path
         d="m 2304.79,1763.37 -43.25,12.19 155.5,551.87 43.24,-12.18 -155.49,-551.88"
         style="fill:#fafaf9;fill-opacity:1;fill-rule:nonzero;stroke:none"
         id="path342" /><path
         d="m 2366.67,1745.75 -43.18,12.41 155.46,551.75 43.18,-12.41 -155.46,-551.75"
         style="fill:#fafaf9;fill-opacity:1;fill-rule:nonzero;stroke:none"
         id="path344" /><path
         d="m 2429.5,1727.69 -43.18,12.41 155.46,551.75 43.18,-12.41 -155.46,-551.75"
         style="fill:#fafaf9;fill-opacity:1;fill-rule:nonzero;stroke:none"
         id="path346" /><path
         d="m 2681.18,1655.25 -43.24,12.18 155.5,551.88 43.24,-12.19 -155.5,-551.87"
         style="fill:#415981;fill-opacity:1;fill-rule:nonzero;stroke:none"
         id="path348" /><path
         d="m 2831,2363.1 -21.5,-74.9 -25.6,7.2 c -25.8,7.3 -40.8,34.1 -33.6,59.9 l 14,49.7 51.7,-14.8 c 11.6,-3.4 18.3,-15.5 15,-27.1"
         style="fill:#fafaf9;fill-opacity:1;fill-rule:nonzero;stroke:none"
         id="path350" /><path
         d="m 2818.7,2399.8 -51.7,14.8 15.5,54.8 c 7.2,25.8 34.1,40.8 59.9,33.6 l 26.6,-7.5 -23.2,-80.7 c -3.3,-11.7 -15.4,-18.4 -27.1,-15"
         style="fill:#fafaf9;fill-opacity:1;fill-rule:nonzero;stroke:none"
         id="path352" /><path
         d="m 2867.7,2375.3 52,-14.9 -13.8,-48.9 c -7.2,-25.8 -34,-40.9 -59.8,-33.6 l -27,7.6 21.5,74.8 c 3.3,11.6 15.4,18.3 27.1,15"
         style="fill:#fafaf9;fill-opacity:1;fill-rule:nonzero;stroke:none"
         id="path354" /><path
         d="m 2938.1,2425.6 -15.7,-55.6 -52,14.9 c -11.6,3.4 -18.3,15.5 -15,27.1 l 23.2,80.7 25.9,-7.3 c 25.8,-7.2 40.8,-34 33.6,-59.8"
         style="fill:#fafaf9;fill-opacity:1;fill-rule:nonzero;stroke:none"
         id="path356" /></g></g></svg>
