<?xml version="1.0" encoding="UTF-8" standalone="no"?>
<!-- Created with Inkscape (http://www.inkscape.org/) -->

<svg
   version="1.1"
   id="svg2"
   xml:space="preserve"
   width="666.66669"
   height="496.81332"
   viewBox="0 0 666.66669 496.81332"
   sodipodi:docname="8690532_3959414.eps"
   xmlns:inkscape="http://www.inkscape.org/namespaces/inkscape"
   xmlns:sodipodi="http://sodipodi.sourceforge.net/DTD/sodipodi-0.dtd"
   xmlns="http://www.w3.org/2000/svg"
   xmlns:svg="http://www.w3.org/2000/svg"><defs
     id="defs6" /><sodipodi:namedview
     id="namedview4"
     pagecolor="#ffffff"
     bordercolor="#666666"
     borderopacity="1.0"
     inkscape:pageshadow="2"
     inkscape:pageopacity="0.0"
     inkscape:pagecheckerboard="0" /><g
     id="g8"
     inkscape:groupmode="layer"
     inkscape:label="ink_ext_XXXXXX"
     transform="matrix(1.3333333,0,0,-1.3333333,0,496.81333)"><g
       id="g10"
       transform="scale(0.1)"><path
         d="m 0,449.129 h 5000 v 2.5 H 0 Z"
         style="fill:#e7e8e5;fill-opacity:1;fill-rule:nonzero;stroke:none"
         id="path12" /><path
         d="m 4167.79,290.672 h 331.22 v -2.5 h -331.22 v 2.5"
         style="fill:#e7e8e5;fill-opacity:1;fill-rule:nonzero;stroke:none"
         id="path14" /><path
         d="m 3225.27,263.539 h 86.93 v -2.5 h -86.93 v 2.5"
         style="fill:#e7e8e5;fill-opacity:1;fill-rule:nonzero;stroke:none"
         id="path16" /><path
         d="m 3965.86,381.039 h 191.922 v 2.5 H 3965.86 Z"
         style="fill:#e7e8e5;fill-opacity:1;fill-rule:nonzero;stroke:none"
         id="path18" /><path
         d="m 524.59,366.73 h 431.933 v -2.5 H 524.59 v 2.5"
         style="fill:#e7e8e5;fill-opacity:1;fill-rule:nonzero;stroke:none"
         id="path20" /><path
         d="m 1045.56,366.73 h 63.33 v -2.5 h -63.33 v 2.5"
         style="fill:#e7e8e5;fill-opacity:1;fill-rule:nonzero;stroke:none"
         id="path22" /><path
         d="m 1314.71,324.512 h 936.76 v -2.5 h -936.76 v 2.5"
         style="fill:#e7e8e5;fill-opacity:1;fill-rule:nonzero;stroke:none"
         id="path24" /><path
         d="m 439.152,3723.59 c -30.101,0 -54.582,-24.48 -54.582,-54.57 V 954.699 c 0,-30.097 24.481,-54.578 54.582,-54.578 H 2370.14 c 30.08,0 54.57,24.481 54.57,54.578 V 3669.02 c 0,30.09 -24.49,54.57 -54.57,54.57 H 439.152 M 2370.14,897.621 H 439.152 c -31.476,0 -57.082,25.598 -57.082,57.078 V 3669.02 c 0,31.46 25.606,57.07 57.082,57.07 H 2370.14 c 31.46,0 57.07,-25.61 57.07,-57.07 V 954.699 c 0,-31.48 -25.61,-57.078 -57.07,-57.078"
         style="fill:#e7e8e5;fill-opacity:1;fill-rule:nonzero;stroke:none"
         id="path26" /><path
         d="m 2602.12,3723.59 c -30.09,0 -54.57,-24.48 -54.57,-54.57 V 954.699 c 0,-30.097 24.48,-54.578 54.57,-54.578 h 1930.99 c 30.09,0 54.58,24.481 54.58,54.578 V 3669.02 c 0,30.09 -24.49,54.57 -54.58,54.57 H 2602.12 M 4533.11,897.621 H 2602.12 c -31.47,0 -57.07,25.598 -57.07,57.078 V 3669.02 c 0,31.46 25.6,57.07 57.07,57.07 h 1930.99 c 31.47,0 57.08,-25.61 57.08,-57.07 V 954.699 c 0,-31.48 -25.61,-57.078 -57.08,-57.078"
         style="fill:#e7e8e5;fill-opacity:1;fill-rule:nonzero;stroke:none"
         id="path28" /><path
         d="m 1464.08,3119.12 c 0,62.59 -50.75,113.33 -113.34,113.33 -11.32,0 -22.22,-1.71 -32.54,-4.8 1.65,11.37 2.54,22.98 2.54,34.8 0,132.55 -107.45,240 -240,240 -15.11,0 -29.87,-1.46 -44.21,-4.13 -36.882,60.36 -103.194,100.8 -179.12,100.8 -114.914,0 -208.133,-92.34 -209.836,-206.85 -1.179,0.02 -2.32,0.18 -3.496,0.18 -106.777,0 -193.336,-86.56 -193.336,-193.33 0,-106.78 86.559,-193.34 193.336,-193.34 h 710.002 l -0.15,0.16 c 61.1,1.71 110.15,51.66 110.15,113.18"
         style="fill:#ededeb;fill-opacity:1;fill-rule:nonzero;stroke:none"
         id="path30" /><path
         d="m 1047.52,2949.51 v 220.94 H 867.301 V 2949.51 H 720.563 l 236.847,-200.14 236.85,200.14 h -146.74"
         style="fill:#dadbd8;fill-opacity:1;fill-rule:nonzero;stroke:none"
         id="path32" /><path
         d="m 4182.85,3178.84 c 0,32.4 -26.27,58.67 -58.67,58.67 -5.85,0 -11.5,-0.89 -16.84,-2.49 0.85,5.88 1.31,11.89 1.31,18.02 0,68.61 -55.62,124.23 -124.23,124.23 -7.82,0 -15.46,-0.75 -22.89,-2.14 -19.09,31.25 -53.42,52.18 -92.72,52.18 -59.49,0 -107.74,-47.79 -108.62,-107.07 l -1.82,0.09 c -55.27,0 -100.07,-44.81 -100.07,-100.08 0,-55.27 44.8,-100.08 100.07,-100.08 h 367.54 l -0.08,0.08 c 31.64,0.88 57.02,26.74 57.02,58.59"
         style="fill:#ededeb;fill-opacity:1;fill-rule:nonzero;stroke:none"
         id="path34" /><path
         d="m 3873.93,3174.29 v -114.38 h 93.29 v 114.38 h 75.96 l -122.61,103.59 -122.6,-103.59 h 75.96"
         style="fill:#dadbd8;fill-opacity:1;fill-rule:nonzero;stroke:none"
         id="path36" /><path
         d="m 1463.55,1852.14 -870.077,-192.29 -143.977,651.42 870.074,192.3 143.98,-651.43"
         style="fill:#fafaf9;fill-opacity:1;fill-rule:nonzero;stroke:none"
         id="path38" /><path
         d="M 1286.75,2452.11 1411.6,1887.25 628.07,1714.08 503.227,2278.95 1286.75,2452.11"
         style="fill:#dadbd8;fill-opacity:1;fill-rule:nonzero;stroke:none"
         id="path40" /><path
         d="m 1394.61,1964.09 16.99,-76.84 -783.53,-173.17 -60.687,274.59 130.371,177.23 291.754,-181.05 106.502,120.71 298.6,-141.47"
         style="fill:#e7e8e5;fill-opacity:1;fill-rule:nonzero;stroke:none"
         id="path42" /><path
         d="m 1189.18,2274.58 c 7.69,-34.84 -14.3,-69.33 -49.15,-77.02 -34.83,-7.7 -69.32,14.3 -77.02,49.14 -7.7,34.84 14.3,69.33 49.14,77.03 34.84,7.69 69.32,-14.31 77.03,-49.15"
         style="fill:#e7e8e5;fill-opacity:1;fill-rule:nonzero;stroke:none"
         id="path44" /><path
         d="m 1109.57,2198.17 c -22.61,6 -41.16,24.11 -46.56,48.53 -1.04,4.7 -1.53,9.38 -1.53,14 -0.01,29.65 20.53,56.36 50.67,63.03 2.13,0.47 4.26,0.83 6.38,1.08 -5.82,-34.19 -9.1,-73.08 -9.1,-112.2 -0.01,-4.81 0.04,-9.62 0.14,-14.44"
         style="fill:#e7e8e5;fill-opacity:1;fill-rule:nonzero;stroke:none"
         id="path46" /><path
         d="M 1348.92,440.832 814.844,590.398 1010.17,1287.84 1544.24,1138.27 1348.92,440.832"
         style="fill:#e7e8e5;fill-opacity:1;fill-rule:nonzero;stroke:none"
         id="path48" /><path
         d="m 1426.25,1023.94 -374.63,104.92 10.55,37.69 374.64,-104.91 -10.56,-37.7"
         style="fill:#dadbd8;fill-opacity:1;fill-rule:nonzero;stroke:none"
         id="path50" /><path
         d="m 1407.77,957.961 -374.64,104.919 10.57,37.71 374.63,-104.93 -10.56,-37.699"
         style="fill:#dadbd8;fill-opacity:1;fill-rule:nonzero;stroke:none"
         id="path52" /><path
         d="m 1389.3,891.988 -374.64,104.922 10.56,37.7 374.64,-104.919 -10.56,-37.703"
         style="fill:#dadbd8;fill-opacity:1;fill-rule:nonzero;stroke:none"
         id="path54" /><path
         d="m 1370.82,826.02 -374.632,104.921 10.552,37.688 374.64,-104.918 -10.56,-37.691"
         style="fill:#dadbd8;fill-opacity:1;fill-rule:nonzero;stroke:none"
         id="path56" /><path
         d="M 1352.34,760.039 977.711,864.961 988.266,902.66 1362.91,797.742 1352.34,760.039"
         style="fill:#dadbd8;fill-opacity:1;fill-rule:nonzero;stroke:none"
         id="path58" /><path
         d="m 1333.87,694.07 -374.636,104.922 10.555,37.699 374.641,-104.921 -10.56,-37.7"
         style="fill:#dadbd8;fill-opacity:1;fill-rule:nonzero;stroke:none"
         id="path60" /><path
         d="m 1315.39,628.102 -374.636,104.91 10.559,37.699 374.637,-104.922 -10.56,-37.687"
         style="fill:#dadbd8;fill-opacity:1;fill-rule:nonzero;stroke:none"
         id="path62" /><path
         d="m 1164.89,599.09 -242.609,67.949 10.555,37.699 242.604,-67.937 -10.55,-37.711"
         style="fill:#dadbd8;fill-opacity:1;fill-rule:nonzero;stroke:none"
         id="path64" /><path
         d="M 1218.22,722.93 684.148,872.5 879.473,1569.94 1413.54,1420.37 1218.22,722.93"
         style="fill:#fafaf9;fill-opacity:1;fill-rule:nonzero;stroke:none"
         id="path66" /><path
         d="m 1295.56,1306.04 -374.642,104.92 10.559,37.69 374.633,-104.92 -10.55,-37.69"
         style="fill:#dadbd8;fill-opacity:1;fill-rule:nonzero;stroke:none"
         id="path68" /><path
         d="m 1277.08,1240.06 -374.639,104.92 10.555,37.7 374.644,-104.93 -10.56,-37.69"
         style="fill:#dadbd8;fill-opacity:1;fill-rule:nonzero;stroke:none"
         id="path70" /><path
         d="M 1258.6,1174.08 883.965,1279 l 10.555,37.71 374.64,-104.92 -10.56,-37.71"
         style="fill:#dadbd8;fill-opacity:1;fill-rule:nonzero;stroke:none"
         id="path72" /><path
         d="m 1240.13,1108.11 -374.642,104.92 10.559,37.7 374.633,-104.92 -10.55,-37.7"
         style="fill:#dadbd8;fill-opacity:1;fill-rule:nonzero;stroke:none"
         id="path74" /><path
         d="m 1221.65,1042.14 -374.638,104.92 10.554,37.7 374.644,-104.93 -10.56,-37.69"
         style="fill:#dadbd8;fill-opacity:1;fill-rule:nonzero;stroke:none"
         id="path76" /><path
         d="m 1203.17,976.16 -374.635,104.92 10.563,37.7 374.632,-104.91 -10.56,-37.71"
         style="fill:#dadbd8;fill-opacity:1;fill-rule:nonzero;stroke:none"
         id="path78" /><path
         d="m 1184.7,910.191 -374.641,104.919 10.554,37.7 374.637,-104.919 -10.55,-37.7"
         style="fill:#dadbd8;fill-opacity:1;fill-rule:nonzero;stroke:none"
         id="path80" /><path
         d="m 1034.19,881.191 -242.608,67.95 10.559,37.699 242.609,-67.949 -10.56,-37.7"
         style="fill:#dadbd8;fill-opacity:1;fill-rule:nonzero;stroke:none"
         id="path82" /><path
         d="m 4432.32,2470.95 c -57.23,44.47 -133.53,190.72 -133.44,191.37 l -74.81,-515.2 c 1.69,11.66 -43.97,25.44 -74.49,29.87 -73.87,10.73 -137.72,-21.44 -144.98,-71.5 -7.27,-50.05 47.69,-99.47 121.56,-110.2 73.87,-10.73 137.02,21.54 144.29,71.6 1.1,7.52 -4.54,15.77 -3.53,22.75 l 57.65,396.95 c 0,0 38.91,-53.24 106.31,-87.86 54.83,-28.17 72.66,-106.49 72.66,-106.49 0,0 17.19,109.99 -71.22,178.71"
         style="fill:#dadbd8;fill-opacity:1;fill-rule:nonzero;stroke:none"
         id="path84" /><path
         d="m 3870.54,2221.57 c -39.47,30.67 -92.09,131.53 -92.03,131.98 l -51.59,-355.3 c 1.16,8.04 -30.32,17.54 -51.37,20.6 -50.95,7.4 -94.97,-14.79 -99.99,-49.31 -5.01,-34.52 32.89,-68.6 83.84,-75.99 50.94,-7.41 94.49,14.85 99.51,49.37 0.75,5.19 -3.14,10.87 -2.44,15.69 l 39.75,273.75 c 0,0 26.84,-36.72 73.32,-60.6 37.81,-19.42 50.1,-73.43 50.1,-73.43 0,0 11.86,75.85 -49.1,123.24"
         style="fill:#dadbd8;fill-opacity:1;fill-rule:nonzero;stroke:none"
         id="path86" /><path
         d="m 3851.67,1200.23 -27.44,21.6 c -10.04,7.91 -23.21,10.6 -35.1,7.17 l -137.98,-39.74 c -11.88,-3.42 -20.91,-12.51 -24.06,-24.21 l -8.58,-31.98 c -3.14,-11.7 -12.17,-20.79 -24.06,-24.21 l -82.34,-23.72 c -19.63,-5.66 -29.99,-26.02 -23.15,-45.49 l 159.39,-453.119 c 6.85,-19.472 28.32,-30.66 47.95,-25.011 l 652.58,187.98 c 19.63,5.66 29.99,26.02 23.15,45.48 l -159.39,453.13 c -6.85,19.46 -28.32,30.65 -47.95,25 l -277.93,-80.06 c -11.88,-3.42 -25.05,-0.73 -35.09,7.18"
         style="fill:#dadbd8;fill-opacity:1;fill-rule:nonzero;stroke:none"
         id="path88" /><path
         d="M 4242.56,1247.99 3644.7,1075.77 c -24.92,-7.18 -41.16,-33.56 -36.26,-58.92 l 78.99,-409.401 c 4.9,-25.359 29.07,-40.109 54,-32.929 l 597.86,172.218 c 24.92,7.184 41.16,33.563 36.27,58.934 l -79,409.378 c -4.9,25.37 -29.07,40.12 -54,32.94"
         style="fill:#e2e2e0;fill-opacity:1;fill-rule:nonzero;stroke:none"
         id="path90" /><path
         d="M 4438.89,113.23 C 4438.89,50.6914 3570.83,0 2500,0 1429.18,0 561.113,50.6914 561.113,113.23 c 0,62.54 868.067,113.239 1938.887,113.239 1070.83,0 1938.89,-50.699 1938.89,-113.239"
         style="fill:#f3f2f1;fill-opacity:1;fill-rule:nonzero;stroke:none"
         id="path92" /><path
         d="m 4500.57,1885.6 c 0,-568.51 -429.61,-1031.018 -957.69,-1031.018 -528.08,0 -957.7,462.508 -957.7,1031.018 0,568.49 429.62,1031 957.7,1031 325.71,0 624.86,-174.98 802.65,-468.58 l -70.44,-47.09 183.74,-56.56 31.33,200.35 -65.7,-43.93 c -194.86,323.15 -523.6,515.81 -881.58,515.81 -579.3,0 -1050.59,-507.37 -1050.59,-1131 0,-623.65 471.29,-1131.018 1050.59,-1131.018 579.29,0 1050.58,507.368 1050.58,1131.018 h -92.89"
         style="fill:#406fbf;fill-opacity:1;fill-rule:nonzero;stroke:none"
         id="path94" /><path
         d="m 3542.88,754.582 c -8.28,0 -16.55,0.109 -24.78,0.309 v 100.031 c 8.23,-0.231 16.49,-0.34 24.78,-0.34 52.05,0 103.11,4.488 152.93,13.129 18.23,-15.242 42.2,-15.242 42.2,-15.242 0,0 -42.91,-31.899 -42.92,-79.207 v 0 0 c 0,-1.934 0.07,-3.871 0.22,-5.852 0,0 -10.63,9.238 -22.48,9.238 -6.82,0 -14.04,-3.046 -19.89,-12.668 -0.7,-1.171 -1.35,-2.32 -1.94,-3.449 -20.52,-2.269 -41.28,-3.91 -62.13,-4.883 -15.26,-0.707 -30.58,-1.066 -45.99,-1.066 m 177.25,16.098 c 0.82,18.621 7.08,35.23 17.88,48.691 10.99,13.688 15.34,30.981 15.34,47.867 v 0 0 c -0.01,4.133 -0.27,8.223 -0.76,12.242 40.85,9.86 80.7,22.54 119.42,37.829 0.56,-2.278 0.87,-4.45 0.87,-6.469 0,-24.481 -45.19,-77.199 -45.19,-77.199 0,0 5.18,11.281 5.18,22.8 v 0 0 c 0,11.52 -5.18,23.278 -25.89,24.239 -0.71,0.039 -1.42,0.05 -2.11,0.05 -28.27,0 -42.73,-26.859 -42.74,-51.039 v 0 0 c -0.01,-9.832 2.37,-19.222 7.19,-26.171 6.29,-9.098 14.15,-11.961 21.53,-11.961 12.5,0 23.66,8.191 23.66,8.191 0,0 0.15,-2.488 0.49,-6.699 -31.09,-8.992 -62.71,-16.461 -94.87,-22.371 m 117.7,29.269 c 7.26,45.391 40,68.711 51.99,103.36 2.06,5.929 2.96,11.75 2.95,17.39 v 0 0 c 0,1.692 -0.08,3.36 -0.23,5.02 355.67,150.671 608.03,524.131 608.03,959.881 h 92.89 c 0,-30.23 -1.1,-60.13 -3.27,-89.76 -0.72,-9.78 -1.56,-19.56 -2.5,-29.27 -38.39,-393.36 -264.9,-727.34 -580.58,-895.468 -1.62,7.359 -5.73,9.589 -11.3,9.589 -4.28,0 -9.42,-1.32 -14.95,-2.64 -5.54,-1.321 -11.47,-2.629 -17.32,-2.629 -0.18,0 -0.36,0 -0.54,0 -0.06,0 -0.12,0 -0.18,0 -12.17,0 -24.57,-17.512 -30.12,-40.133 -30.94,-13.359 -62.56,-25.16 -94.87,-35.34 m 621,1544.421 -148.29,45.65 -35.45,10.91 70.44,47.09 v 0 c -7.01,11.58 -14.21,22.98 -21.6,34.19 -13.57,20.6 -27.74,40.53 -42.51,59.84 -180.96,236.52 -449.29,374.55 -738.54,374.55 -8.29,0 -16.55,-0.12 -24.78,-0.34 v 100.03 c 8.23,0.21 16.5,0.31 24.78,0.31 357.98,0 686.72,-192.66 881.58,-515.81 l 65.7,43.93 -18.17,-116.18 -8.73,-55.86 -4.43,-28.31"
         style="fill:#b8d2ef;fill-opacity:1;fill-rule:nonzero;stroke:none"
         id="path96" /><path
         d="m 3287,1983.12 c -94.41,0 -170.94,82.39 -170.94,184.02 0,101.63 76.53,184.02 170.94,184.02 94.4,0 170.92,-82.39 170.92,-184.02 0,-101.63 -76.52,-184.02 -170.92,-184.02 m 397.36,116.06 v 135.93 l -65.02,6.6 c -8.78,45.56 -25.56,87.92 -48.49,125.55 l 41.76,54.31 -89.29,96.12 -50.44,-44.96 c -34.95,24.69 -74.3,42.75 -116.63,52.2 l -6.12,70 h -126.27 l -6.13,-70 c -42.32,-9.45 -81.68,-27.51 -116.62,-52.2 l -50.45,44.96 -89.29,-96.12 41.76,-54.31 c -22.93,-37.63 -39.71,-79.99 -48.49,-125.55 l -65.01,-6.6 v -135.93 l 65.01,-6.6 c 8.78,-45.56 25.56,-87.93 48.49,-125.56 l -41.76,-54.3 89.29,-96.12 50.44,44.95 c 34.95,-24.69 74.31,-42.75 116.63,-52.19 l 6.13,-70 h 126.27 l 6.12,70 c 42.33,9.44 81.68,27.5 116.64,52.19 l 50.43,-44.95 89.29,96.12 -41.76,54.3 c 22.93,37.63 39.72,80 48.49,125.56 l 65.02,6.6"
         style="fill:#406fbf;fill-opacity:1;fill-rule:nonzero;stroke:none"
         id="path98" /><path
         d="m 3884.74,1624.54 c -73.97,0 -133.94,64.55 -133.94,144.19 0,79.65 59.97,144.21 133.94,144.21 73.98,0 133.95,-64.56 133.95,-144.21 0,-79.64 -59.97,-144.19 -133.95,-144.19 m 311.38,90.93 V 1822 l -50.94,5.17 c -6.88,35.7 -20.03,68.9 -38,98.39 l 32.72,42.55 -69.96,75.32 -39.53,-35.23 c -27.39,19.35 -58.23,33.51 -91.39,40.91 l -4.8,54.85 h -98.95 l -4.79,-54.85 c -33.18,-7.4 -64.01,-21.56 -91.4,-40.91 l -39.53,35.23 -69.96,-75.32 32.72,-42.55 c -17.97,-29.49 -31.12,-62.69 -38,-98.39 l -50.94,-5.17 v -106.53 l 50.94,-5.16 c 6.88,-35.71 20.03,-68.9 38,-98.38 l -32.72,-42.56 69.96,-75.33 39.53,35.23 c 27.39,-19.34 58.22,-33.5 91.4,-40.9 l 4.79,-54.84 h 98.95 l 4.8,54.84 c 33.16,7.4 64,21.56 91.39,40.9 l 39.53,-35.23 69.96,75.33 -32.72,42.56 c 17.97,29.48 31.12,62.67 38,98.38 l 50.94,5.16"
         style="fill:#406fbf;fill-opacity:1;fill-rule:nonzero;stroke:none"
         id="path100" /><path
         d="m 3422.82,1336.68 c -62.14,0 -112.51,54.23 -112.51,121.12 0,66.89 50.37,121.13 112.51,121.13 62.13,0 112.51,-54.24 112.51,-121.13 0,-66.89 -50.38,-121.12 -112.51,-121.12 m 261.54,76.39 v 89.47 l -42.8,4.34 c -5.77,29.99 -16.81,57.87 -31.91,82.64 l 27.49,35.73 -58.77,63.28 -33.2,-29.59 c -23.01,16.25 -48.91,28.13 -76.77,34.35 l -4.02,46.07 h -83.11 l -4.03,-46.07 c -27.86,-6.22 -53.76,-18.1 -76.77,-34.35 l -33.2,29.59 -58.77,-63.28 27.49,-35.73 c -15.09,-24.77 -26.14,-52.65 -31.91,-82.64 l -42.8,-4.34 v -89.47 l 42.79,-4.34 c 5.78,-30 16.83,-57.88 31.92,-82.65 l -27.49,-35.74 58.77,-63.27 33.2,29.6 c 23,-16.26 48.91,-28.14 76.77,-34.36 l 4.03,-46.06 h 83.11 l 4.02,46.06 c 27.86,6.23 53.76,18.1 76.77,34.36 l 33.2,-29.6 58.77,63.27 -27.49,35.74 c 15.1,24.77 26.14,52.65 31.92,82.65 l 42.79,4.34"
         style="fill:#406fbf;fill-opacity:1;fill-rule:nonzero;stroke:none"
         id="path102" /><path
         d="m 3523.32,1816.6 -5.22,4.66 v 691.77 l 5.22,4.66 89.29,-96.12 -41.76,-54.31 v 0 c 22.93,-37.63 39.71,-79.99 48.49,-125.55 l 65.02,-6.6 v -135.93 l -65.02,-6.6 c -7.1,-36.86 -19.43,-71.62 -36.03,-103.48 -1.61,-3.08 -3.25,-6.14 -4.94,-9.16 -2.42,-4.37 -4.93,-8.67 -7.52,-12.92 v 0 0 l 41.76,-54.3 -1.84,-1.99 -87.45,-94.13"
         style="fill:#b8d2ef;fill-opacity:1;fill-rule:nonzero;stroke:none"
         id="path104" /><path
         d="m 3934.22,1433.53 h -98.95 l -4.79,54.84 c -33.18,7.4 -64.01,21.56 -91.4,40.9 l -39.53,-35.23 -69.96,75.33 32.72,42.56 v 0 c -17.97,29.48 -31.12,62.67 -38,98.38 l -50.94,5.16 V 1822 l 50.94,5.17 c 6.88,35.7 20.03,68.9 38,98.39 v 0 0 l -32.72,42.55 69.96,75.32 39.53,-35.23 c 27.39,19.35 58.22,33.51 91.4,40.91 l 4.79,54.85 h 98.95 l 4.8,-54.85 c 33.16,-7.4 64,-21.56 91.39,-40.91 l 39.53,35.23 69.96,-75.32 -32.72,-42.55 v 0 c 17.97,-29.49 31.12,-62.69 38,-98.39 l 50.94,-5.17 v -106.53 l -50.94,-5.16 c -6.88,-35.71 -20.03,-68.9 -38,-98.38 v 0 0 l 32.72,-42.56 -69.96,-75.33 -39.53,35.23 c -27.39,-19.34 -58.23,-33.5 -91.39,-40.9 l -4.8,-54.84 m -183.42,335.2 v 0 c 0,-79.64 59.97,-144.19 133.94,-144.19 73.98,0 133.95,64.55 133.95,144.19 v 0 0 c 0,79.65 -59.97,144.21 -133.95,144.21 -73.97,0 -133.94,-64.56 -133.94,-144.21 v 0"
         style="fill:#90b4e3;fill-opacity:1;fill-rule:nonzero;stroke:none"
         id="path106" /><path
         d="m 3578.37,1227.07 -33.2,29.6 c -8.63,-6.1 -17.67,-11.58 -27.07,-16.38 v 153.07 c 10.91,18.67 17.23,40.76 17.23,64.44 v 0 0 c 0,23.68 -6.32,45.78 -17.23,64.44 v 153.07 c 9.4,-4.79 18.44,-10.28 27.07,-16.37 l 33.2,29.59 58.77,-63.28 -27.49,-35.73 v 0 c 15.1,-24.77 26.14,-52.65 31.91,-82.64 l 42.8,-4.34 v -89.47 l -42.79,-4.34 c -5.78,-30 -16.82,-57.88 -31.92,-82.65 v 0 0 l 27.49,-35.74 -58.77,-63.27"
         style="fill:#6d97d6;fill-opacity:1;fill-rule:nonzero;stroke:none"
         id="path108" /><path
         d="M 3473.13,327.461 H 2062.47 c -11.22,0 -21.09,4.219 -28.19,11.309 -7.48,7.289 -11.98,17.652 -11.98,29.351 v 37.258 h 694.86 258.51 260.7 c 23.68,0 42.72,18.41 42.72,42.09 v 1.66 h 239.01 v -77.367 c 0,-24.93 -20.04,-44.301 -44.97,-44.301 m 44.97,124.168 H 3279.09 V 790.68 c 76.67,-21.43 156.65,-33.731 239.01,-35.789 V 451.629 m 0,403.293 c -82.66,2.269 -162.79,15.887 -239.01,39.418 v 3.281 h 239.01 v -42.699 m 0,45.199 h -239.01 v 337.489 l 21.38,19.06 c 23,-16.26 48.91,-28.14 76.77,-34.36 l 4.03,-46.06 h 83.11 l 4.02,46.06 c 17.41,3.89 34.05,9.98 49.7,17.98 v -153.43 l -5.99,-1.72 c -19.63,-5.66 -29.99,-26.02 -23.15,-45.49 l 29.14,-82.83 v -56.699"
         style="fill:#e0e1de;fill-opacity:1;fill-rule:nonzero;stroke:none"
         id="path110" /><path
         d="m 3279.09,449.129 h 239.012 v 2.5 H 3279.09 Z"
         style="fill:#cccdcb;fill-opacity:1;fill-rule:nonzero;stroke:none"
         id="path112" /><path
         d="m 3279.09,897.621 h 239.012 v 2.5 H 3279.09 Z"
         style="fill:#cccdcb;fill-opacity:1;fill-rule:nonzero;stroke:none"
         id="path114" /><path
         d="m 3518.1,956.82 -29.14,82.83 c -6.84,19.47 3.52,39.83 23.15,45.49 l 5.99,1.72 V 956.82"
         style="fill:#c0c1bf;fill-opacity:1;fill-rule:nonzero;stroke:none"
         id="path116" /><path
         d="m 3518.1,754.891 c -82.36,2.058 -162.34,14.359 -239.01,35.789 v 103.66 c 76.22,-23.531 156.35,-37.149 239.01,-39.418 V 754.891"
         style="fill:#a2bbe6;fill-opacity:1;fill-rule:nonzero;stroke:none"
         id="path118" /><path
         d="m 3422.82,1336.68 c -62.14,0 -112.51,54.23 -112.51,121.12 0,66.89 50.37,121.13 112.51,121.13 40.14,0 75.37,-22.64 95.28,-56.69 v -128.88 c -19.91,-34.05 -55.14,-56.68 -95.28,-56.68 m -122.35,322.26 -21.38,19.05 v 61.37 h 71.04 l 6.12,70 c 42.33,9.44 81.68,27.5 116.64,52.19 l 45.21,-40.29 v -145.95 c -15.65,8 -32.29,14.09 -49.7,17.98 l -4.02,46.07 h -83.11 l -4.03,-46.07 c -27.86,-6.22 -53.76,-18.1 -76.77,-34.35 M 3287,1983.12 c -2.65,0 -5.29,0.07 -7.91,0.19 v 367.66 c 2.62,0.13 5.26,0.19 7.91,0.19 94.4,0 170.92,-82.39 170.92,-184.02 0,-101.63 -76.52,-184.02 -170.92,-184.02 m 185.88,489.61 c -34.95,24.69 -74.3,42.75 -116.63,52.2 l -6.12,70 h -71.04 v 281.9 c 76.22,23.54 156.35,37.15 239.01,39.43 v -403.23 l -45.22,-40.3 m -193.79,507.77 v 346.48 c 0,20.77 -16.58,38.81 -37.34,38.81 h -375.11 c -10.75,0 -20.49,-7.1 -24.5,-17.21 l -15.76,-38.99 c -4.01,-10.02 -13.75,-16.67 -24.5,-16.67 h -254.33 v 74.09 h 468.21 c 11.32,0 21.57,7 25.79,17.55 l 16.59,41.03 c 4.22,10.64 14.48,18.13 25.8,18.13 h 394.85 c 21.86,0 39.31,-18.99 39.31,-40.85 v -386.58 c -82.36,-2.06 -162.34,-14.36 -239.01,-35.79 m -734.04,312.42 h -117.84 v 150.8 h 30.11 c 11.32,0 21.58,-7.39 25.8,-18.03 l 16.59,-40.85 c 4.22,-10.54 14.48,-17.83 25.79,-17.83 h 19.55 v -74.09 m -120.34,0 h -88.57 c -10.75,0 -20.5,6.92 -24.5,16.94 l -15.77,38.8 c -4.01,10.12 -13.75,17.13 -24.5,17.13 H 2022.3 v 40.73 c 0,19.84 14.57,37.2 34.42,37.2 h 367.99 v -150.8"
         style="fill:#e0e1de;fill-opacity:1;fill-rule:nonzero;stroke:none"
         id="path120" /><path
         d="m 2424.71,3292.92 h 2.5 v 150.801 h -2.5 z"
         style="fill:#cccdcb;fill-opacity:1;fill-rule:nonzero;stroke:none"
         id="path122" /><path
         d="m 2545.05,3292.92 h 2.5 v 74.0898 h -2.5 z"
         style="fill:#cccdcb;fill-opacity:1;fill-rule:nonzero;stroke:none"
         id="path124" /><path
         d="m 3279.09,2876.83 v 103.67 c 76.67,21.43 156.65,33.73 239.01,35.79 v -100.03 c -82.66,-2.28 -162.79,-15.89 -239.01,-39.43"
         style="fill:#a2bbe6;fill-opacity:1;fill-rule:nonzero;stroke:none"
         id="path126" /><path
         d="m 3350.13,1739.36 h -71.04 v 243.95 c 2.62,-0.12 5.26,-0.19 7.91,-0.19 94.4,0 170.92,82.39 170.92,184.02 v 0 0 c 0,101.63 -76.52,184.02 -170.92,184.02 -2.65,0 -5.29,-0.06 -7.91,-0.19 v 159.4 84.56 h 71.04 l 6.12,-70 c 42.33,-9.45 81.68,-27.51 116.63,-52.2 l 45.22,40.3 v -691.77 l -45.21,40.29 c -34.96,-24.69 -74.31,-42.75 -116.64,-52.19 l -6.12,-70"
         style="fill:#a2bbe6;fill-opacity:1;fill-rule:nonzero;stroke:none"
         id="path128" /><path
         d="m 3464.38,1176.25 h -83.11 l -4.03,46.06 c -27.86,6.22 -53.77,18.1 -76.77,34.36 l -21.38,-19.06 V 1542 1677.99 l 21.38,-19.05 c 23.01,16.25 48.91,28.13 76.77,34.35 l 4.03,46.07 h 83.11 l 4.02,-46.07 c 17.41,-3.89 34.05,-9.98 49.7,-17.98 v -153.07 c -19.91,34.05 -55.14,56.69 -95.28,56.69 -62.14,0 -112.51,-54.24 -112.51,-121.13 v 0 0 c 0,-66.89 50.37,-121.12 112.51,-121.12 40.14,0 75.37,22.63 95.28,56.68 v -153.07 c -15.65,-8 -32.29,-14.09 -49.7,-17.98 l -4.02,-46.06"
         style="fill:#6189ce;fill-opacity:1;fill-rule:nonzero;stroke:none"
         id="path130" /><path
         d="M 3279.09,3326.98 V 447.469 c 0,-23.68 -19.04,-42.09 -42.72,-42.09 H 1896.26 c -10.65,0 -20.03,4.019 -26.77,10.75 -7.11,6.93 -11.39,16.762 -11.39,27.871 v 2886.45 c 0,18.85 13.85,35.34 32.7,35.34 h 380.57 c 10.75,0 20.49,-7.01 24.5,-17.13 l 15.77,-38.8 c 4,-10.02 13.75,-16.94 24.5,-16.94 h 465.74 c 10.75,0 20.49,6.65 24.5,16.67 l 15.76,38.99 c 4.01,10.11 13.75,17.21 24.5,17.21 h 375.11 c 20.76,0 37.34,-18.04 37.34,-38.81"
         style="fill:#406fbf;fill-opacity:1;fill-rule:nonzero;stroke:none"
         id="path132" /><path
         d="m 2034.77,3249.79 h 19.8008 v 26.4023 H 2034.77 Z"
         style="fill:#a4c3e9;fill-opacity:1;fill-rule:nonzero;stroke:none"
         id="path134" /><path
         d="m 2002.49,3249.79 h 19.8125 v 35.2031 H 2002.49 Z"
         style="fill:#a4c3e9;fill-opacity:1;fill-rule:nonzero;stroke:none"
         id="path136" /><path
         d="m 1970.22,3249.79 h 19.8008 v 44.0156 H 1970.22 Z"
         style="fill:#a4c3e9;fill-opacity:1;fill-rule:nonzero;stroke:none"
         id="path138" /><path
         d="m 1937.95,3249.79 h 19.8008 v 52.8242 H 1937.95 Z"
         style="fill:#a4c3e9;fill-opacity:1;fill-rule:nonzero;stroke:none"
         id="path140" /><path
         d="m 3085.91,3259.42 h 11.7383 v 26.3984 H 3085.91 Z"
         style="fill:#a4c3e9;fill-opacity:1;fill-rule:nonzero;stroke:none"
         id="path142" /><path
         d="m 3105.72,3249.79 h 93.5117 v 45.6719 H 3105.72 Z"
         style="fill:#a4c3e9;fill-opacity:1;fill-rule:nonzero;stroke:none"
         id="path144" /><path
         d="m 3019.22,1668.49 h -815.45 l 0.01,0.04 2.46,9.07 h 403.08 c 23.02,0 41.75,18.73 41.75,41.76 v 0 0 c 0,23.02 -18.73,41.75 -41.75,41.75 h -380.84 l 2.45,9.07 0.01,0.04 h 788.28 c 25.85,0 47.19,-19.28 50.44,-44.25 l -0.07,-0.25 v -0.08 l -9.84,-36.8 v -0.1 l -0.05,-0.19 c -9.29,-12.19 -23.97,-20.06 -40.48,-20.06 m -873.56,0 h -27.7 c -20.55,0 -38.26,12.19 -46.28,29.74 l 0.02,0.08 4.65,17.22 v 0.09 l 0.02,0.06 c 1.86,-21.31 19.81,-38.08 41.59,-38.08 h 30.16 l -2.45,-9.07 -0.01,-0.04 m -61.93,74.75 v 0.06 l 4.56,17.22 v 0.1 l 0.02,0.07 c 8.34,6 18.59,9.53 29.65,9.53 h 54.87 l -0.02,-0.04 -2.44,-9.07 h -52.41 c -14.14,0 -26.67,-7.07 -34.23,-17.87"
         style="fill:#2d5bb2;fill-opacity:1;fill-rule:nonzero;stroke:none"
         id="path146" /><path
         d="m 2609.32,1761.11 c 23.02,0 41.75,-18.73 41.75,-41.75 0,-23.03 -18.73,-41.76 -41.75,-41.76 h -491.36 c -23.02,0 -41.75,18.73 -41.75,41.76 0,23.02 18.73,41.75 41.75,41.75 h 491.36"
         style="fill:#406fbf;fill-opacity:1;fill-rule:nonzero;stroke:none"
         id="path148" /><path
         d="m 2609.32,1677.6 h -403.08 v 0.03 l 22.23,83.43 0.01,0.05 h 380.84 c 23.02,0 41.75,-18.73 41.75,-41.75 0,-23.03 -18.73,-41.76 -41.75,-41.76 m -461.2,0 h -30.16 c -21.78,0 -39.73,16.77 -41.59,38.08 l 7.36,27.53 v 0.03 c 7.56,10.8 20.09,17.87 34.23,17.87 h 52.41 l -0.01,-0.05 -22.23,-83.43 -0.01,-0.03"
         style="fill:#6d97d6;fill-opacity:1;fill-rule:nonzero;stroke:none"
         id="path150" /><path
         d="m 2446.74,1803.29 -11.59,64.86 h 10.25 l 8.14,-50.56 8.2,50.56 H 2472 l -11.8,-64.86 h -13.46"
         style="fill:#ffffff;fill-opacity:1;fill-rule:nonzero;stroke:none"
         id="path152" /><path
         d="m 2480.17,1803.29 v 64.9 h 27.84 v -9.83 h -18.06 v -17.71 h 13.2 v -9.83 h -13.2 v -17.69 h 18.06 v -9.84 h -27.84"
         style="fill:#ffffff;fill-opacity:1;fill-rule:nonzero;stroke:none"
         id="path154" /><path
         d="m 2536.02,1852.51 c 0,3.76 -1.86,5.64 -5.59,5.64 h -5.9 v -20.75 h 5.9 c 1.55,0 2.87,0.55 3.95,1.65 1.09,1.11 1.64,2.44 1.64,3.99 z m -5.85,15.64 c 5.45,0 9.45,-1.51 12.01,-4.51 2.24,-2.62 3.36,-6.29 3.36,-10.97 v -9.43 c 0,-4.59 -1.74,-8.46 -5.23,-11.64 l 7.25,-28.31 h -10.58 l -5.93,24.43 h -0.88 -5.64 v -24.43 h -9.78 v 64.86 h 15.42"
         style="fill:#ffffff;fill-opacity:1;fill-rule:nonzero;stroke:none"
         id="path156" /><path
         d="m 2554.29,1813.02 h 9.78 v -9.78 h -9.78 v 9.78"
         style="fill:#ffffff;fill-opacity:1;fill-rule:nonzero;stroke:none"
         id="path158" /><path
         d="m 2577.68,1849.87 c 0,6.15 1.66,10.83 4.97,14.09 2.86,2.86 6.62,4.28 11.28,4.28 4.28,0 7.93,-1.6 10.95,-4.81 3.02,-3.2 4.52,-6.95 4.52,-11.23 0,-4.42 -0.98,-8.67 -2.94,-12.79 -1.07,-2.27 -3.57,-6.19 -7.51,-11.74 -1.07,-1.52 -2.66,-3.88 -4.76,-7.09 l -1.76,-2.64 c -1.14,-1.73 -2,-3.09 -2.59,-4.09 l -0.41,-0.93 h 19.2 v -9.58 h -31.11 v 8.98 c 0,0.2 0.72,1.39 2.14,3.57 0.66,1.01 1.4,2.11 2.23,3.31 l 2.55,3.67 c 1.49,2.03 3.82,5.29 7,9.78 3,4.21 5.24,8.01 6.73,11.43 1.21,2.8 1.82,5.39 1.82,7.82 0,1.96 -0.56,3.63 -1.66,5.01 -1.21,1.45 -2.76,2.17 -4.66,2.17 -2.72,0 -4.66,-1.57 -5.79,-4.7 -0.38,-1.04 -0.58,-2.28 -0.58,-3.73 v -2.49 h -9.62 v 1.71"
         style="fill:#ffffff;fill-opacity:1;fill-rule:nonzero;stroke:none"
         id="path160" /><path
         d="m 2616.13,1813.02 h 9.78 v -9.78 h -9.78 v 9.78"
         style="fill:#ffffff;fill-opacity:1;fill-rule:nonzero;stroke:none"
         id="path162" /><path
         d="m 2653.5,1853.7 c 0,1.55 -0.56,2.88 -1.66,3.99 -1.1,1.1 -2.43,1.66 -3.98,1.66 -1.56,0 -2.87,-0.56 -3.96,-1.66 -1.09,-1.11 -1.63,-2.44 -1.63,-3.99 v -35.45 c 0,-1.55 0.54,-2.88 1.63,-3.98 1.09,-1.12 2.4,-1.66 3.96,-1.66 1.55,0 2.88,0.54 3.98,1.66 1.1,1.1 1.66,2.43 1.66,3.98 z m 10.14,-35.6 c 0,-4.32 -1.52,-7.97 -4.55,-10.98 -3.04,-3 -6.68,-4.5 -10.92,-4.5 -4.32,0 -7.98,1.51 -11,4.53 -3.02,3.02 -4.53,6.67 -4.53,10.95 v 35.4 c 0,4.3 1.52,7.98 4.56,10.99 3.03,3.02 6.69,4.53 10.97,4.53 4.31,0 7.97,-1.52 10.97,-4.56 3,-3.03 4.5,-6.69 4.5,-10.96 v -35.4"
         style="fill:#ffffff;fill-opacity:1;fill-rule:nonzero;stroke:none"
         id="path164" /><path
         d="m 2682.53,1858.41 v -13.92 c 0.97,1.38 2.34,2.44 4.1,3.21 0.93,0.38 2.03,0.56 3.27,0.56 4.29,0 7.46,-1.49 9.5,-4.5 1.76,-2.59 2.65,-6.24 2.65,-10.97 v -13.97 c 0,-4.8 -1.52,-8.73 -4.56,-11.8 -2.9,-2.97 -6.56,-4.45 -10.97,-4.45 -4.28,0 -7.83,1.55 -10.67,4.66 -2.72,2.97 -4.08,6.59 -4.08,10.87 v 1.55 l 9.36,0.72 0.21,-2.22 c 0.24,-2.59 1.3,-4.32 3.16,-5.18 l 1.76,-0.41 c 4,0 6,2.08 6,6.26 v 15.89 c 0,1.89 -0.69,3.46 -2.08,4.7 -0.66,0.59 -1.58,0.88 -2.76,0.88 -1.73,0 -3.02,-0.67 -3.85,-2.01 -0.69,-1.18 -1.04,-2.42 -1.04,-3.73 v -1.76 h -9.78 v 35.45 h 28.62 v -9.83 h -18.84"
         style="fill:#ffffff;fill-opacity:1;fill-rule:nonzero;stroke:none"
         id="path166" /><path
         d="m 2380.72,2464.47 c -8.74,0 -16.15,3.04 -22.23,9.13 -6.09,6.08 -9.13,13.45 -9.13,22.12 v 101.62 h 19.4 v -101.41 c 0,-3.15 1.12,-5.82 3.36,-8.02 2.24,-2.2 4.93,-3.31 8.08,-3.31 3.14,0 5.82,1.11 8.02,3.31 2.2,2.2 3.3,4.87 3.3,8.02 v 101.41 h 20.66 v -101.62 c 0,-8.81 -3.08,-16.22 -9.23,-22.23 -6.15,-6.01 -13.57,-9.02 -22.23,-9.02"
         style="fill:#ffffff;fill-opacity:1;fill-rule:nonzero;stroke:none"
         id="path168" /><path
         d="m 2472.9,2565.67 c 0,3.43 -1.03,6.19 -3.1,8.29 -2.06,2.1 -4.81,3.14 -8.23,3.14 h -11.96 v -42.05 h 11.96 c 3.15,0 5.82,1.12 8.02,3.35 2.21,2.24 3.31,4.94 3.31,8.08 v 19.19 m -11.85,31.67 c 9.64,0 17.33,-3.04 23.07,-9.12 5.31,-5.81 7.97,-13.21 7.97,-22.23 v -19.09 c 0,-8.67 -3.03,-16.08 -9.07,-22.23 -6.05,-6.16 -13.37,-9.23 -21.97,-9.23 h -11.44 v -49.5 h -19.82 v 131.4 h 31.26"
         style="fill:#ffffff;fill-opacity:1;fill-rule:nonzero;stroke:none"
         id="path170" /><path
         d="m 2527.74,2485.55 h 11.96 c 3.14,0 5.8,1.14 7.97,3.41 2.16,2.27 3.25,4.94 3.25,8.02 v 68.8 c 0,3.14 -1.11,5.83 -3.31,8.07 -2.2,2.24 -4.84,3.36 -7.91,3.36 h -11.96 z m 42.47,11.85 c 0,-8.67 -3.04,-16.08 -9.12,-22.23 -6.08,-6.16 -13.42,-9.23 -22.02,-9.23 h -31.15 v 131.51 h 31.15 c 8.66,0 16.02,-3.08 22.07,-9.23 6.05,-6.15 9.07,-13.53 9.07,-22.13 v -68.69"
         style="fill:#ffffff;fill-opacity:1;fill-rule:nonzero;stroke:none"
         id="path172" /><path
         d="m 2619.71,2567.24 -7.34,-51.8 h 14.68 z m -10.41,-71.1 -4.82,-30.2 h -20.64 l 22.34,131.4 h 27.27 l 22.02,-131.4 h -20.84 l -4.64,30.2 h -20.69"
         style="fill:#ffffff;fill-opacity:1;fill-rule:nonzero;stroke:none"
         id="path174" /><path
         d="m 2674.66,2577.42 h -21.08 v 19.92 h 61.88 v -19.92 h -20.98 v -111.48 h -19.82 v 111.48"
         style="fill:#ffffff;fill-opacity:1;fill-rule:nonzero;stroke:none"
         id="path176" /><path
         d="m 2731.4,2465.94 v 131.51 h 56.42 v -19.93 h -36.6 v -35.86 h 26.74 v -19.93 h -26.74 v -35.86 h 36.6 v -19.93 h -56.42"
         style="fill:#ffffff;fill-opacity:1;fill-rule:nonzero;stroke:none"
         id="path178" /><path
         d="m 2724.92,1430.01 h -312.65 c -22.84,0 -41.35,18.52 -41.35,41.35 v 67.2 c 0,22.83 18.51,41.33 41.35,41.33 h 312.65 c 22.83,0 41.34,-18.5 41.34,-41.33 v -67.2 c 0,-22.83 -18.51,-41.35 -41.34,-41.35"
         style="fill:#3563b7;fill-opacity:1;fill-rule:nonzero;stroke:none"
         id="path180" /><path
         d="m 2472.74,1476.28 c -4.31,0 -7.97,1.51 -11,4.53 -3.01,3.02 -4.52,6.67 -4.52,10.95 v 35.4 c 0,4.31 1.52,7.98 4.55,10.99 3.03,3.02 6.7,4.54 10.97,4.54 4.32,0 7.97,-1.53 10.98,-4.56 3,-3.04 4.5,-6.69 4.5,-10.97 v -7.4 h -10.14 v 7.6 c 0,1.56 -0.56,2.88 -1.66,3.99 -1.11,1.1 -2.44,1.66 -3.99,1.66 -1.55,0 -2.87,-0.56 -3.96,-1.66 -1.08,-1.11 -1.63,-2.43 -1.63,-3.99 v -35.5 c 0,-1.56 0.55,-2.87 1.63,-3.96 1.09,-1.08 2.41,-1.63 3.96,-1.63 1.55,0 2.88,0.55 3.99,1.63 1.1,1.09 1.66,2.4 1.66,3.96 v 8.95 h 10.14 v -9.05 c 0,-4.32 -1.52,-7.97 -4.56,-10.98 -3.03,-3 -6.67,-4.5 -10.92,-4.5"
         style="fill:#ffffff;fill-opacity:1;fill-rule:nonzero;stroke:none"
         id="path182" /><path
         d="m 2511.51,1527.11 -3.62,-25.58 h 7.24 z m -5.14,-35.1 -2.38,-14.9 h -10.18 l 11.02,64.85 h 13.46 l 10.87,-64.85 h -10.29 l -2.29,14.9 h -10.21"
         style="fill:#ffffff;fill-opacity:1;fill-rule:nonzero;stroke:none"
         id="path184" /><path
         d="m 2548.36,1542.01 12.99,-43.62 v 43.62 h 9.78 v -64.9 h -10.51 l -13.46,41.56 v -41.56 h -9.78 v 64.9 h 10.98"
         style="fill:#ffffff;fill-opacity:1;fill-rule:nonzero;stroke:none"
         id="path186" /><path
         d="m 2595.24,1476.28 c -4.31,0 -7.97,1.51 -11,4.53 -3.01,3.02 -4.52,6.67 -4.52,10.95 v 35.4 c 0,4.31 1.52,7.98 4.55,10.99 3.03,3.02 6.7,4.54 10.97,4.54 4.32,0 7.97,-1.53 10.98,-4.56 3,-3.04 4.5,-6.69 4.5,-10.97 v -7.4 h -10.14 v 7.6 c 0,1.56 -0.56,2.88 -1.66,3.99 -1.11,1.1 -2.44,1.66 -3.99,1.66 -1.55,0 -2.87,-0.56 -3.96,-1.66 -1.08,-1.11 -1.63,-2.43 -1.63,-3.99 v -35.5 c 0,-1.56 0.55,-2.87 1.63,-3.96 1.09,-1.08 2.41,-1.63 3.96,-1.63 1.55,0 2.88,0.55 3.99,1.63 1.1,1.09 1.66,2.4 1.66,3.96 v 8.95 h 10.14 v -9.05 c 0,-4.32 -1.52,-7.97 -4.56,-10.98 -3.03,-3 -6.67,-4.5 -10.92,-4.5"
         style="fill:#ffffff;fill-opacity:1;fill-rule:nonzero;stroke:none"
         id="path188" /><path
         d="m 2618.74,1477.11 v 64.9 h 27.84 v -9.83 h -18.06 v -17.71 h 13.2 v -9.83 h -13.2 v -17.7 h 18.06 v -9.83 h -27.84"
         style="fill:#ffffff;fill-opacity:1;fill-rule:nonzero;stroke:none"
         id="path190" /><path
         d="m 2679.97,1477.11 h -26.66 v 64.85 h 9.78 v -55.12 h 16.88 v -9.73"
         style="fill:#ffffff;fill-opacity:1;fill-rule:nonzero;stroke:none"
         id="path192" /><path
         d="m 2840.31,866.82 h -629.23 c -6.99,0 -12.65,5.66 -12.65,12.649 0,6.992 5.66,12.66 12.65,12.66 h 635.96 l -6.72,-25.277 -0.01,-0.032"
         style="fill:#6d97d6;fill-opacity:1;fill-rule:nonzero;stroke:none"
         id="path194" /><path
         d="M 2820.08,790.852 H 2120 c -7,0 -12.66,5.668 -12.66,12.66 0,6.988 5.66,12.648 12.66,12.648 h 706.82 l -6.73,-25.281 -0.01,-0.027"
         style="fill:#6d97d6;fill-opacity:1;fill-rule:nonzero;stroke:none"
         id="path196" /><path
         d="m 2799.78,714.891 h -497.61 c -6.99,0 -12.65,5.668 -12.65,12.66 0,6.988 5.66,12.66 12.65,12.66 h 504.35 l -6.74,-25.313 v -0.007"
         style="fill:#6d97d6;fill-opacity:1;fill-rule:nonzero;stroke:none"
         id="path198" /><path
         d="M 2759.25,562.969 H 2120 c -7,0 -12.66,5.66 -12.66,12.66 0,6.992 5.66,12.652 12.66,12.652 h 645.98 l -6.73,-25.312 m 258.49,0.011 0.02,0.079 6.2,23.23 c 3.54,-2.219 5.88,-6.168 5.88,-10.66 0,-6.809 -5.37,-12.359 -12.1,-12.649"
         style="fill:#6d97d6;fill-opacity:1;fill-rule:nonzero;stroke:none"
         id="path200" /><path
         d="m 1858.1,898.18 v 968.37 l 400.24,1499.24 h 13.03 c 10.75,0 20.49,-7.01 24.5,-17.13 l 15.77,-38.8 c 4,-10.02 13.75,-16.94 24.5,-16.94 h 161.22 L 2088.31,1760.69 c -12.85,-9.24 -21.21,-24.31 -21.21,-41.33 0,-7.54 1.64,-14.7 4.58,-21.13 L 1858.1,898.18"
         style="fill:#4d79c6;fill-opacity:1;fill-rule:nonzero;stroke:none"
         id="path202" /><path
         d="m 2071.68,1698.23 c -2.94,6.43 -4.58,13.59 -4.58,21.13 0,17.02 8.36,32.09 21.21,41.33 l -0.02,-0.07 v -0.1 l -4.56,-17.22 v -0.06 c -4.74,-6.77 -7.52,-15.01 -7.52,-23.88 v 0 0 c 0,-1.24 0.05,-2.47 0.16,-3.68 l -0.02,-0.06 v -0.09 l -4.65,-17.22 -0.02,-0.08"
         style="fill:#3b67ba;fill-opacity:1;fill-rule:nonzero;stroke:none"
         id="path204" /><path
         d="m 2076.37,1715.68 c -0.11,1.21 -0.16,2.44 -0.16,3.68 0,8.87 2.78,17.11 7.52,23.88 v -0.03 l -7.36,-27.53"
         style="fill:#78a0da;fill-opacity:1;fill-rule:nonzero;stroke:none"
         id="path206" /><path
         d="m 2975.67,405.379 h -258.51 l 42.09,157.59 h 257.94 c 0.18,0 0.37,0 0.55,0.011 l -42.07,-157.601"
         style="fill:#4d79c6;fill-opacity:1;fill-rule:nonzero;stroke:none"
         id="path208" /><path
         d="m 3023.96,586.32 c -1.96,1.239 -4.28,1.961 -6.77,1.961 h -251.21 l 0.01,0.008 33.79,126.602 h 35.23 c 6.99,0 12.66,5.668 12.66,12.66 0,6.988 -5.67,12.66 -12.66,12.66 h -28.49 v 0.019 l 13.56,50.622 h 197.11 c 6.98,0 12.65,5.668 12.65,12.66 0,6.988 -5.67,12.648 -12.65,12.648 h -190.37 l 0.02,0.039 13.47,50.621 h 85.79 c 6.99,0 12.65,5.66 12.65,12.649 0,6.992 -5.66,12.66 -12.65,12.66 h -79.06 l 0.02,0.043 212.64,796.378 c 6.51,8.55 10.38,19.23 10.38,30.81 0,2.24 -0.14,4.45 -0.42,6.61 l 209.43,784.4 V 1983.31 1739.36 1542 L 3023.96,586.289"
         style="fill:#4d79c6;fill-opacity:1;fill-rule:nonzero;stroke:none"
         id="path210" /><path
         d="m 3059.7,1688.55 0.05,0.19 v 0.1 l 9.84,36.8 v 0.08 l 0.07,0.25 c 0.28,-2.16 0.42,-4.37 0.42,-6.61 0,-11.58 -3.87,-22.26 -10.38,-30.81"
         style="fill:#3b67ba;fill-opacity:1;fill-rule:nonzero;stroke:none"
         id="path212" /><path
         d="m 2926.1,866.82 h -85.79 l 0.01,0.032 6.72,25.277 h 79.06 c 6.99,0 12.65,-5.668 12.65,-12.66 0,-6.989 -5.66,-12.649 -12.65,-12.649"
         style="fill:#78a0da;fill-opacity:1;fill-rule:nonzero;stroke:none"
         id="path214" /><path
         d="m 3017.19,790.852 h -197.11 l 0.01,0.027 6.73,25.281 h 190.37 c 6.98,0 12.65,-5.66 12.65,-12.648 0,-6.992 -5.67,-12.66 -12.65,-12.66"
         style="fill:#78a0da;fill-opacity:1;fill-rule:nonzero;stroke:none"
         id="path216" /><path
         d="m 2835.01,714.891 h -35.23 v 0.007 l 6.74,25.313 h 28.49 c 6.99,0 12.66,-5.672 12.66,-12.66 0,-6.992 -5.67,-12.66 -12.66,-12.66"
         style="fill:#78a0da;fill-opacity:1;fill-rule:nonzero;stroke:none"
         id="path218" /><path
         d="m 3017.19,562.969 h -257.94 l 6.73,25.312 h 251.21 c 2.49,0 4.81,-0.722 6.77,-1.961 v -0.031 l -6.2,-23.23 -0.02,-0.079 c -0.18,-0.011 -0.37,-0.011 -0.55,-0.011"
         style="fill:#78a0da;fill-opacity:1;fill-rule:nonzero;stroke:none"
         id="path220" /><path
         d="m 1869.49,416.129 v 0 c -7.11,6.93 -11.39,16.762 -11.39,27.871 v 147.301 l 287.56,1077.189 h 58.11 L 1869.49,416.129 m 361.45,1354.091 h -58.11 l 187.35,701.79 c 5.75,-5.03 12.59,-7.54 20.54,-7.54 8.66,0 16.08,3.01 22.23,9.02 6.15,6.01 9.23,13.42 9.23,22.23 v 101.62 h -18.53 l 185.7,695.58 h 58.11 l -185.7,-695.58 h -21.97 v -82.28 l -198.85,-744.84 m 149.26,714.38 c -3.15,0 -5.84,1.11 -8.08,3.31 -2.24,2.2 -3.36,4.87 -3.36,8.02 v 8.2 l 22.76,85.25 v -93.45 c 0,-3.15 -1.1,-5.82 -3.3,-8.02 -2.2,-2.2 -4.88,-3.31 -8.02,-3.31"
         style="fill:#4d79c6;fill-opacity:1;fill-rule:nonzero;stroke:none"
         id="path222" /><path
         d="m 2203.77,1668.49 h -58.11 l 0.01,0.04 2.45,9.07 h 58.12 l -2.46,-9.07 -0.01,-0.04 m 24.71,92.62 h -58.11 l 2.44,9.07 0.02,0.04 h 58.11 l -0.01,-0.04 -2.45,-9.07"
         style="fill:#3b67ba;fill-opacity:1;fill-rule:nonzero;stroke:none"
         id="path224" /><path
         d="m 2206.24,1677.6 h -58.12 l 0.01,0.03 22.23,83.43 0.01,0.05 h 58.11 l -0.01,-0.05 -22.23,-83.43 v -0.03"
         style="fill:#78a0da;fill-opacity:1;fill-rule:nonzero;stroke:none"
         id="path226" /><path
         d="m 2380.72,2464.47 c -7.95,0 -14.79,2.51 -20.54,7.54 l 8.58,32.12 v -8.2 c 0,-3.15 1.12,-5.82 3.36,-8.02 2.24,-2.2 4.93,-3.31 8.08,-3.31 3.14,0 5.82,1.11 8.02,3.31 2.2,2.2 3.3,4.87 3.3,8.02 v 93.45 l 2.13,7.96 h 18.53 v -101.62 c 0,-8.81 -3.08,-16.22 -9.23,-22.23 -6.15,-6.01 -13.57,-9.02 -22.23,-9.02"
         style="fill:#ffffff;fill-opacity:1;fill-rule:nonzero;stroke:none"
         id="path228" /><path
         d="m 2429.79,2515.06 v 82.28 h 21.97 l -21.97,-82.28"
         style="fill:#ffffff;fill-opacity:1;fill-rule:nonzero;stroke:none"
         id="path230" /><path
         d="m 4030.1,707.492 c -16,26.36 -42.36,3.438 -42.36,3.438 3.76,50.511 -42.71,85.058 -42.71,85.058 0,0 54,0 61.54,51.524 5.69,38.968 -8,34.758 -25.71,30.539 -5.71,-1.36 -11.83,-2.719 -17.86,-2.629 -24.73,0.348 -50.58,-71.902 -17.97,-112.543 32.62,-40.629 23.88,-110 -51.44,-176.707 -18.37,-16.281 -30.87,-37.942 -39.31,-61.383 5.69,61.293 8.89,147.641 -9.14,205.289 -30.63,97.922 27.74,124.281 44.68,173.231 16.95,48.961 -44.68,90.382 -44.68,90.382 0,0 57.87,26.359 29.62,56.489 -28.24,30.12 -86.61,26.02 -86.61,-13.35 0,-39.369 39.54,-54.439 39.54,-54.439 0,0 45.19,-47.071 45.19,-71.551 0,-24.481 -45.19,-77.199 -45.19,-77.199 0,0 20.71,45.121 -20.71,47.039 -41.43,1.922 -54.61,-52.68 -37.66,-77.16 16.94,-24.489 45.19,-3.77 45.19,-3.77 0,0 3.28,-52.719 12.94,-84.73 4.24,-14.079 2.25,-69.309 -1.32,-126.77 -8.34,20.75 -20.14,39.762 -36.68,54.41 -75.31,66.711 -84.05,136.07 -51.44,176.711 32.62,40.629 6.77,112.891 -17.97,112.539 -6.02,-0.09 -12.15,1.27 -17.85,2.629 -17.72,4.211 -31.41,8.43 -25.71,-30.547 7.53,-51.523 61.53,-51.523 61.53,-51.523 0,0 -46.47,-34.547 -42.7,-85.059 0,0 -26.36,22.922 -42.37,-3.43 -28.57,-47.07 37.66,-76.261 48.79,-53.101 0,0 140.45,-99.418 106.56,-242.52 l 7.87,-11.621 c -1.01,-11.547 -1.65,-18.508 -1.65,-18.508 l 10.98,4.731 12.5,-18.449 c -0.65,-35.77 3.19,-62.203 3.19,-62.203 l 33.58,49.562 c -33.89,143.098 106.55,242.527 106.55,242.527 11.13,-23.168 77.37,6.024 48.79,53.094"
         style="fill:#406fbf;fill-opacity:1;fill-rule:nonzero;stroke:none"
         id="path232" /><path
         d="m 3872.13,488.141 h -60.2 c 1.11,8.429 1.63,16.679 1.63,24.75 v 0 0 c 0.02,28.371 -6.35,54.468 -16.06,77.781 -30.93,74.308 -95.77,120.207 -95.77,120.207 -2.67,-5.57 -8.52,-8.109 -15.48,-8.109 -5.69,0 -12.12,1.699 -18.15,4.851 -11.9,6.199 -22.24,18.027 -22.25,33.461 -0.01,6.957 2.09,14.648 7.09,22.898 5.85,9.622 13.07,12.668 19.89,12.668 11.85,0 22.48,-9.238 22.48,-9.238 v 0 0 0 0 0 0 c -0.15,1.981 -0.22,3.918 -0.22,5.852 0.01,47.308 42.92,79.207 42.92,79.207 v 0 0 0 0 0 0 c 0,0 -54,0 -61.53,51.523 -0.9,6.129 -1.31,11.188 -1.31,15.34 0.01,14.047 4.79,17.84 12.06,17.84 4.28,0 9.42,-1.32 14.96,-2.633 5.53,-1.32 11.46,-2.641 17.31,-2.641 0.18,0 0.36,0 0.54,0.012 0.06,0 0.12,0 0.18,0 16.34,0 33.11,-31.57 33.13,-64.672 0,-16.886 -4.35,-34.179 -15.34,-47.867 -11.59,-14.449 -17.96,-32.519 -17.97,-52.82 v 0 0 c -0.02,-36.801 20.87,-80.903 69.41,-123.891 16.54,-14.648 28.34,-33.66 36.68,-54.41 2.14,34.461 3.72,68.109 3.72,92.57 v 0 0 c 0,16.328 -0.7,28.559 -2.4,34.2 -7.56,25.058 -11.22,62.82 -12.45,78.031 -0.34,4.211 -0.49,6.699 -0.49,6.699 0,0 -11.16,-8.191 -23.66,-8.191 -7.38,0 -15.24,2.863 -21.53,11.961 -4.82,6.949 -7.2,16.339 -7.19,26.171 0.01,24.18 14.47,51.039 42.74,51.039 0.69,0 1.4,-0.011 2.11,-0.05 20.71,-0.961 25.89,-12.719 25.89,-24.239 0,-11.519 -5.18,-22.8 -5.18,-22.8 v 0 0 0 0 0 0 c 0,0 45.19,52.718 45.19,77.199 v 0 0 0 0 0 0 c 0,24.48 -45.19,71.551 -45.19,71.551 0,0 -39.54,15.07 -39.54,54.439 0,22.16 18.49,33.15 39.69,33.15 16.47,0 34.57,-6.63 46.92,-19.8 5.54,-5.92 7.77,-11.68 7.77,-17.14 -0.01,-22.32 -37.39,-39.349 -37.39,-39.349 v 0 0 0 0 0 0 c 0,0 47.61,-32 47.63,-72.992 0.01,-5.64 -0.89,-11.461 -2.95,-17.39 -13.52,-39.059 -53.41,-63.727 -53.42,-121.84 v 0 0 c -0.01,-14.731 2.55,-31.598 8.74,-51.391 10.21,-32.648 13.61,-74.508 13.61,-115.816 0,-31.614 -2,-62.903 -4.47,-89.473 v 0 0 0 0 0 0 c 8.44,23.441 20.94,45.102 39.31,61.383 48.54,43 69.43,87.098 69.41,123.898 v 0 0 c -0.01,20.289 -6.37,38.371 -17.97,52.809 -10.99,13.703 -15.34,30.992 -15.33,47.883 0.02,33.097 16.78,64.66 33.12,64.66 0.06,0 0.12,0 0.18,0 0.18,0 0.36,0 0.54,0 5.85,0 11.78,1.308 17.32,2.629 5.53,1.32 10.67,2.64 14.95,2.64 7.27,0 12.06,-3.8 12.07,-17.839 0,-4.161 -0.42,-9.223 -1.31,-15.34 -7.54,-51.524 -61.54,-51.524 -61.54,-51.524 v 0 0 0 0 0 0 c 0,0 42.91,-31.906 42.93,-79.218 0,-1.918 -0.07,-3.872 -0.22,-5.84 v 0 0 0 0 0 0 c 0,0 10.62,9.242 22.48,9.242 6.82,0 14.04,-3.063 19.88,-12.68 5.01,-8.242 7.1,-15.941 7.1,-22.902 -0.02,-23.238 -23.48,-38.309 -40.4,-38.301 -1.65,0 -3.23,0.141 -4.73,0.43 -4.82,0.941 -8.72,3.429 -10.76,7.679 0,0 -8.16,-5.789 -20.08,-16.558 -28.14,-25.449 -77.21,-78.781 -89.1,-149.699"
         style="fill:#2d5bb2;fill-opacity:1;fill-rule:nonzero;stroke:none"
         id="path234" /><path
         d="m 4002.63,97.0586 h -321.71 l -34.7,352.2224 h 391.11 l -34.7,-352.2224"
         style="fill:#406fbf;fill-opacity:1;fill-rule:nonzero;stroke:none"
         id="path236" /><path
         d="m 4002.63,97.0586 h -321.71 l -30.88,313.3634 h 383.46 l -2.64,-26.883 -0.25,-2.5 -27.98,-283.9804"
         style="fill:#6d97d6;fill-opacity:1;fill-rule:nonzero;stroke:none"
         id="path238" /><path
         d="m 3629.04,410.422 h 425.473 v 77.7188 H 3629.04 Z"
         style="fill:#406fbf;fill-opacity:1;fill-rule:nonzero;stroke:none"
         id="path240" /><path
         d="m 4054.51,410.422 h -425.47 v 77.719 h 425.47 v -36.512 -2.5 -38.707"
         style="fill:#90b4e3;fill-opacity:1;fill-rule:nonzero;stroke:none"
         id="path242" /><path
         d="m 1578.88,2477.18 c 37.91,-1.72 196.83,-215.12 196.83,-215.12 l 59.01,76.72 c 0,0 90.99,-176.77 45.99,-260.91 -45,-84.14 -282.2,145.86 -282.2,145.86 l -19.63,253.45"
         style="fill:#406fbf;fill-opacity:1;fill-rule:nonzero;stroke:none"
         id="path244" /><path
         d="m 1814.35,2066.32 c -16.06,5.85 -33.68,15.04 -51.7,26.1 18.03,-11.06 35.64,-20.25 51.7,-26.1"
         style="fill:#ffffff;fill-opacity:1;fill-rule:nonzero;stroke:none"
         id="path246" /><path
         d="m 1879.11,2075.13 c 0.55,0.87 1.09,1.79 1.6,2.74 7.56,14.13 11.28,30.87 12.24,48.95 -0.96,-18.08 -4.68,-34.83 -12.24,-48.96 -0.51,-0.95 -1.05,-1.86 -1.6,-2.73"
         style="fill:#a4c3e9;fill-opacity:1;fill-rule:nonzero;stroke:none"
         id="path248" /><path
         d="m 1762.63,2092.43 c -0.08,0.05 -0.16,0.1 -0.24,0.15 0.08,-0.05 0.16,-0.1 0.24,-0.15 m 13.08,169.63 c 0,0 -21.32,28.63 -50.21,65 h 0.33 c 26.37,-33.19 46.37,-59.94 49.48,-64.4 l 0.4,-0.6 m 0,0 59,76.7 v 0 l -59,-76.7 m -129.36,159.03 c -19.49,21.28 -37.59,39.04 -51.18,48.57 13.59,-9.5 31.7,-27.2 51.2,-48.41 l -0.02,-0.16 m -67.47,56.06 c -0.02,0.01 -0.02,0.01 -0.02,0.01 v 0 c 0,0 0.01,0 0.02,0 v -0.01"
         style="fill:#ffffff;fill-opacity:1;fill-rule:nonzero;stroke:none"
         id="path250" /><path
         d="m 1847.62,2059.36 c -9.87,0 -21.12,2.53 -33.27,6.96 -16.06,5.85 -33.67,15.04 -51.7,26.1 -0.01,0.01 -0.01,0.01 -0.02,0.01 -0.08,0.05 -0.16,0.1 -0.24,0.15 -25.46,15.65 -51.73,35.04 -75.58,54.08 3.24,68.92 -40.02,159.54 -67.16,209.12 6.43,27.59 8.82,68.68 3.24,68.68 -0.05,0 -0.09,0 -0.14,-0.01 -2.49,-0.29 -13.61,-3.97 -27.89,-9.11 -5.15,47.14 -12.16,58.36 -14.85,60.99 -0.63,0.63 -1.04,0.79 -1.13,0.82 v 0.01 c 4.12,-0.19 9.67,-2.87 16.29,-7.5 13.59,-9.53 31.69,-27.29 51.18,-48.57 l -9.6,-84.84 c -0.57,-5.08 3.12,-9.19 8.26,-9.19 h 8.8 v 0 h 71.69 c 28.89,-36.37 50.21,-65 50.21,-65 v 0 l 59,76.7 c 0.13,-0.25 62.98,-122.47 58.24,-211.94 -0.96,-18.08 -4.68,-34.82 -12.24,-48.95 -0.51,-0.95 -1.05,-1.87 -1.6,-2.74 -7.08,-11.05 -17.99,-15.77 -31.49,-15.77 m -55.66,90.2 v 0 0 l -24.74,96.25 8.49,16.25 -8.49,10.42 c -43.48,-60.84 24.74,-122.92 24.74,-122.92"
         style="fill:#a4c3e9;fill-opacity:1;fill-rule:nonzero;stroke:none"
         id="path252" /><path
         d="m 1686.81,2146.66 v 0 c -49.3,39.3 -88.3,77.1 -88.3,77.1 l -0.74,15.43 c 0.62,32.05 0.87,60.76 0.74,85.65 5.69,3.09 10.1,5.98 12.37,8.44 3.36,3.64 6.35,12.11 8.77,22.5 27.14,-49.58 70.4,-140.2 67.16,-209.12"
         style="fill:#7f9bcf;fill-opacity:1;fill-rule:nonzero;stroke:none"
         id="path254" /><path
         d="m 1791.96,2149.56 c 0,0 -68.22,62.08 -24.74,122.92 l 8.49,-10.42 -8.49,-16.25 24.74,-96.25"
         style="fill:#7f9bcf;fill-opacity:1;fill-rule:nonzero;stroke:none"
         id="path256" /><path
         d="m 1585.71,1943.6 -320,-24.71 c 0,0 -4.35,191.17 -29.86,290.67 -8.3,32.2 -18.7,68.4 -31.89,110.4 -5.61,17.8 -11.71,36.6 -18.41,56.7 -6.09,18.7 -12.8,38.6 -20.1,59.5 43.8,14 88.41,24.7 133.8,32.3 47.8,8.5 96.2,13.6 144.8,15.3 62.7,0.5 134.81,-6.6 134.81,-6.6 0,0 10.19,-2.5 16.69,-68.9 5.9,-62.5 3.16,-237.56 -9.84,-464.66"
         style="fill:#406fbf;fill-opacity:1;fill-rule:nonzero;stroke:none"
         id="path258" /><path
         d="m 1265.7,1918.92 c 0,0 -0.07,2.66 -0.21,7.61 0.15,-4.64 0.21,-7.31 0.22,-7.61 h -0.01"
         style="fill:#f6f6f4;fill-opacity:1;fill-rule:nonzero;stroke:none"
         id="path260" /><path
         d="m 1592.32,2073.76 c 2.62,59.66 4.38,113.83 5.34,160.96 l 0.01,-0.2 c -0.96,-47.08 -2.73,-101.18 -5.35,-160.76"
         style="fill:#ffffff;fill-opacity:1;fill-rule:nonzero;stroke:none"
         id="path262" /><path
         d="m 1597.67,2234.52 -0.01,0.2 c 0.03,1.6 0.06,3.19 0.09,4.77 l 0.02,-0.3 c -0.03,-1.55 -0.06,-3.11 -0.1,-4.67"
         style="fill:#a4c3e9;fill-opacity:1;fill-rule:nonzero;stroke:none"
         id="path264" /><path
         d="m 1594.82,2415.32 c -5.13,46.93 -12.09,58.3 -14.81,61.01 2.69,-2.63 9.7,-13.85 14.85,-60.99 -0.01,-0.01 -0.03,-0.01 -0.04,-0.02"
         style="fill:#d9e7f7;fill-opacity:1;fill-rule:nonzero;stroke:none"
         id="path266" /><path
         d="m 1597.77,2239.19 -0.02,0.3 c 0.62,31.92 0.86,60.52 0.73,85.33 0.01,0 0.02,0.01 0.03,0.02 0.13,-24.89 -0.12,-53.6 -0.74,-85.65"
         style="fill:#c8d5e9;fill-opacity:1;fill-rule:nonzero;stroke:none"
         id="path268" /><path
         d="m 1265.71,1918.92 c -0.01,0.3 -0.07,2.97 -0.22,7.61 -0.02,1.03 -0.06,2.16 -0.09,3.38 113.8,65.11 202,266 202,266 l -23.29,23.74 78.42,73.85 c 0,0 50.62,17.58 75.95,31.32 0.13,-24.81 -0.11,-53.41 -0.73,-85.33 v 0 c -0.03,-1.58 -0.06,-3.17 -0.09,-4.77 -0.96,-47.13 -2.72,-101.3 -5.34,-160.96 -1.8,-40.95 -4,-84.49 -6.62,-130.15 l -320,-24.69 m -3,269.1 c 10.6,64.6 -13.4,139 -13.4,139 l -0.01,-0.01 c -3.02,12.8 -9.76,28.34 -23.24,46.07 -38.47,50.59 -59.2,62.32 -60.53,63.04 43.79,14 88.39,24.7 133.78,32.29 9.29,1.66 18.61,3.18 27.94,4.58 -3.44,-5.75 -7.78,-11.24 -13.19,-16.33 0,0 23.9,-34 103.41,-44.2 0,0 39.39,26 22.59,57.4 0,0 -9.42,0.23 -16.8,12.92 6.95,0.38 13.9,0.69 20.85,0.94 2.12,0.01 4.26,0.02 6.41,0.02 61.09,0 128.39,-6.63 128.39,-6.63 0,0 0.41,-0.09 1.11,-0.78 2.72,-2.71 9.68,-14.08 14.81,-61.01 -31.06,-11.2 -77.01,-29.34 -81.52,-34.76 -6.6,-7.91 -22.99,-53.5 -22.99,-53.5 l -85.64,-67.19 -9.27,9.45 -0.04,0.04 c 0,0 -0.11,-0.09 -0.33,-0.27 l -132.33,-81.07"
         style="fill:#a4c3e9;fill-opacity:1;fill-rule:nonzero;stroke:none"
         id="path270" /><path
         d="m 1184.01,324.66 48.3,-28.398 c 0,0 23.4,33.297 73.4,87 v 0.097 c 14,14.813 28.7,31.2 44,48.801 30.6,35.102 63.7,75.199 98.4,118.301 10.2,12.711 20.6,25.699 31.1,38.898 120.9,152.102 251.6,330.903 300.5,451.801 15.2,37.6 22.6,69.51 19.3,93.4 -9.9,72.2 -38,180.9 -70.1,285.9 -48.8,160.5 -103.7,312.6 -103.7,312.6 l -134.9,-228.5 c 0,0 41.4,-98.7 79.1,-203.8 37.1,-103.2 70.6,-212.7 58.2,-241.2 -1.2,-2.8 -2.7,-6.1 -4.4,-9.6 -22.4,-46.4 -84.4,-151.499 -154.8,-267.601 -7.1,-11.687 -14.3,-23.5 -21.5,-35.3 -37.8,-62 -77.1,-125.7 -113.5,-184.2 -14.2,-23 -28,-45.199 -41.1,-66.199 -62,-99.699 -108.3,-172 -108.3,-172"
         style="fill:#f9acaf;fill-opacity:1;fill-rule:nonzero;stroke:none"
         id="path272" /><path
         d="m 1311.25,383.359 c -0.32,1.61 -0.64,3.243 -0.96,4.879 12.61,13.5 25.78,28.231 39.42,43.922 v 0 c 0.15,-1.07 0.29,-2.148 0.44,-3.211 -13.88,-16.41 -26.93,-31.679 -38.9,-45.59"
         style="fill:#c3c5c2;fill-opacity:1;fill-rule:nonzero;stroke:none"
         id="path274" /><path
         d="m 1310.29,388.238 c -6.19,31.543 -12.39,68.403 -17.34,108.422 12.9,20.711 26.51,42.602 40.56,65.281 5.07,-45.472 10.54,-89.16 16.2,-129.781 -13.64,-15.691 -26.81,-30.422 -39.42,-43.922"
         style="fill:#c3888a;fill-opacity:1;fill-rule:nonzero;stroke:none"
         id="path276" /><path
         d="m 1448.13,547.219 -0.02,3.242 v 0 c 10.2,12.711 20.6,25.699 31.1,38.898 0.75,0.942 1.5,1.883 2.25,2.832 0.16,-0.949 0.33,-1.89 0.5,-2.832 -11.38,-14.308 -22.69,-28.379 -33.83,-42.14"
         style="fill:#c3c5c2;fill-opacity:1;fill-rule:nonzero;stroke:none"
         id="path278" /><path
         d="m 1448.11,550.461 -1.2,195.949 c 7.35,12.07 14.64,24.07 21.84,35.949 -0.49,-50.468 1.35,-124.75 12.71,-190.168 -0.75,-0.949 -1.5,-1.89 -2.25,-2.832 -10.5,-13.199 -20.9,-26.187 -31.1,-38.898 v 0"
         style="fill:#c3888a;fill-opacity:1;fill-rule:nonzero;stroke:none"
         id="path280" /><path
         d="m 1241.21,1250.56 c 16.7,-113.9 40.5,-217.1 56,-278.599 9.3,-36.902 15.6,-58.699 15.6,-58.699 -0.9,-114.903 8.3,-238 20.6,-350.403 5.1,-45.8 10.6,-89.8 16.3,-130.699 21,-151.398 43.1,-260.101 43.1,-260.101 l 57.5,7.5 -2.2,370.902 -1.2,196.598 -1.6,267.501 -0.6,46.6 -2.8,203.4 -4.1,300 -200,90 c -26.8,-114 -16.8,-266.8 3.4,-404"
         style="fill:#f9acaf;fill-opacity:1;fill-rule:nonzero;stroke:none"
         id="path282" /><path
         d="m 1556.1,1337.22 c -4.11,11.08 -8.2,21.97 -12.22,32.53 v 0 c 4.02,-10.56 8.12,-21.45 12.22,-32.53 v 0"
         style="fill:#c3c5c2;fill-opacity:1;fill-rule:nonzero;stroke:none"
         id="path284" /><path
         d="m 1556.1,1337.22 c -4.1,11.08 -8.2,21.97 -12.22,32.53 l 180.87,64.26 c 1.38,-4.51 2.77,-9.05 4.15,-13.59 0.4,-1.41 0.8,-2.7 1.2,-4.1 l -174,-79.1"
         style="fill:#c3888a;fill-opacity:1;fill-rule:nonzero;stroke:none"
         id="path286" /><path
         d="m 1235.1,1295.92 c -1.72,13.52 -3.31,27.14 -4.75,40.8 h 210.57 l 0.38,-27.5 -206.2,-13.3"
         style="fill:#c3888a;fill-opacity:1;fill-rule:nonzero;stroke:none"
         id="path288" /><path
         d="m 1188.44,356.199 c 5.9,4.289 55.69,-70.308 55.69,-70.308 0,0 -11.09,-77.75 11.38,-127.911 22.46,-50.148 -21.19,-45.871 -57.48,1.641 -36.28,47.508 -63.98,83.77 -89.76,117.527 -25.78,33.75 19.09,34.622 80.17,79.051"
         style="fill:#17282f;fill-opacity:1;fill-rule:nonzero;stroke:none"
         id="path290" /><path
         d="m 1249.08,270.5 c 12.04,-7.48 25.32,-13.441 28.68,-11.16 1.03,0.699 0.72,3.019 0.43,4.34 -0.6,2.82 -2.08,4.879 -4.52,6.3 -2.92,1.692 -6.8,2.282 -10.79,2.282 -4.99,0 -10.15,-0.922 -13.8,-1.762 z m 13,-36.32 c 0.47,-0.098 1.87,-0.45 4.12,2.41 0.84,1.058 1.14,2.351 0.93,3.941 -0.97,7.367 -12.11,18.18 -19.97,24.789 3.58,-13.851 9.62,-29.89 14.92,-31.14 z m -1.07,-4.59 c -11.31,2.66 -18.65,34.89 -20.01,41.332 l -0.01,0.937 0.01,0.012 0.26,0.707 v 0 l 0.49,0.602 v 0 l 0.01,0.011 h 0.01 l 0.01,0.008 0.81,0.461 c 1.04,0.32 22.08,6.981 33.45,0.399 3.61,-2.09 5.89,-5.239 6.77,-9.379 0.94,-4.43 0.13,-7.532 -2.41,-9.25 -3.91,-2.641 -11.52,-0.43 -19.02,2.992 5.17,-5.57 9.71,-11.863 10.43,-17.293 0.38,-2.879 -0.26,-5.399 -1.91,-7.457 -2.64,-3.352 -5.24,-4.274 -7.29,-4.274 l -1.6,0.192"
         style="fill:#406fbf;fill-opacity:1;fill-rule:nonzero;stroke:none"
         id="path292" /><path
         d="m 1372.46,208.762 c 0.17,7.289 89.67,1.57 89.67,1.57 0,0 55.07,-56 108.56,-68.594 53.49,-12.59 23.6,-44.6794 -36.19,-44.6794 -59.78,0 -105.4,0 -147.88,0 -42.48,0 -15.93,36.1794 -14.16,111.7034"
         style="fill:#17282f;fill-opacity:1;fill-rule:nonzero;stroke:none"
         id="path294" /><path
         d="m 1492.71,224.16 c -7.01,-2.91 -12.54,-13.101 -15.34,-19.238 13.25,5.039 26.04,11.988 26.28,16.019 0.07,1.25 -1.97,2.411 -3.2,2.989 -1.38,0.66 -2.75,0.992 -4.11,0.992 -1.21,0 -2.41,-0.262 -3.63,-0.762 z m -12.39,-23.898 c 13.19,-5.582 29.58,-10.512 33.81,-7.051 0.36,0.32 1.48,1.219 0.59,4.738 -0.34,1.313 -1.18,2.321 -2.57,3.121 -2.47,1.43 -6.26,1.969 -10.55,1.969 -6.89,0 -15.1,-1.398 -21.28,-2.777 z m -8.19,-1.492 -0.75,0.562 v 0.008 l -0.41,0.64 -0.01,0.012 -0.17,0.727 v 0.011 0.008 l 0.13,0.961 c 0.39,1.063 7.9,21.789 19.98,26.821 3.85,1.601 7.75,1.472 11.58,-0.321 4.07,-1.937 6.06,-4.457 5.88,-7.527 -0.27,-4.703 -6.65,-9.422 -13.92,-13.313 7.55,0.731 15.32,0.532 20.07,-2.187 2.52,-1.453 4.13,-3.492 4.78,-6.063 1.34,-5.3 -0.44,-8.109 -2.17,-9.539 -1.86,-1.519 -4.63,-2.148 -7.9,-2.148 -12.5,0 -32.38,9.098 -37.09,11.348"
         style="fill:#406fbf;fill-opacity:1;fill-rule:nonzero;stroke:none"
         id="path296" /><path
         d="m 1417.46,2412.46 c -79.51,10.2 -103.41,44.2 -103.41,44.2 32.5,30.6 26.6,75.8 18.3,104 -4.5,15.6 -9.8,26 -9.8,26 l 95.7,-17.9 c -2.5,-15.8 -3.6,-29.1 -3.7,-40.3 -0.2,-12.3 0.9,-22 2.7,-29.6 6.5,-28.6 22.8,-29 22.8,-29 16.8,-31.4 -22.59,-57.4 -22.59,-57.4"
         style="fill:#f9acaf;fill-opacity:1;fill-rule:nonzero;stroke:none"
         id="path298" /><path
         d="m 1417.25,2498.86 c -38,5 -66.8,35.4 -84.9,61.8 v 0 c -4.5,15.6 -9.8,26 -9.8,26 l 95.7,-17.9 c -2.5,-15.8 -3.6,-29.1 -3.7,-40.3 -0.01,-0.96 -0.02,-1.91 -0.02,-2.84 0,-10.96 1.06,-19.75 2.72,-26.76"
         style="fill:#c3888a;fill-opacity:1;fill-rule:nonzero;stroke:none"
         id="path300" /><path
         d="m 1332.18,2889.57 c -135.37,-10.88 -215.12,-362.94 -23.61,-329.34 56.38,9.89 290.37,189.1 200.65,257.19 -89.71,68.08 -177.04,72.15 -177.04,72.15"
         style="fill:#17282f;fill-opacity:1;fill-rule:nonzero;stroke:none"
         id="path302" /><path
         d="m 1431.25,2823 c 82.42,-11.91 102.58,-59.87 96.35,-145.68 -7.79,-107.23 -42.21,-179.24 -141.99,-141.69 -135.52,51.01 -91.23,307.14 45.64,287.37"
         style="fill:#f9acaf;fill-opacity:1;fill-rule:nonzero;stroke:none"
         id="path304" /><path
         d="m 1474.99,2689.62 c 0,0 8.31,-23.17 19.04,-37.64 0,0 -8.67,-10.19 -23.07,-6.18 l 4.03,43.82"
         style="fill:#f06b74;fill-opacity:1;fill-rule:nonzero;stroke:none"
         id="path306" /><path
         d="m 1425.51,2703.65 c -0.82,-6.79 -5.15,-11.85 -9.68,-11.31 -4.53,0.55 -7.54,6.5 -6.72,13.29 0.82,6.79 5.15,11.86 9.68,11.31 4.53,-0.54 7.54,-6.49 6.72,-13.29"
         style="fill:#17282f;fill-opacity:1;fill-rule:nonzero;stroke:none"
         id="path308" /><path
         d="m 1416.87,2716.84 15.47,4.02 c 0,0 -8.86,-11.55 -15.47,-4.02"
         style="fill:#17282f;fill-opacity:1;fill-rule:nonzero;stroke:none"
         id="path310" /><path
         d="m 1510.13,2694.88 c -0.82,-6.79 -5.15,-11.86 -9.68,-11.31 -4.53,0.54 -7.54,6.49 -6.72,13.29 0.82,6.79 5.16,11.86 9.68,11.31 4.53,-0.55 7.54,-6.5 6.72,-13.29"
         style="fill:#17282f;fill-opacity:1;fill-rule:nonzero;stroke:none"
         id="path312" /><path
         d="m 1501.48,2708.07 15.48,4.01 c 0,0 -8.85,-11.55 -15.48,-4.01"
         style="fill:#17282f;fill-opacity:1;fill-rule:nonzero;stroke:none"
         id="path314" /><path
         d="m 1433.85,2764.1 c -0.2,0.05 -5.75,1.6 -13.36,1.61 -8.15,0 -18.91,-1.8 -27.53,-9.72 -1.44,-1.32 -1.53,-3.56 -0.21,-5 1.33,-1.44 3.57,-1.53 5.01,-0.2 6.72,6.22 15.55,7.84 22.73,7.84 3.32,0 6.24,-0.35 8.29,-0.69 1.03,-0.17 1.85,-0.35 2.4,-0.47 l 0.77,-0.19 c 1.88,-0.53 3.83,0.57 4.36,2.45 0.53,1.89 -0.57,3.84 -2.46,4.37"
         style="fill:#17282f;fill-opacity:1;fill-rule:nonzero;stroke:none"
         id="path316" /><path
         d="m 1494.06,2752.06 -0.11,0.48 0.1,-0.49 0.01,0.01 -0.11,0.48 0.1,-0.49 c 0.12,0.03 1.28,0.24 3.2,0.24 4.97,-0.02 14.83,-1.33 25.57,-10.93 1.46,-1.3 3.7,-1.18 5,0.28 1.31,1.45 1.18,3.69 -0.27,5 -12.16,10.9 -24.05,12.75 -30.3,12.73 -2.78,0 -4.47,-0.35 -4.68,-0.39 -1.91,-0.41 -3.13,-2.29 -2.72,-4.2 0.41,-1.92 2.3,-3.13 4.21,-2.72"
         style="fill:#17282f;fill-opacity:1;fill-rule:nonzero;stroke:none"
         id="path318" /><path
         d="m 1321.11,2697.09 c 0,0 48.32,62.16 50.03,115.27 0,0 172.97,43.14 157.08,-123.81 0,0 37.22,144.91 -103.99,168.65 -140.98,23.71 -170.54,-183.63 -106.29,-255.95 0,0 -26.79,56.93 3.17,95.84"
         style="fill:#17282f;fill-opacity:1;fill-rule:nonzero;stroke:none"
         id="path320" /><path
         d="m 1332.06,2677.75 c 1.37,13.35 -9.09,37.79 -34.15,38.66 -25.95,0.91 -45.69,-49.77 16.02,-71.56 8.85,-3.12 15.28,5.04 18.13,32.9"
         style="fill:#f9acaf;fill-opacity:1;fill-rule:nonzero;stroke:none"
         id="path322" /><path
         d="m 1453.17,2606.25 -0.44,-0.02 -1.46,-0.03 c -3.65,-0.01 -11.94,0.51 -20.03,4.22 -8.11,3.76 -16.02,10.37 -19.96,23.33 -0.57,1.87 -2.54,2.93 -4.41,2.37 -1.88,-0.56 -2.94,-2.54 -2.37,-4.41 4.47,-15.01 14.3,-23.44 23.8,-27.73 9.51,-4.33 18.7,-4.85 22.97,-4.86 1.5,0 2.39,0.07 2.47,0.08 1.95,0.16 3.4,1.86 3.25,3.81 -0.16,1.95 -1.87,3.4 -3.82,3.24"
         style="fill:#17282f;fill-opacity:1;fill-rule:nonzero;stroke:none"
         id="path324" /><path
         d="m 1332.18,2889.57 c 0,0 120.83,15.82 196.47,-57.36 75.64,-73.19 -146.67,-61.32 -146.67,-61.32 l 56.28,25.72 c 0,0 -70.47,-20.04 -101.01,-9.9 l -5.07,102.86"
         style="fill:#17282f;fill-opacity:1;fill-rule:nonzero;stroke:none"
         id="path326" /><path
         d="m 1242.31,2674.82 c 0,0 -36.6,-64.15 0,-119.54 0,0 -28.56,-60.32 30.72,-102.85 0,0 -10.85,-33.63 41.02,-74.18 0,0 16.28,-52.98 3.42,-90.77 l 37.58,18.58 c 0,0 -0.26,47.47 -22.87,75.16 0,0 12.08,75.25 -18.13,99.93 0,0 13.59,47.43 8.5,68.2 0,0 -15.04,89.43 -17.48,99.11 0,0 -50.9,6.45 -62.76,26.36"
         style="fill:#17282f;fill-opacity:1;fill-rule:nonzero;stroke:none"
         id="path328" /><path
         d="m 1515.78,2835.01 1.32,-0.76 c 3,-1.81 10.65,-6.76 17.43,-13.78 6.81,-7.04 12.59,-16.05 12.56,-25.86 0,-1.76 -0.18,-3.56 -0.58,-5.41 -1.12,-5.63 -7.08,-10.88 -16.07,-15.12 -13.4,-6.37 -32.78,-10.4 -48.7,-12.74 -7.97,-1.18 -15.09,-1.95 -20.21,-2.42 -5.12,-0.48 -8.21,-0.65 -8.21,-0.65 -1.35,-0.08 -2.38,-1.24 -2.3,-2.59 0.08,-1.34 1.23,-2.37 2.58,-2.29 0.06,0 22.52,1.3 45.85,6.09 11.67,2.41 23.56,5.67 33.08,10.19 9.46,4.52 16.92,10.29 18.76,18.51 0.47,2.18 0.68,4.33 0.68,6.43 -0.04,13.48 -8.72,24.56 -17.06,32.32 -8.39,7.77 -16.67,12.3 -16.78,12.37 -1.18,0.65 -2.66,0.21 -3.31,-0.97 -0.65,-1.19 -0.22,-2.67 0.96,-3.32"
         style="fill:#17282f;fill-opacity:1;fill-rule:nonzero;stroke:none"
         id="path330" /><path
         d="m 1636.75,2336.25 c -0.57,-5.08 3.12,-9.19 8.26,-9.19 h 91.4 c 5.13,0 9.77,4.11 10.34,9.19 l 20.41,180.38 c 0.58,5.07 -3.12,10.43 -8.25,10.43 h -91.4 c -5.14,0 -9.77,-5.36 -10.35,-10.43 l -20.41,-180.38"
         style="fill:#17282f;fill-opacity:1;fill-rule:nonzero;stroke:none"
         id="path332" /><path
         d="m 1745.56,2332.57 c 0.63,1.13 1.04,2.37 1.19,3.68 l 20.41,180.38 c 0.14,1.21 0.03,2.44 -0.28,3.61 0.36,-0.77 0.51,-1.59 0.42,-2.43 l -20.68,-182.75 c -0.1,-0.9 -0.48,-1.73 -1.06,-2.49"
         style="fill:#ffffff;fill-opacity:1;fill-rule:nonzero;stroke:none"
         id="path334" /><path
         d="m 1731.31,2327.06 h -77.5 c -5.1,0 -7.77,3.49 -7.19,8.62 l 20.68,182.13 c 0.58,5.14 3.91,9.25 9.01,9.25 h 77.5 c 4.35,0 11.26,-2.88 13.07,-6.82 0.31,-1.17 0.42,-2.4 0.28,-3.61 l -20.41,-180.38 c -0.15,-1.31 -0.56,-2.55 -1.19,-3.68 -2.73,-3.56 -9.96,-5.51 -14.25,-5.51"
         style="fill:#849193;fill-opacity:1;fill-rule:nonzero;stroke:none"
         id="path336" /><path
         d="m 1828.21,2321.23 -47.64,80.83 c 0,0 0.14,42.5 -4.03,52.5 -4.16,10 -50.83,32.57 -60,29.2 -9.16,-3.37 -12.5,-86.74 -4.16,-97.97 8.33,-11.23 37.5,-23.73 37.5,-23.73 l -1.99,-15.83 27.82,-84.17 52.5,59.17"
         style="fill:#f9acaf;fill-opacity:1;fill-rule:nonzero;stroke:none"
         id="path338" /><path
         d="m 1847.38,2330.39 -15.84,15.84 -75,-84.17 10.68,-33.33 80.16,101.66"
         style="fill:#406fbf;fill-opacity:1;fill-rule:nonzero;stroke:none"
         id="path340" /><path
         d="m 1754.3,1444.51 -245.7,-87.29 -8.2,22.5 -10.1,27.69 -4.2,-40 -3.2,-30.69 h -298.3 c 0,0 -0.9,8.59 -1.8,23.99 -2.9,48 -6.6,162.41 12,293.8 11.2,79.41 30.6,165.11 63.2,246.01 2.5,6.2 5.1,12.29 7.7,18.4 l 320,24.69 2.7,-15.4 20.1,-114.9 38.2,-96.59 94.3,-238.51 13.3,-33.7"
         style="fill:#17282f;fill-opacity:1;fill-rule:nonzero;stroke:none"
         id="path342" /><path
         d="m 1264.49,1953.7 c -0.4,9.22 -0.91,19.95 -1.56,31.77 h 0.01 c 0.65,-11.82 1.15,-22.54 1.55,-31.77"
         style="fill:#bcbebc;fill-opacity:1;fill-rule:nonzero;stroke:none"
         id="path344" /><path
         d="m 1265.4,1929.91 v 0 c -0.2,5.9 -0.49,14 -0.91,23.79 -0.4,9.23 -0.9,19.95 -1.55,31.77 96.44,45.9 196.52,215.86 196.52,215.86 v 0 0 l -16.36,17.37 1.01,0.95 23.29,-23.74 c 0,0 -88.2,-200.89 -202,-266"
         style="fill:#7f9bcf;fill-opacity:1;fill-rule:nonzero;stroke:none"
         id="path346" /><path
         d="m 1247.49,2166.47 c -1.13,0 -2.06,0.22 -2.77,0.66 -2.03,11.87 -4.26,23.2 -6.69,33.67 0.36,35.81 8.89,86.68 8.89,86.68 0,0 4.49,7.9 4.49,22.06 0,5.05 -0.57,10.9 -2.12,17.47 l 0.01,0.01 c 0,0 24,-74.4 13.4,-139 l 132.33,81.07 c -6.93,-5.78 -123.31,-102.62 -147.54,-102.62 m 156.97,93.23 -9.06,9.62 v 0 l 9.27,-9.45 -0.21,-0.17"
         style="fill:#7f9bcf;fill-opacity:1;fill-rule:nonzero;stroke:none"
         id="path348" /><path
         d="m 1382.02,2242.1 108.29,84.96 c 0,0 16.39,45.59 22.99,53.5 6.59,7.91 101.53,42.96 109.45,43.89 7.91,0.95 0.48,-77.78 -11.87,-91.17 -12.35,-13.39 -88.35,-39.78 -88.35,-39.78 l -113.39,-106.79 -27.12,55.39"
         style="fill:#f9acaf;fill-opacity:1;fill-rule:nonzero;stroke:none"
         id="path350" /><path
         d="m 1165.45,2436.16 c -63.58,-31.86 -91.87,-391.02 18.56,-453.04 110.43,-62.02 275.45,218.21 275.45,218.21 l -64.1,68.03 c 0,0 -134.44,-112.55 -150.67,-102.22 -16.23,10.35 2.23,120.34 2.23,120.34 0,0 18.91,33.28 -20.87,85.6 -39.78,52.32 -60.6,63.08 -60.6,63.08"
         style="fill:#406fbf;fill-opacity:1;fill-rule:nonzero;stroke:none"
         id="path352" /><path
         d="m 1218.42,1974.16 c -11.86,0 -23.41,2.78 -34.41,8.96 -53.71,30.16 -74.6,130.6 -74.58,229.49 0.01,104.46 23.36,207.18 56.02,223.55 0,0 20.82,-10.76 60.6,-63.08 20.39,-26.82 25.36,-48.64 25.36,-63.54 0,-14.16 -4.49,-22.06 -4.49,-22.06 0,0 -8.53,-50.87 -8.89,-86.68 v 0 c 0,-0.05 0,-0.09 0,-0.14 -0.01,-0.7 -0.01,-1.4 -0.01,-2.09 -0.01,-15.79 1.71,-28.26 6.67,-31.43 0.71,-0.45 1.65,-0.67 2.8,-0.67 24.98,0 147.87,102.89 147.87,102.89 l 64.1,-68.03 c 0,0 -100.08,-169.96 -196.52,-215.86 h -0.01 c -15.05,-7.16 -30.02,-11.31 -44.51,-11.31"
         style="fill:#a4c3e9;fill-opacity:1;fill-rule:nonzero;stroke:none"
         id="path354" /><path
         d="m 1460.71,2176.4 19.19,11.53 -72.01,105.57 -26.45,-14.74 79.27,-102.36"
         style="fill:#406fbf;fill-opacity:1;fill-rule:nonzero;stroke:none"
         id="path356" /><path
         d="m 1194.8,1654.51 c 11.2,79.41 30.6,165.11 63.2,246.01 l 0.26,-0.04 -6.04,-14.89 83.68,4.2 c -0.51,-2.75 -37.03,-200.62 -141.1,-235.28"
         style="fill:#111d23;fill-opacity:1;fill-rule:nonzero;stroke:none"
         id="path358" /><path
         d="m 1646.7,1716.72 c -66.84,32.58 -79.54,141.57 -81.95,184.56 l 28.12,1.41 -4.47,25.52 v 0 l 20.1,-114.9 38.2,-96.59"
         style="fill:#111d23;fill-opacity:1;fill-rule:nonzero;stroke:none"
         id="path360" /><path
         d="m 1482.9,1336.72 h -298.3 c 0,0 -0.9,8.59 -1.8,23.99 l 303.3,6.7 -3.2,-30.69"
         style="fill:#111d23;fill-opacity:1;fill-rule:nonzero;stroke:none"
         id="path362" /><path
         d="m 1508.6,1357.22 -8.2,22.5 240.6,98.49 13.3,-33.7 -29.55,-10.5 -180.87,-64.26 v 0 l -35.28,-12.53"
         style="fill:#111d23;fill-opacity:1;fill-rule:nonzero;stroke:none"
         id="path364" /><path
         d="m 1490.31,1407.37 v 0.01 -0.01 0"
         style="fill:#c3c5c2;fill-opacity:1;fill-rule:nonzero;stroke:none"
         id="path366" /><path
         d="m 1490.31,1407.37 v 0.01 l 6.38,81.75 67.53,132.53 c 0,0 21.27,-76.46 -12.35,-144.55 -33.39,-67.61 -61.17,-69.71 -61.56,-69.74"
         style="fill:#111d23;fill-opacity:1;fill-rule:nonzero;stroke:none"
         id="path368" /><path
         d="m 1587.32,1934.39 -1.62,9.21 h 0.01 l 1.61,-9.21"
         style="fill:#6f7475;fill-opacity:1;fill-rule:nonzero;stroke:none"
         id="path370" /><path
         d="m 1335.9,1889.79 c 0,0.02 0,0.03 0,0.03 l -77.64,10.66 7.45,18.41 320,24.71 1.61,-9.21 1.08,-6.18 -24.2,-9.29 c 0,0 -0.06,-6.67 0.55,-17.64 l -228.85,-11.49"
         style="fill:#0a1013;fill-opacity:1;fill-rule:nonzero;stroke:none"
         id="path372" /><path
         d="m 1252.22,1885.59 6.04,14.89 77.64,-10.66 c 0,0 0,-0.01 0,-0.03 l -83.68,-4.2"
         style="fill:#0a0d0e;fill-opacity:1;fill-rule:nonzero;stroke:none"
         id="path374" /><path
         d="m 1564.75,1901.28 c -0.61,10.97 -0.55,17.64 -0.55,17.64 l 24.2,9.29 4.47,-25.52 -28.12,-1.41"
         style="fill:#0a0d0e;fill-opacity:1;fill-rule:nonzero;stroke:none"
         id="path376" /><path
         d="m 1445.54,1931.27 3.99,-37.41 c 0.43,-4.09 4.05,-7.1 8.17,-6.78 l 49.87,3.97 c 4.24,0.34 7.38,4.08 6.97,8.31 l -3.51,36.87 c -0.39,4.1 -3.98,7.15 -8.09,6.87 l -50.35,-3.43 c -4.3,-0.29 -7.5,-4.1 -7.05,-8.4"
         style="fill:#406fbf;fill-opacity:1;fill-rule:nonzero;stroke:none"
         id="path378" /><path
         d="m 1361.98,1926.77 -3.96,-44.02 h -12.36 l 1.98,44.02 h 14.34"
         style="fill:#17282f;fill-opacity:1;fill-rule:nonzero;stroke:none"
         id="path380" /><path
         d="m 1541.48,1940.19 4.95,-46.06 h 11.37 l -3.95,47.97 -12.37,-1.91"
         style="fill:#17282f;fill-opacity:1;fill-rule:nonzero;stroke:none"
         id="path382" /></g></g></svg>
