<?xml version="1.0" encoding="UTF-8" standalone="no"?>
<!-- Created with Inkscape (http://www.inkscape.org/) -->

<svg
   version="1.1"
   id="svg2"
   xml:space="preserve"
   width="666.66669"
   height="496.81332"
   viewBox="0 0 666.66669 496.81332"
   sodipodi:docname="7768658_3763036.eps"
   xmlns:inkscape="http://www.inkscape.org/namespaces/inkscape"
   xmlns:sodipodi="http://sodipodi.sourceforge.net/DTD/sodipodi-0.dtd"
   xmlns="http://www.w3.org/2000/svg"
   xmlns:svg="http://www.w3.org/2000/svg"><defs
     id="defs6" /><sodipodi:namedview
     id="namedview4"
     pagecolor="#ffffff"
     bordercolor="#666666"
     borderopacity="1.0"
     inkscape:pageshadow="2"
     inkscape:pageopacity="0.0"
     inkscape:pagecheckerboard="0" /><g
     id="g8"
     inkscape:groupmode="layer"
     inkscape:label="ink_ext_XXXXXX"
     transform="matrix(1.3333333,0,0,-1.3333333,0,496.81333)"><g
       id="g10"
       transform="scale(0.1)"><path
         d="m 0,449.129 h 5000 v 2.5 H 0 Z"
         style="fill:#e7e8e5;fill-opacity:1;fill-rule:nonzero;stroke:none"
         id="path12" /><path
         d="M 736.668,353.898 H 524.59 v 2.5 h 212.078 v -2.5"
         style="fill:#e7e8e5;fill-opacity:1;fill-rule:nonzero;stroke:none"
         id="path14" /><path
         d="M 2561.11,381.039 H 1711.4 v 2.5 h 849.71 v -2.5"
         style="fill:#e7e8e5;fill-opacity:1;fill-rule:nonzero;stroke:none"
         id="path16" /><path
         d="M 1057.74,261.039 H 676.668 v 2.5 h 381.072 v -2.5"
         style="fill:#e7e8e5;fill-opacity:1;fill-rule:nonzero;stroke:none"
         id="path18" /><path
         d="m 4499.01,277.84 h -431.93 v 2.5 h 431.93 v -2.5"
         style="fill:#e7e8e5;fill-opacity:1;fill-rule:nonzero;stroke:none"
         id="path20" /><path
         d="m 4034.44,277.84 h -119.73 v 2.5 h 119.73 v -2.5"
         style="fill:#e7e8e5;fill-opacity:1;fill-rule:nonzero;stroke:none"
         id="path22" /><path
         d="m 3708.89,320.059 h -230 v 2.5 h 230 v -2.5"
         style="fill:#e7e8e5;fill-opacity:1;fill-rule:nonzero;stroke:none"
         id="path24" /><path
         d="m 3363.33,320.059 h -484.44 v 2.5 h 484.44 v -2.5"
         style="fill:#e7e8e5;fill-opacity:1;fill-rule:nonzero;stroke:none"
         id="path26" /><path
         d="m 439.148,3723.59 c -30.093,0 -54.578,-24.49 -54.578,-54.57 V 954.699 c 0,-30.097 24.485,-54.578 54.578,-54.578 H 2370.14 c 30.08,0 54.57,24.481 54.57,54.578 V 3669.02 c 0,30.08 -24.49,54.57 -54.57,54.57 z M 2370.14,897.621 H 439.148 c -31.472,0 -57.078,25.598 -57.078,57.078 V 3669.02 c 0,31.46 25.606,57.07 57.078,57.07 H 2370.14 c 31.46,0 57.07,-25.61 57.07,-57.07 V 954.699 c 0,-31.48 -25.61,-57.078 -57.07,-57.078"
         style="fill:#e7e8e5;fill-opacity:1;fill-rule:nonzero;stroke:none"
         id="path28" /><path
         d="m 2602.12,3723.59 c -30.09,0 -54.57,-24.49 -54.57,-54.57 V 954.699 c 0,-30.097 24.48,-54.578 54.57,-54.578 h 1930.99 c 30.09,0 54.58,24.481 54.58,54.578 V 3669.02 c 0,30.08 -24.49,54.57 -54.58,54.57 H 2602.12 M 4533.11,897.621 H 2602.12 c -31.47,0 -57.07,25.598 -57.07,57.078 V 3669.02 c 0,31.46 25.6,57.07 57.07,57.07 h 1930.99 c 31.47,0 57.08,-25.61 57.08,-57.07 V 954.699 c 0,-31.48 -25.61,-57.078 -57.08,-57.078"
         style="fill:#e7e8e5;fill-opacity:1;fill-rule:nonzero;stroke:none"
         id="path30" /><path
         d="M 536.133,451.629 H 873.777 V 1861.41 H 536.133 V 451.629"
         style="fill:#e2e2e0;fill-opacity:1;fill-rule:nonzero;stroke:none"
         id="path32" /><path
         d="M 592.328,451.629 H 536.133 V 578.488 H 651.242 L 592.328,451.629"
         style="fill:#ededeb;fill-opacity:1;fill-rule:nonzero;stroke:none"
         id="path34" /><path
         d="m 2771.82,451.629 h 337.648 v 1409.78 H 2771.82 Z"
         style="fill:#e2e2e0;fill-opacity:1;fill-rule:nonzero;stroke:none"
         id="path36" /><path
         d="m 536.133,500.34 h 2284.73 V 1861.41 H 536.133 Z"
         style="fill:#ededeb;fill-opacity:1;fill-rule:nonzero;stroke:none"
         id="path38" /><path
         d="m 579.723,1427.83 h 2197.55 v 373.258 H 579.723 Z"
         style="fill:#e2e2e0;fill-opacity:1;fill-rule:nonzero;stroke:none"
         id="path40" /><path
         d="m 579.723,1750.24 h 2197.55 v 50.8516 H 579.723 Z"
         style="fill:#dadbd8;fill-opacity:1;fill-rule:nonzero;stroke:none"
         id="path42" /><path
         d="m 2764.67,451.629 h 56.19 v 126.859 h -115.11 l 58.92,-126.859"
         style="fill:#ededeb;fill-opacity:1;fill-rule:nonzero;stroke:none"
         id="path44" /><path
         d="m 579.723,994.25 h 2197.55 V 1367.5 H 579.723 Z"
         style="fill:#e2e2e0;fill-opacity:1;fill-rule:nonzero;stroke:none"
         id="path46" /><path
         d="m 579.723,1316.66 h 2197.55 v 50.8398 H 579.723 Z"
         style="fill:#dadbd8;fill-opacity:1;fill-rule:nonzero;stroke:none"
         id="path48" /><path
         d="m 579.723,560.672 h 2197.55 V 933.93 H 579.723 Z"
         style="fill:#e2e2e0;fill-opacity:1;fill-rule:nonzero;stroke:none"
         id="path50" /><path
         d="m 579.723,883.082 h 2197.55 v 50.8477 H 579.723 Z"
         style="fill:#dadbd8;fill-opacity:1;fill-rule:nonzero;stroke:none"
         id="path52" /><path
         d="M 3580.25,451.629 H 4363 l 69.47,2458.821 H 3649.72 L 3580.25,451.629"
         style="fill:#e2e2e0;fill-opacity:1;fill-rule:nonzero;stroke:none"
         id="path54" /><path
         d="m 3556.33,451.629 h 782.75 l 69.47,2458.821 H 3625.8 L 3556.33,451.629"
         style="fill:#ededeb;fill-opacity:1;fill-rule:nonzero;stroke:none"
         id="path56" /><path
         d="m 4292.18,521.531 65.52,2319.029 h -685 L 3607.18,521.531 h 685"
         style="fill:#fafaf9;fill-opacity:1;fill-rule:nonzero;stroke:none"
         id="path58" /><path
         d="m 811.676,2244.16 h 2257.79 V 3503.39 H 811.676 Z"
         style="fill:#ededeb;fill-opacity:1;fill-rule:nonzero;stroke:none"
         id="path60" /><path
         d="M 730.34,2244.16 H 3031.45 V 3503.39 H 730.34 Z"
         style="fill:#f3f2f1;fill-opacity:1;fill-rule:nonzero;stroke:none"
         id="path62" /><path
         d="m 844.211,2348.91 h 2073.37 V 3398.65 H 844.211 Z"
         style="fill:#ffffff;fill-opacity:1;fill-rule:nonzero;stroke:none"
         id="path64" /><path
         d="m 916.668,1995.62 c 0,-42.96 -34.824,-77.78 -77.777,-77.78 -42.957,0 -77.782,34.82 -77.782,77.78 0,42.96 34.825,77.77 77.782,77.77 42.953,0 77.777,-34.81 77.777,-77.77"
         style="fill:#ededeb;fill-opacity:1;fill-rule:nonzero;stroke:none"
         id="path66" /><path
         d="m 1042.22,1959.8 c 0,-42.96 -34.82,-77.78 -77.779,-77.78 -42.953,0 -77.773,34.82 -77.773,77.78 0,42.95 34.82,77.77 77.773,77.77 42.959,0 77.779,-34.82 77.779,-77.77"
         style="fill:#e2e2e0;fill-opacity:1;fill-rule:nonzero;stroke:none"
         id="path68" /><path
         d="m 1151.11,2013.7 c 0,-42.96 -34.82,-77.78 -77.78,-77.78 -42.95,0 -77.771,34.82 -77.771,77.78 0,42.95 34.821,77.78 77.771,77.78 42.96,0 77.78,-34.83 77.78,-77.78"
         style="fill:#ededeb;fill-opacity:1;fill-rule:nonzero;stroke:none"
         id="path70" /><path
         d="m 1205.44,1966.57 c 0,0 -6.86,-105.16 -269.999,-105.16 -263.132,0 -270,105.16 -270,105.16 h 539.999"
         style="fill:#e2e2e0;fill-opacity:1;fill-rule:nonzero;stroke:none"
         id="path72" /><path
         d="M 4438.89,113.23 C 4438.89,50.6914 3570.83,0 2500,0 1429.18,0 561.109,50.6914 561.109,113.23 c 0,62.54 868.071,113.239 1938.891,113.239 1070.83,0 1938.89,-50.699 1938.89,-113.239"
         style="fill:#f3f2f1;fill-opacity:1;fill-rule:nonzero;stroke:none"
         id="path74" /><path
         d="M 3772.56,113.23 H 2729.38 c -73.12,0 -130.62,59.829 -127.79,132.95 l 116.42,3004.25 c 2.83,73.12 64.97,132.94 138.09,132.94 h 1043.18 c 73.12,0 130.62,-59.82 127.79,-132.94 L 3910.65,246.18 c -2.83,-73.121 -64.97,-132.95 -138.09,-132.95"
         style="fill:#17282f;fill-opacity:1;fill-rule:nonzero;stroke:none"
         id="path76" /><path
         d="m 2612.44,3072.92 -9.99,0.39 6.91,178.48 c 3.56,91.85 81.2,166.58 173.07,166.58 v -10 c -86.57,0 -159.72,-70.42 -163.08,-156.97 l -6.91,-178.48"
         style="fill:#406fbf;fill-opacity:1;fill-rule:nonzero;stroke:none"
         id="path78" /><path
         d="m 2938.33,3408.37 h -85 v 10 h 85 v -10"
         style="fill:#406fbf;fill-opacity:1;fill-rule:nonzero;stroke:none"
         id="path80" /><path
         d="M 3698.88,113.23 H 2655.71 c -73.12,0 -130.63,59.829 -127.79,132.95 l 116.41,3004.25 c 2.84,73.12 64.98,132.94 138.1,132.94 H 3825.6 c 73.12,0 130.63,-59.82 127.79,-132.94 L 3836.98,246.18 C 3834.14,173.059 3772,113.23 3698.88,113.23"
         style="fill:#406fbf;fill-opacity:1;fill-rule:nonzero;stroke:none"
         id="path82" /><path
         d="m 3732.07,458.77 h -459.69 l 455.41,2755.17 H 3457.82 L 3002.41,458.77 h -47.52 l 455.42,2755.17 H 3275.32 L 2819.9,458.77 h -134.2 l -42.03,42.628 0.05,0.043 -42.22,42.778 20.45,16.371 c 0,0 -15.32,26.34 -40.43,68.449 l 97.28,2510.521 c 1.59,40.91 36.35,74.38 77.26,74.38 h 1082.78 c 40.9,0 73.07,-33.47 71.49,-74.38 l -101,-2606.412 c -1.59,-40.898 -36.35,-74.378 -77.26,-74.378"
         style="fill:#cfe0f5;fill-opacity:1;fill-rule:nonzero;stroke:none"
         id="path84" /><path
         d="m 3272.38,458.77 h -269.97 l 455.41,2755.17 h 269.97 L 3272.38,458.77"
         style="fill:#e1ecf9;fill-opacity:1;fill-rule:nonzero;stroke:none"
         id="path86" /><path
         d="M 2954.89,458.77 H 2819.9 l 455.42,2755.17 h 134.99 L 2954.89,458.77"
         style="fill:#e1ecf9;fill-opacity:1;fill-rule:nonzero;stroke:none"
         id="path88" /><path
         d="m 3446.07,1264.38 h -532.4 c -24.57,0 -44.11,26.96 -45.19,62.35 l -15.05,494.3 c -1.24,40.69 22.18,75.98 50.44,75.98 h 600.03 c 28.25,0 49,-35.29 44.67,-75.98 l -52.58,-494.3 c -3.76,-35.39 -25.35,-62.35 -49.92,-62.35"
         style="fill:#406fbf;fill-opacity:1;fill-rule:nonzero;stroke:none"
         id="path90" /><path
         d="m 2903.87,1878.3 c -6.51,0 -12.02,-4.28 -15.5,-7.86 -10.6,-10.93 -16.83,-29.65 -16.24,-48.85 l 15.05,-494.29 c 0.74,-24.38 12.63,-44.21 26.49,-44.21 h 532.4 c 12.78,0 28.41,18.33 31.32,45.62 l 52.58,494.3 c 2.02,19.03 -2.65,37.45 -12.18,48.06 -4.32,4.8 -8.99,7.23 -13.89,7.23 z m 542.2,-632.64 h -532.4 c -35.02,0 -62.49,34.61 -63.89,80.5 l -15.05,494.3 c -0.9,29.39 9.11,57.82 26.78,76.03 12.03,12.41 27.07,19.23 42.36,19.23 h 600.03 c 15.51,0 30.33,-6.97 41.72,-19.64 16.66,-18.52 24.72,-47.32 21.55,-77.04 l -52.58,-494.29 c -4.79,-45.08 -34.25,-79.09 -68.52,-79.09"
         style="fill:#406fbf;fill-opacity:1;fill-rule:nonzero;stroke:none"
         id="path92" /><path
         d="m 3496.02,1308.02 -2.01,0.11 c -10.27,1.09 -17.72,10.31 -16.62,20.58 l 57.79,543.29 c 9.03,84.91 62.53,148.93 124.44,148.93 h 40.73 c 10.33,0 18.71,-8.38 18.71,-18.71 0,-10.33 -8.38,-18.71 -18.71,-18.71 h -40.73 c -42.03,0 -80.35,-50.72 -87.24,-115.47 l -57.79,-543.29 c -1.02,-9.6 -9.13,-16.73 -18.57,-16.73"
         style="fill:#406fbf;fill-opacity:1;fill-rule:nonzero;stroke:none"
         id="path94" /><path
         d="m 3032.84,1335.62 c -44.26,0 -82.31,-53.7 -84.82,-119.7 -1.51,-39.75 10.4,-76.79 31.86,-99.07 12.61,-13.09 27.57,-20.01 43.27,-20.01 44.27,0 82.32,53.7 84.82,119.7 1.51,39.75 -10.4,76.78 -31.85,99.06 -12.6,13.09 -27.57,20.02 -43.28,20.02 z m -9.69,-255.09 c -20.24,0 -39.27,8.64 -55.02,25.01 -24.47,25.41 -38.08,66.9 -36.41,111 2.84,74.65 48.2,135.38 101.12,135.38 20.25,0 39.27,-8.65 55.03,-25.01 24.46,-25.41 38.07,-66.9 36.4,-110.99 -2.83,-74.66 -48.19,-135.39 -101.12,-135.39"
         style="fill:#406fbf;fill-opacity:1;fill-rule:nonzero;stroke:none"
         id="path96" /><path
         d="m 3407.07,1216.23 h 0.1 z m -83.28,119.39 c -44.26,0 -82.31,-53.7 -84.82,-119.7 -1.5,-39.75 10.4,-76.79 31.86,-99.06 12.6,-13.1 27.57,-20.02 43.28,-20.02 44.25,0 82.31,53.7 84.81,119.7 1.51,39.75 -10.4,76.78 -31.85,99.07 -12.61,13.08 -27.57,20.01 -43.28,20.01 z m -9.68,-255.09 c -20.25,0 -39.28,8.65 -55.03,25.01 -24.47,25.42 -38.08,66.91 -36.4,111 2.83,74.65 48.19,135.38 101.11,135.38 20.24,0 39.27,-8.64 55.02,-25.01 24.47,-25.41 38.08,-66.9 36.41,-110.99 -2.84,-74.66 -48.19,-135.39 -101.11,-135.39"
         style="fill:#406fbf;fill-opacity:1;fill-rule:nonzero;stroke:none"
         id="path98" /><path
         d="m 3436.63,2398.63 c -6.62,-174.4 -109.66,-315.78 -230.16,-315.78 -120.49,0 -212.81,141.38 -206.19,315.78 6.62,174.41 109.67,315.79 230.16,315.79 120.5,0 212.81,-141.38 206.19,-315.79"
         style="fill:#406fbf;fill-opacity:1;fill-rule:nonzero;stroke:none"
         id="path100" /><path
         d="m 3436.64,2398.63 h 0.09 z m -206.2,297.08 c -110.37,0 -205.23,-133.58 -211.46,-297.79 -3.75,-98.81 25.88,-190.9 79.28,-246.36 31.49,-32.71 68.91,-50 108.21,-50 110.37,0 205.24,133.59 211.47,297.79 3.75,98.81 -25.89,190.9 -79.29,246.36 -31.49,32.72 -68.9,50 -108.21,50 z m -23.97,-631.57 c -49.72,0 -96.46,21.26 -135.17,61.47 -60.3,62.63 -93.84,164.97 -89.71,273.74 6.98,184.05 118.62,333.79 248.85,333.79 49.72,0 96.45,-21.26 135.17,-61.47 60.31,-62.64 93.85,-164.97 89.72,-273.75 -6.99,-184.04 -118.63,-333.78 -248.86,-333.78"
         style="fill:#ffffff;fill-opacity:1;fill-rule:nonzero;stroke:none"
         id="path102" /><path
         d="m 3069.46,2405.34 c 0,0 83.04,-79.88 116.62,-182.79 28.99,80.31 72.29,192.04 175.42,317.55 -124.73,-82.78 -172.21,-186.68 -172.21,-186.68 0,0 -42.42,38.39 -119.83,51.92"
         style="fill:#ffffff;fill-opacity:1;fill-rule:nonzero;stroke:none"
         id="path104" /><path
         d="m 3256.76,305.449 h 0.1 z m -68.38,88.543 c -36.9,0 -68.46,-39.812 -70.36,-88.75 -1.09,-27.992 7.61,-53.75 23.87,-70.64 11.14,-11.582 24.71,-17.704 39.22,-17.704 36.9,0 68.46,39.813 70.36,88.762 1.08,27.988 -7.62,53.738 -23.87,70.629 -11.14,11.582 -24.7,17.703 -39.22,17.703 z m -7.27,-187.683 c -17.46,0 -33.66,7.25 -46.85,20.953 -18.23,18.957 -28.01,47.539 -26.82,78.398 2.12,54.551 38.43,98.922 80.94,98.922 17.46,0 33.66,-7.25 46.84,-20.961 18.25,-18.949 28.02,-47.531 26.83,-78.379 -2.12,-54.551 -38.43,-98.933 -80.94,-98.933"
         style="fill:#ffffff;fill-opacity:1;fill-rule:nonzero;stroke:none"
         id="path106" /><path
         d="m 3302.43,3337.05 c -13.62,0 -25.29,-15.12 -26,-33.72 -0.41,-10.58 2.95,-20.65 9,-26.94 4.01,-4.17 8.85,-6.37 13.99,-6.37 13.61,0 25.28,15.13 26,33.72 0.41,10.59 -2.96,20.65 -9.01,26.94 -4.01,4.18 -8.85,6.37 -13.98,6.37 z m -3.01,-77.62 c -7.97,0 -15.65,3.42 -21.61,9.62 -8.13,8.45 -12.49,21.09 -11.96,34.69 0.94,24.2 17.34,43.9 36.58,43.9 7.97,0 15.64,-3.42 21.6,-9.62 8.13,-8.45 12.49,-21.09 11.96,-34.69 -0.94,-24.2 -17.34,-43.9 -36.57,-43.9"
         style="fill:#ffffff;fill-opacity:1;fill-rule:nonzero;stroke:none"
         id="path108" /><path
         d="m 1886.96,3033.13 c -114.51,15.28 -176.36,-54.09 -143.79,-179.99 30.68,-118.62 -28.68,-102.81 -39.62,-215.11 -10.94,-112.31 81.28,-116.87 111.31,-208.59 30.03,-91.71 196.46,-195.91 261.44,-148.88 64.99,47.04 194.02,36.16 205.79,191.37 11.75,155.22 -110.95,163.62 -68.84,248.41 54.72,110.22 -66.63,83.21 -66.63,223.42 0,112.88 -163.7,235.18 -259.66,89.37"
         style="fill:#17282f;fill-opacity:1;fill-rule:nonzero;stroke:none"
         id="path110" /><path
         d="m 1742.95,2435.25 c -2.53,-47.9 -6.97,-94.21 -13.96,-141.37 -7.09,-47.23 -14.92,-93.85 -31.89,-143.34 -4.49,-12.5 -9.62,-25.2 -17.85,-39.34 -4.28,-7.1 -9.28,-14.74 -17.82,-23.14 l -3.58,-3.22 -1.85,-1.57 -1.14,-0.84 -4.15,-2.92 -8.31,-5.81 c -22.2,-14.43 -44.15,-25.48 -66.48,-35.21 -44.59,-19.42 -89.34,-33.83 -136.17,-44.55 l -16.19,44.31 c 39.57,21.88 79.73,44.24 117.06,67.46 18.51,11.78 36.75,23.73 51.96,36.43 l 5.46,4.7 2.73,2.33 0.57,0.49 -0.25,-0.12 -0.38,-0.29 c -0.42,-0.18 1.07,1.85 2.45,4.79 2.97,6.06 6.19,15.02 8.89,24.45 5.61,19.02 9.88,40.39 13.43,61.94 3.79,21.59 6.87,43.7 9.53,65.95 5.06,44.4 9.44,90.07 12.85,134.34 l 95.09,-5.47"
         style="fill:#f89e63;fill-opacity:1;fill-rule:nonzero;stroke:none"
         id="path112" /><path
         d="m 1453.26,2037.17 -76.33,23.65 14.24,-92.41 c 0,0 49.59,6.16 74.09,34.14 l -12,34.62"
         style="fill:#f89e63;fill-opacity:1;fill-rule:nonzero;stroke:none"
         id="path114" /><path
         d="m 1314.48,2001.32 4.24,-12.11 c 4.95,-14.1 18.55,-23.29 33.48,-22.6 l 38.97,1.8 -14.24,92.41 -42.89,-16.82 c -16.94,-6.65 -25.59,-25.5 -19.56,-42.68"
         style="fill:#f89e63;fill-opacity:1;fill-rule:nonzero;stroke:none"
         id="path116" /><path
         d="m 1833.18,2524.86 c 0.2,-28.82 -13.95,-85.79 -25.91,-128.53 -8.75,-30.86 -16.18,-54.21 -16.18,-54.21 l -17.45,4.39 -144.59,36.62 c -2.29,74.17 0.69,155.8 74.48,204.56 46.36,30.66 129.24,-11.35 129.65,-62.83"
         style="fill:#406fbf;fill-opacity:1;fill-rule:nonzero;stroke:none"
         id="path118" /><path
         d="m 1673.21,2556.42 c 1.59,4.39 3.82,8.52 7.14,12.51 -2.12,-4.27 -4.51,-8.45 -7.14,-12.51"
         style="fill:#254583;fill-opacity:1;fill-rule:nonzero;stroke:none"
         id="path120" /><path
         d="m 1536.56,202.879 -88.12,30.973 55.37,190.957 88.11,-30.957 -55.36,-190.973"
         style="fill:#f89e63;fill-opacity:1;fill-rule:nonzero;stroke:none"
         id="path122" /><path
         d="m 2714.8,429.262 -71.75,-53.473 -146.88,148.973 71.75,53.457 146.88,-148.957"
         style="fill:#f89e63;fill-opacity:1;fill-rule:nonzero;stroke:none"
         id="path124" /><path
         d="m 2613.72,397.57 77.51,64.012 c 2.82,2.34 6.72,2.27 9.4,-0.16 l 59.47,-54.031 c 6.17,-5.602 5.68,-16.141 -0.92,-21.403 -27.41,-21.859 -41.74,-31.027 -75.82,-59.168 -20.97,-17.332 -64.81,-58.718 -93.77,-82.64 -28.32,-23.391 -54.15,3.449 -44.23,16 44.46,56.281 54.76,93.281 60.34,123.621 1,5.469 3.9,10.359 8.02,13.769"
         style="fill:#17282f;fill-opacity:1;fill-rule:nonzero;stroke:none"
         id="path126" /><path
         d="m 1442.42,261.328 97.93,-40.949 c 3.57,-1.481 5.75,-5.301 5.25,-9.18 l -11.1,-86.39 c -1.15,-8.957 -10.16,-13.879 -18.43,-10.5 -34.64,14.113 -50.94,21.101 -94.01,39.113 -26.49,11.066 -95.04,39.738 -131.63,55.027 -35.79,14.961 -28.14,54.281 -11.97,51.36 72.54,-13.071 119.28,-8.797 147.85,1.961 5.15,1.941 10.89,1.742 16.11,-0.442"
         style="fill:#17282f;fill-opacity:1;fill-rule:nonzero;stroke:none"
         id="path128" /><path
         d="m 1561.13,287.512 -0.03,0.019 20.69,71.36 0.04,-0.02 -20.7,-71.359"
         style="fill:#c3c5c2;fill-opacity:1;fill-rule:nonzero;stroke:none"
         id="path130" /><path
         d="m 1561.1,287.531 -85.84,38.797 18.49,63.75 88.04,-31.187 -20.69,-71.36"
         style="fill:#dc834c;fill-opacity:1;fill-rule:nonzero;stroke:none"
         id="path132" /><path
         d="m 2643.67,501.398 -42.2,42.801 0.03,0.02 42.22,-42.778 -0.05,-0.043"
         style="fill:#a0afc8;fill-opacity:1;fill-rule:nonzero;stroke:none"
         id="path134" /><path
         d="m 2571.94,447.949 -40.03,40.571 69.56,55.679 42.2,-42.801 -71.73,-53.449"
         style="fill:#dc834c;fill-opacity:1;fill-rule:nonzero;stroke:none"
         id="path136" /><path
         d="m 2104.42,2057.87 c -70.15,-1 -219.2,-3.07 -363.33,-5.14 -49.9,281.14 -61.48,415.45 -61.5,479.56 -0.01,33.24 23.31,61.92 55.95,68.26 22.18,4.31 49.78,9.24 77.49,13.05 9.49,1.32 19.05,2.5 28.43,3.48 53.76,5.68 103.85,4.49 164.99,2.43 8.15,-0.24 16.23,-0.7 24.32,-1.17 36.81,-2.42 71.43,-7.1 95.73,-10.93 18.85,-2.97 31.28,-21.19 27.32,-39.85 -10.61,-50.07 -19.31,-93.96 -26.29,-133.25 -11.17,-62.44 -18.16,-113.01 -22.27,-157.32 -7.49,-82.45 -5.06,-143.34 -0.84,-219.12"
         style="fill:#406fbf;fill-opacity:1;fill-rule:nonzero;stroke:none"
         id="path138" /><path
         d="m 1852,2078.31 -58.77,427.82 -39.58,-5.43 c 18.01,19.81 29.57,40.89 26.86,56.25 -1.83,10.33 -4.35,16.24 -6.87,20.38 -4.71,7.9 -9.36,9.67 -9.26,23.79 0.01,1.7 0.04,3.3 0.07,4.8 15.39,2.71 31.97,5.4 48.58,7.68 9.49,1.32 19.05,2.5 28.43,3.48 0.01,0 0.01,0 0.02,0 -0.46,-1.74 -13.5,-52.51 34.24,-98.46 91.79,50.02 130.77,100.87 130.77,100.87 0,0.01 -0.01,0.02 -0.02,0.02 8.15,-0.24 16.22,-0.7 24.3,-1.17 25.35,-1.67 49.67,-4.41 70.3,-7.2 -32.81,-3.74 -55.86,-32.16 -66.35,-67.04 -1.55,-5.15 -2.25,-10.93 -2.25,-17.18 0.02,-48.31 42.19,-124.42 59.8,-154.08 0.58,-35.64 4.9,-71.53 12.99,-95.85 -1.03,-11.31 -1.87,-22.23 -2.54,-32.83 -1.63,-25.44 -2.29,-49.09 -2.29,-72.24 0,-26.04 0.84,-51.45 2.11,-78.09 -7.25,-2.95 -14.65,-5.77 -22.09,-8.46 -3.64,-1.34 -7.3,-2.65 -10.98,-3.95 L 1852,2078.31 m -145.65,442.62 c 19.05,27.43 30.44,57.19 23.4,74.56 -0.47,1.15 -0.93,2.23 -1.39,3.26 2.34,0.72 4.73,1.32 7.18,1.8 5.2,1.01 10.7,2.06 16.44,3.11 -0.96,-5.79 -2.68,-13.07 -5.33,-22.99 -6.37,-23.9 -20.79,-43.91 -40.3,-59.74"
         style="fill:#254583;fill-opacity:1;fill-rule:nonzero;stroke:none"
         id="path140" /><path
         d="m 2105.26,2276.99 c -8.09,24.32 -12.41,60.21 -12.99,95.85 4.64,-7.82 7.57,-12.42 7.57,-12.42 l 17.65,13.79 c -5.57,-36.19 -9.52,-68.06 -12.23,-97.22 v 0"
         style="fill:#1d2e53;fill-opacity:1;fill-rule:nonzero;stroke:none"
         id="path142" /><path
         d="m 1979.34,2732.24 c -1.69,-44.64 3.61,-90.93 27.15,-112.75 0,0 -38.98,-50.85 -130.77,-100.87 -48.58,46.76 -34.22,98.51 -34.22,98.51 59,14.98 59.57,54.26 42.66,119.53 l 46.86,18.75 c 19.3,16.97 49.3,2.49 48.32,-23.17"
         style="fill:#f89e63;fill-opacity:1;fill-rule:nonzero;stroke:none"
         id="path144" /><path
         d="m 1884.22,2736.68 c 0,0.01 0,0.01 0,0.01 l 46.83,18.74 c -0.01,0 -0.02,-0.01 -0.03,-0.02 l -46.8,-18.73 m 86.91,17.16 c -5.51,5.62 -13.18,8.9 -21.08,8.9 -5.78,0 -11.69,-1.76 -16.95,-5.65 5.25,3.89 11.16,5.66 16.95,5.66 7.9,0 15.57,-3.28 21.08,-8.91"
         style="fill:#111d23;fill-opacity:1;fill-rule:nonzero;stroke:none"
         id="path146" /><path
         d="m 1892.99,2666.09 c 2.61,18.7 -1.42,42.22 -8.77,70.59 l 46.8,18.73 c 0.01,0.01 0.02,0.02 0.03,0.02 l 0.01,0.01 c 0.67,0.59 1.35,1.13 2.04,1.65 5.26,3.89 11.17,5.65 16.95,5.65 7.9,0 15.57,-3.28 21.08,-8.9 4.41,-4.5 7.43,-10.49 8.08,-17.51 -21.86,-31.11 -48.25,-56.32 -86.22,-70.24"
         style="fill:#dc834c;fill-opacity:1;fill-rule:nonzero;stroke:none"
         id="path148" /><path
         d="m 2063.83,2863.22 c -31.67,-82.97 -43.3,-118.76 -99.61,-148.81 -84.71,-45.19 -179.68,11.85 -173.44,102.6 5.61,81.69 56.46,203.65 149.79,211.4 91.96,7.64 154.93,-82.22 123.26,-165.19"
         style="fill:#f89e63;fill-opacity:1;fill-rule:nonzero;stroke:none"
         id="path150" /><path
         d="m 1904.9,3028.86 c -58.94,-83.16 109.64,-62.75 101.59,-121.36 -4.88,-35.59 -55.67,-101.9 33.53,-114.26 89.2,-12.34 111.25,133.18 65.39,187.85 -45.86,54.68 -142.62,90.25 -200.51,47.77"
         style="fill:#17282f;fill-opacity:1;fill-rule:nonzero;stroke:none"
         id="path152" /><path
         d="m 1923.59,3031.37 c -12.2,-30.58 -77.08,-71.14 -100.79,-63.51 7.29,35.87 67.72,69.97 100.79,63.51"
         style="fill:#17282f;fill-opacity:1;fill-rule:nonzero;stroke:none"
         id="path154" /><path
         d="m 2058.38,2778.54 c -9.42,-15.81 -25.26,-25.81 -39.99,-29.28 -22.15,-5.24 -32.3,14.79 -25.38,35.21 6.23,18.38 25.26,43.26 47.12,39.39 21.54,-3.82 29.03,-27.24 18.25,-45.32"
         style="fill:#f89e63;fill-opacity:1;fill-rule:nonzero;stroke:none"
         id="path156" /><path
         d="m 1741.05,2052.68 c 0,0 -61.46,-528.73 -118.14,-858.01 -44.38,-257.861 -156.64,-794.861 -156.64,-794.861 l 145.61,-51.59 c 0,0 166.78,559.929 195.99,798.831 117.59,344.53 201.89,909.1 201.89,909.1 l -268.71,-3.47"
         style="fill:#406fbf;fill-opacity:1;fill-rule:nonzero;stroke:none"
         id="path158" /><path
         d="m 1442.62,363.52 168.57,-59.45 22.55,54.149 -182.8,69.851 -8.32,-64.55"
         style="fill:#17282f;fill-opacity:1;fill-rule:nonzero;stroke:none"
         id="path160" /><path
         d="m 1880.73,1400.31 c -0.01,0.05 -0.02,0.1 -0.03,0.14 2.27,9.11 4.5,18.23 6.72,27.38 h 0.06 c -2.23,-9.18 -4.48,-18.37 -6.75,-27.52"
         style="fill:#9b9d9d;fill-opacity:1;fill-rule:nonzero;stroke:none"
         id="path162" /><path
         d="m 1887.48,1427.83 h -0.06 c 6.52,26.86 12.83,53.85 18.92,80.73 0.01,-0.05 0.01,-0.06 0.03,-0.11 -6.09,-26.85 -12.39,-53.78 -18.89,-80.62"
         style="fill:#949696;fill-opacity:1;fill-rule:nonzero;stroke:none"
         id="path164" /><path
         d="m 1880.7,1400.45 c -21.04,101.78 -27.44,252.74 -17.43,345.02 11.94,-73.76 26.33,-155.05 43.07,-236.91 -6.09,-26.88 -12.4,-53.87 -18.92,-80.73 -2.22,-9.15 -4.45,-18.27 -6.72,-27.38"
         style="fill:#2d5bb2;fill-opacity:1;fill-rule:nonzero;stroke:none"
         id="path166" /><path
         d="m 1820.42,2052.74 c 0,0 65.08,-591.82 186.56,-920.37 C 2067.92,967.531 2520,478.992 2520,478.992 l 101.95,81.598 c 0,0 -286.7,492.98 -411.93,621.73 -51.15,286.33 13.12,715.03 -105.6,875.54 l -284,-5.12"
         style="fill:#406fbf;fill-opacity:1;fill-rule:nonzero;stroke:none"
         id="path168" /><path
         d="m 2528.28,443.961 119.65,98.059 -32.31,52.98 -131.02,-113.969 43.68,-37.07"
         style="fill:#17282f;fill-opacity:1;fill-rule:nonzero;stroke:none"
         id="path170" /><path
         d="m 2109.56,2079.26 16.85,-32.29 c 1.3,-2.51 -1.65,-5.12 -5.85,-5.18 l -381.07,-5.44 c -3.28,-0.05 -6.01,1.52 -6.25,3.57 l -3.74,32.48 c -0.26,2.26 2.55,4.2 6.14,4.25 l 367.96,5.25 c 2.7,0.04 5.11,-1.02 5.96,-2.64"
         style="fill:#17282f;fill-opacity:1;fill-rule:nonzero;stroke:none"
         id="path172" /><path
         d="m 2060.72,2037.41 9.86,0.14 c 1.96,0.03 3.44,1.06 3.29,2.3 l -5.22,42.19 c -0.16,1.23 -1.89,2.23 -3.85,2.2 l -9.86,-0.15 c -1.96,-0.03 -3.44,-1.05 -3.29,-2.29 l 5.23,-42.19 c 0.15,-1.24 1.88,-2.23 3.84,-2.2"
         style="fill:#406fbf;fill-opacity:1;fill-rule:nonzero;stroke:none"
         id="path174" /><path
         d="m 1767.24,2033.22 9.85,0.14 c 1.96,0.03 3.44,1.06 3.29,2.3 l -5.22,42.19 c -0.16,1.23 -1.89,2.23 -3.85,2.2 l -9.85,-0.15 c -1.97,-0.03 -3.45,-1.05 -3.3,-2.29 l 5.23,-42.19 c 0.15,-1.24 1.88,-2.23 3.85,-2.2"
         style="fill:#406fbf;fill-opacity:1;fill-rule:nonzero;stroke:none"
         id="path176" /><path
         d="m 1913.98,2035.32 9.86,0.14 c 1.96,0.03 3.44,1.06 3.28,2.29 l -5.22,42.19 c -0.15,1.24 -1.88,2.23 -3.85,2.2 l -9.85,-0.14 c -1.96,-0.03 -3.44,-1.06 -3.29,-2.29 l 5.22,-42.2 c 0.16,-1.23 1.89,-2.22 3.85,-2.19"
         style="fill:#406fbf;fill-opacity:1;fill-rule:nonzero;stroke:none"
         id="path178" /><path
         d="m 1917.85,2883.54 c -2.16,-6.89 -7.56,-11.33 -12.06,-9.93 -4.5,1.42 -6.4,8.15 -4.25,15.03 2.16,6.89 7.55,11.33 12.06,9.93 4.5,-1.42 6.4,-8.14 4.25,-15.03"
         style="fill:#17282f;fill-opacity:1;fill-rule:nonzero;stroke:none"
         id="path180" /><path
         d="m 1839.99,2907.9 c -2.15,-6.88 -7.55,-11.33 -12.05,-9.92 -4.5,1.41 -6.41,8.13 -4.25,15.03 2.15,6.88 7.55,11.33 12.05,9.92 4.51,-1.41 6.41,-8.13 4.25,-15.03"
         style="fill:#17282f;fill-opacity:1;fill-rule:nonzero;stroke:none"
         id="path182" /><path
         d="m 1837.61,2921.93 -15.05,9.94 c 0,0 4.45,-15.58 15.05,-9.94"
         style="fill:#17282f;fill-opacity:1;fill-rule:nonzero;stroke:none"
         id="path184" /><path
         d="m 1859.23,2889.71 c 0,0 -20.97,-26 -38.31,-36.28 6.44,-11.33 23.11,-12.3 23.11,-12.3 l 15.2,48.58"
         style="fill:#f57739;fill-opacity:1;fill-rule:nonzero;stroke:none"
         id="path186" /><path
         d="m 1866.96,2802.95 -0.66,2.25 c 0.36,1.12 1.54,1.73 2.66,1.39 30.14,-9.44 50.96,7.24 51.16,7.41 0.91,0.74 2.27,0.58 2.99,-0.3 l -0.29,-2.98 c -0.91,-0.75 -22.72,-18.32 -55.13,-8.18 l -0.73,0.41"
         style="fill:#17282f;fill-opacity:1;fill-rule:nonzero;stroke:none"
         id="path188" /><path
         d="m 1947.68,2902.12 -1.24,1.8 c -6.38,17.79 -21.53,21.58 -21.68,21.62 -2.27,0.53 -3.69,2.82 -3.15,5.1 0.54,2.27 2.83,3.69 5.1,3.14 0.81,-0.19 19.79,-4.92 27.71,-27 0.79,-2.2 -0.36,-4.63 -2.56,-5.42 -1.48,-0.53 -3.06,-0.19 -4.18,0.76"
         style="fill:#17282f;fill-opacity:1;fill-rule:nonzero;stroke:none"
         id="path190" /><path
         d="m 1816.82,2952.57 -0.21,0.77 c -0.41,2.3 1.12,4.5 3.43,4.91 23.08,4.11 36.64,-10 37.21,-10.6 1.6,-1.71 1.51,-4.39 -0.19,-5.99 -1.71,-1.6 -4.38,-1.52 -5.98,0.18 -0.51,0.52 -11.19,11.34 -29.56,8.06 -2.04,-0.36 -3.99,0.8 -4.7,2.67"
         style="fill:#17282f;fill-opacity:1;fill-rule:nonzero;stroke:none"
         id="path192" /><path
         d="m 1471.76,2557.65 c -14.75,23.87 -27.53,70.54 -2.27,97.01 25.27,26.45 44.98,33.9 38.72,80.13 -6.26,46.23 64.14,44.85 69.92,79.68 35.11,-30.4 72.3,-100.29 52.39,-132.06 -19.91,-31.76 -9.23,-56.17 -13.54,-95.07 -4.3,-38.89 -89.21,-120.32 -145.22,-29.69"
         style="fill:#406fbf;fill-opacity:1;fill-rule:nonzero;stroke:none"
         id="path194" /><path
         d="m 1566.26,2601.89 c 10.18,47.81 17.19,97.78 14.8,138.66 -6.67,-42.07 -15.57,-86.89 -26.64,-131.44 -7.84,19.59 -16.04,34.94 -16.03,55.32 0,4.74 0.45,9.75 1.45,15.15 0.36,1.94 0.53,3.93 0.53,5.94 -0.01,17.86 -13.69,38.28 -32.54,56.14 1.31,39.31 64.82,39.8 70.3,72.81 28.32,-24.52 57.99,-74.74 57.96,-109.91 -0.01,-8.44 -1.72,-16 -5.57,-22.15 -4.95,-7.89 -8.01,-15.33 -9.88,-22.65 -6.97,-4.51 -12.19,-9.97 -14.81,-16.4 -8.75,-21.53 -22.94,-29.82 -39.57,-41.47"
         style="fill:#90b4e3;fill-opacity:1;fill-rule:nonzero;stroke:none"
         id="path196" /><path
         d="m 1581.06,2740.55 c -16.96,-106.88 -48.24,-231.55 -93.2,-324.25 14.3,-1.02 28.98,13.39 28.98,13.39 0,0 71.1,193.12 64.22,310.86"
         style="fill:#406fbf;fill-opacity:1;fill-rule:nonzero;stroke:none"
         id="path198" /><path
         d="m 1438.14,2505.14 c -22.49,16.77 -51.56,55.46 -37.81,89.36 13.76,33.91 29.35,48.08 6.51,88.75 -22.83,40.69 43.13,65.32 35.69,99.84 43.83,-15.34 104.13,-66.65 97.31,-103.51 -6.82,-36.86 12.1,-55.63 22.41,-93.38 10.31,-37.75 -38.67,-144.71 -124.11,-81.06"
         style="fill:#406fbf;fill-opacity:1;fill-rule:nonzero;stroke:none"
         id="path200" /><path
         d="m 1486,2485.43 c -2.88,0.15 -5.82,0.51 -8.84,1.09 -1.26,12.71 -4.49,25.76 -9.93,38.32 -10.43,24.08 -29.95,33.36 -48.65,33.36 -6.25,0 -12.41,-1.04 -18.1,-2.9 -2.33,6.73 -3.69,13.67 -3.7,20.62 -0.01,6.24 1.08,12.49 3.55,18.58 8.71,21.46 18.15,35.01 18.12,52.38 -0.02,10.08 -3.22,21.44 -11.61,36.37 -3.39,6.04 -4.82,11.73 -4.83,17.14 -0.04,29.12 41.12,50.46 41.11,77.22 -0.01,1.8 -0.19,3.62 -0.59,5.48 41.52,-14.54 97.82,-61.34 97.84,-97.57 0,-2.01 -0.17,-4 -0.53,-5.94 -1,-5.4 -1.45,-10.41 -1.45,-15.15 -0.01,-24.48 11.83,-41.72 20.65,-67.75 -3.8,-2.86 -7.7,-5.98 -11.67,-9.57 -10.09,-9.12 -18.36,-31.16 -18.36,-53.49 0,-9.62 1.54,-19.3 5.14,-28.03 -4.23,-4.3 -8.89,-8.12 -13.96,-11.25 -5.12,-3.16 -10.65,-5.62 -16.58,-7.16 -2.59,58.17 -11.24,132.4 -36.31,184.56 11.24,-58.61 18.8,-124.17 18.7,-186.31"
         style="fill:#a4c3e9;fill-opacity:1;fill-rule:nonzero;stroke:none"
         id="path202" /><path
         d="m 1598.8,2472.92 c 23.64,1.69 61.94,16 67.59,46.39 5.64,30.39 1,47.57 35.77,66.13 34.77,18.56 -0.96,66.11 20.04,87.29 -38.17,9.03 -104.44,-0.02 -116.37,-29.37 -11.93,-29.34 -33.93,-34.08 -58.46,-56.25 -24.52,-22.18 -38.35,-120.6 51.43,-114.19"
         style="fill:#406fbf;fill-opacity:1;fill-rule:nonzero;stroke:none"
         id="path204" /><path
         d="m 1559.54,2478.74 c -4.74,2.21 -8.84,4.95 -12.36,8.11 32.79,47.49 70.64,93.85 107.04,133.73 -40.35,-28.52 -82.81,-79.14 -115.7,-123.46 -1.7,2.68 -3.16,5.53 -4.37,8.47 -3.6,8.73 -5.14,18.41 -5.14,28.03 0,22.33 8.27,44.37 18.36,53.49 24.53,22.17 46.53,26.91 58.46,56.25 8.99,22.13 48.88,32.72 84.32,32.72 11.57,0 22.66,-1.13 32.05,-3.35 -5.51,-5.57 -7.12,-12.95 -7.11,-21.15 0.01,-11.46 3.16,-24.52 3.16,-36.43 0,-0.2 -0.01,-0.41 -0.01,-0.61 -6.01,6.23 -10.72,7.33 -13.5,20.76 -4.36,21.14 -3.11,26.58 -3.11,26.58 0,0 -10.04,-4.7 -12.53,-10.74 3.17,-8.01 3.7,-17.15 2.58,-39.55 -0.75,-15.08 -4.74,-29.36 -11.33,-42.66 -3.32,-3.99 -5.55,-8.12 -7.14,-12.51 -23.42,-36.12 -66.34,-63.59 -113.67,-77.68"
         style="fill:#b8d2ef;fill-opacity:1;fill-rule:nonzero;stroke:none"
         id="path206" /><path
         d="m 1467.3,2671.74 c 17.94,-93.55 26.5,-204.82 9.54,-291.58 15.71,1.8 26.62,16.72 26.62,16.72 0,0 11.08,176.58 -36.16,274.86"
         style="fill:#406fbf;fill-opacity:1;fill-rule:nonzero;stroke:none"
         id="path208" /><path
         d="m 1654.22,2620.58 c -62.6,-68.59 -129.47,-156.3 -167.57,-236.06 -8.34,9.05 -6.54,26.59 -6.54,26.59 0,0 91.47,151.06 174.11,209.47"
         style="fill:#406fbf;fill-opacity:1;fill-rule:nonzero;stroke:none"
         id="path210" /><path
         d="m 1371.83,2526.82 c -28.29,15.47 -84.25,-27.79 -54.84,-78.09 29.41,-50.29 89.59,-73.59 118.02,-46.62 38.55,6.95 55.37,69.26 32.22,122.73 -23.16,53.47 -91.14,33.94 -95.4,1.98"
         style="fill:#406fbf;fill-opacity:1;fill-rule:nonzero;stroke:none"
         id="path212" /><path
         d="m 1371.83,2526.82 c 0,0 -9.92,32.46 6.47,42.86 3.78,-4.73 6.17,-8.75 6.17,-8.75 0,0 -11.13,-3.08 -12.64,-34.11"
         style="fill:#17282f;fill-opacity:1;fill-rule:nonzero;stroke:none"
         id="path214" /><path
         d="m 1691.68,2611.59 c -3.43,-68.63 -73.96,-120.84 -150.69,-137.64 -3.66,-2.47 -8.42,-11.25 -10.35,-17.3 -1.93,-6.04 2.38,-8.67 2.38,-8.67 0,0 12.19,-9.96 20.46,-10.33 8.27,-0.38 57.29,-3.26 111.22,38.52 39.55,30.65 76.47,91.21 65.02,119.31 -11.45,28.09 -20.61,18.69 -24.98,39.82 -4.36,21.14 -3.11,26.58 -3.11,26.58 0,0 -10.04,-4.7 -12.53,-10.74 3.17,-8.01 3.7,-17.15 2.58,-39.55"
         style="fill:#406fbf;fill-opacity:1;fill-rule:nonzero;stroke:none"
         id="path216" /><path
         d="m 1728.33,2598.74 c -3.44,7.68 -6.66,12.12 -9.58,15.26 2.94,-3.1 6.17,-7.56 9.61,-15.25 -0.01,0 -0.02,0 -0.03,-0.01"
         style="fill:#111d23;fill-opacity:1;fill-rule:nonzero;stroke:none"
         id="path218" /><path
         d="m 1706.33,2520.91 c 19.07,27.44 30.46,57.21 23.39,74.57 -0.47,1.15 -0.93,2.23 -1.39,3.26 0.01,0.01 0.02,0.01 0.03,0.01 0.46,-1.03 0.92,-2.11 1.39,-3.26 7.04,-17.37 -4.35,-47.13 -23.4,-74.56 -0.01,0 -0.02,-0.01 -0.02,-0.02"
         style="fill:#213664;fill-opacity:1;fill-rule:nonzero;stroke:none"
         id="path220" /><path
         d="m 1657.36,2493.31 c 12.55,9.98 22.91,21.03 30.01,32.41 24.75,39.58 30.48,67.28 29.74,89.92 0.54,-0.51 1.08,-1.05 1.64,-1.64 2.92,-3.14 6.14,-7.58 9.58,-15.26 v 0 c 0.46,-1.03 0.92,-2.11 1.39,-3.26 7.07,-17.36 -4.32,-47.13 -23.39,-74.57 -14.06,-11.39 -30.74,-20.63 -48.97,-27.6"
         style="fill:#3563b7;fill-opacity:1;fill-rule:nonzero;stroke:none"
         id="path222" /><path
         d="m 1691.94,2637.64 c 0,0 -3.35,11.26 -5.24,15.18 5.53,8.06 15.97,11.5 15.97,11.5 l -0.18,-16.48 c 0,0 -5.28,-9.55 -10.55,-10.2"
         style="fill:#17282f;fill-opacity:1;fill-rule:nonzero;stroke:none"
         id="path224" /><path
         d="m 1533.43,2463.42 c 0,0 -2.96,-3.25 -4.33,-5.29 -1.1,-6.06 0.4,-8.73 3.37,-11.17 2.97,-2.44 4.87,-2.16 4.87,-2.16 0,0 -4.01,6.49 -4.2,9.94 -0.19,3.44 0.29,8.68 0.29,8.68"
         style="fill:#17282f;fill-opacity:1;fill-rule:nonzero;stroke:none"
         id="path226" /><path
         d="m 1746.65,2580.67 c -17.69,-66.41 -97.57,-102.73 -176.13,-103.14 -4.09,-1.63 -10.58,-9.23 -13.73,-14.74 -3.15,-5.5 0.51,-8.98 0.51,-8.98 0,0 9.84,-12.29 17.85,-14.39 8.01,-2.1 55.35,-15.15 116.82,14.45 45.09,21.7 93.84,73.22 88.51,103.08 -5.32,29.86 -16.25,22.59 -16.1,44.17 0.15,21.58 2.51,26.64 2.51,26.64 0,0 -10.81,-2.5 -14.5,-7.89 1.42,-8.49 0.03,-17.55 -5.74,-39.2"
         style="fill:#406fbf;fill-opacity:1;fill-rule:nonzero;stroke:none"
         id="path228" /><path
         d="m 1753.65,2500.7 c 18.01,19.81 29.57,40.9 26.83,56.25 -1.84,10.32 -4.35,16.21 -6.84,20.38 2.52,-4.14 5.04,-10.05 6.87,-20.38 2.71,-15.36 -8.85,-36.44 -26.86,-56.25 v 0"
         style="fill:#213664;fill-opacity:1;fill-rule:nonzero;stroke:none"
         id="path230" /><path
         d="m 1723.49,2496.55 c 0.34,0.35 0.67,0.69 1.01,1.03 32.47,33.54 43.86,59.43 47.87,81.72 0.42,-0.62 0.85,-1.27 1.27,-1.97 2.49,-4.17 5,-10.06 6.84,-20.38 2.74,-15.35 -8.82,-36.44 -26.83,-56.25 l -30.16,-4.15"
         style="fill:#3563b7;fill-opacity:1;fill-rule:nonzero;stroke:none"
         id="path232" /><path
         d="m 1752.34,2606.08 c 0,0 -0.91,11.7 -1.94,15.94 7.08,6.72 18.02,7.9 18.02,7.9 l -3.62,-16.06 c 0,0 -7.16,-8.24 -12.46,-7.78"
         style="fill:#17282f;fill-opacity:1;fill-rule:nonzero;stroke:none"
         id="path234" /><path
         d="m 1560.94,2468.82 c 0,0 -3.58,-2.56 -5.35,-4.27 -2.33,-5.69 -1.43,-8.62 0.96,-11.63 2.4,-3.01 4.31,-3.13 4.31,-3.13 0,0 -2.55,7.19 -2.02,10.6 0.52,3.41 2.1,8.43 2.1,8.43"
         style="fill:#17282f;fill-opacity:1;fill-rule:nonzero;stroke:none"
         id="path236" /><path
         d="m 1868.28,1959.8 -488.14,-67.06 -75.05,546.33 488.14,67.06 75.05,-546.33"
         style="fill:#406fbf;fill-opacity:1;fill-rule:nonzero;stroke:none"
         id="path238" /><path
         d="m 1380.14,1892.74 -10.26,74.69 -11.81,85.99 -52.98,385.65 416.11,57.17 v 0 l -72.03,-9.9 75.05,-546.33 144.06,19.79 -35.76,-4.92 -104.94,-14.41 -347.44,-47.73"
         style="fill:#cfe0f5;fill-opacity:1;fill-rule:nonzero;stroke:none"
         id="path240" /><path
         d="m 1724.22,1940.01 -75.05,546.33 72.03,9.9 67.84,-493.84 79.24,-42.6 -79.24,42.6 -64.82,-62.39"
         style="fill:#abcaec;fill-opacity:1;fill-rule:nonzero;stroke:none"
         id="path242" /><path
         d="m 1753.65,2500.7 v 0 l 39.58,5.43 -39.58,-5.43"
         style="fill:#2250a9;fill-opacity:1;fill-rule:nonzero;stroke:none"
         id="path244" /><path
         d="m 1721.2,2496.24 v 0 l 2.29,0.31 v 0 l -2.29,-0.31"
         style="fill:#406fbf;fill-opacity:1;fill-rule:nonzero;stroke:none"
         id="path246" /><path
         d="m 1753.64,2500.7 h 0.01 v 0 0 h -0.01"
         style="fill:#25488e;fill-opacity:1;fill-rule:nonzero;stroke:none"
         id="path248" /><path
         d="m 1723.49,2496.55 v 0 l 30.16,4.15 h -0.01 l -30.15,-4.15"
         style="fill:#3865b9;fill-opacity:1;fill-rule:nonzero;stroke:none"
         id="path250" /><path
         d="m 1721.2,2496.24 v 0 l 72.03,9.89 -72.03,-9.89"
         style="fill:#abcaec;fill-opacity:1;fill-rule:nonzero;stroke:none"
         id="path252" /><path
         d="m 1868.28,1959.8 -79.24,42.6 -67.84,493.84 72.03,9.89 75.05,-546.33"
         style="fill:#91b7e5;fill-opacity:1;fill-rule:nonzero;stroke:none"
         id="path254" /><path
         d="m 1724.22,1940.01 64.82,62.39 79.24,-42.6 -144.06,-19.79"
         style="fill:#85ade0;fill-opacity:1;fill-rule:nonzero;stroke:none"
         id="path256" /><path
         d="m 1946.98,2036.43 -74.35,29.26 7.32,-93.21 c 0,0 49.91,2.45 76.43,28.54 l -9.4,35.41"
         style="fill:#f89e63;fill-opacity:1;fill-rule:nonzero;stroke:none"
         id="path258" /><path
         d="m 2181.72,2500.96 c 20.06,-56.03 37.17,-111.66 51.97,-169.19 7.37,-28.73 14.41,-57.68 19.7,-87.61 2.7,-14.97 5.09,-30.15 6.9,-45.87 1.75,-15.83 2.94,-31.89 2.14,-50.4 -0.59,-9.43 -1.26,-19.13 -5.01,-31.98 -4.02,-14.01 -11.93,-25.84 -19.47,-34.45 -15.53,-17.19 -31.53,-26.35 -46.73,-34.44 -30.53,-15.51 -60.22,-24.08 -89.81,-31.54 -59.39,-13.75 -117.55,-21.27 -177.34,-23.68 l -5.81,46.82 c 27.22,6.55 55.15,13.68 82.28,21.33 27.26,7.44 54.11,15.94 79.91,25.42 25.69,9.3 50.92,20.09 71.11,32.55 9.91,6.07 18.28,13.38 21.71,18.18 1.62,2.49 1.63,3.19 1.31,3.25 0.2,1.07 0.64,5.93 0.53,10.92 -0.12,10.43 -1.76,23.26 -3.77,36.09 -2.07,12.94 -4.75,26.25 -7.79,39.63 -6.2,26.76 -13.18,53.96 -20.91,81.09 -15.64,54.08 -33.11,108.92 -50.77,162.27 l 89.85,31.61"
         style="fill:#f89e63;fill-opacity:1;fill-rule:nonzero;stroke:none"
         id="path260" /><path
         d="m 1803.61,2019.58 5.79,-21.51 c 3.79,-14.1 16.39,-24.06 30.99,-24.47 l 39.56,-1.12 -7.32,93.21 -40.86,-4.68 c -20.08,-2.31 -33.41,-21.92 -28.16,-41.43"
         style="fill:#f89e63;fill-opacity:1;fill-rule:nonzero;stroke:none"
         id="path262" /><path
         d="m 2139.29,2605.08 c 41.76,-16.93 76.04,-154.41 76.04,-154.41 l -115.49,-90.25 c 0,0 -81.83,128.12 -65.12,183.68 14.18,47.18 51.37,82.55 104.57,60.98"
         style="fill:#406fbf;fill-opacity:1;fill-rule:nonzero;stroke:none"
         id="path264" /><path
         d="m 2099.84,2360.42 c 0,0 -67.35,105.45 -67.37,166.5 0,6.25 0.7,12.03 2.25,17.18 11.26,37.45 37.01,67.46 73.75,67.46 9.55,0 19.84,-2.03 30.82,-6.48 41.76,-16.93 76.04,-154.41 76.04,-154.41 l -13.05,-10.21 -80.78,-63.12 -21.66,-16.92"
         style="fill:#254583;fill-opacity:1;fill-rule:nonzero;stroke:none"
         id="path266" /><path
         d="m 2609.68,382.039 c -12.8,-1.879 -29.7,-6.027 -32.35,-11.43 -0.33,-0.679 -0.59,-1.66 0.35,-3.199 1.75,-2.851 3.87,-4.301 6.47,-4.43 6.13,-0.308 15.51,6.758 25.53,19.059 z m -24.29,-23.277 -1.44,-0.012 c -4.05,0.199 -7.38,2.359 -9.88,6.449 -1.89,3.071 -1.34,5.653 -0.54,7.27 5.02,10.273 37.14,14.043 40.79,14.441 l 2.07,-1.058 -0.15,-2.321 c -6.88,-9.101 -19.79,-24.011 -30.85,-24.769"
         style="fill:#17282f;fill-opacity:1;fill-rule:nonzero;stroke:none"
         id="path268" /><path
         d="m 2584.97,402.98 c -1.82,-0.121 -3.33,-0.839 -4.61,-2.199 -1.88,-1.972 -1.56,-3.269 -1.08,-4.172 2.96,-5.519 20.02,-10.23 30.91,-10.058 -5.84,6.301 -16.59,16.191 -24.34,16.449 z m 27.59,-20.531 c -10.85,-0.738 -32.5,3.762 -37.01,12.153 -0.93,1.738 -1.95,5.23 1.73,9.097 2.34,2.461 5.26,3.653 8.72,3.539 12.99,-0.449 29.48,-20.238 30.18,-21.078 l 0.36,-2.09 -1.63,-1.34 -2.35,-0.281"
         style="fill:#17282f;fill-opacity:1;fill-rule:nonzero;stroke:none"
         id="path270" /><path
         d="m 1383.69,286.738 c -1.68,0.703 -3.1,1.004 -4.19,0.782 -0.52,-0.11 -1.11,-0.372 -1.52,-1.551 -1,-2.821 -0.77,-5.418 0.7,-7.949 3.92,-6.739 17.22,-12.969 36.1,-17.059 -9.85,10.258 -23.23,22.5 -31.09,25.777 z m 8.53,-23.418 c -7.57,3.172 -14.13,7.289 -17.21,12.571 -2.1,3.609 -2.45,7.468 -1.03,11.48 1.05,2.988 3.13,3.988 4.68,4.301 11.41,2.289 38.42,-26.793 43.72,-32.652 l 0.28,-2.438 -2.23,-1.062 c -7.77,1.39 -18.77,3.859 -28.21,7.8"
         style="fill:#17282f;fill-opacity:1;fill-rule:nonzero;stroke:none"
         id="path272" /><path
         d="m 1409.49,298.98 -1.35,0.461 c -2.16,0.618 -3.52,0.469 -4.04,-0.429 -2.97,-5.051 6.53,-25.614 15.21,-36.512 1,9.621 1.9,31.57 -9.82,36.48 z m 10.5,-43.32 -0.68,0.442 c -9.17,9.148 -23.98,36.339 -18.87,45.046 1.12,1.922 3.57,3.872 8.85,2.383 20.45,-5.84 13.89,-44.633 13.61,-46.281 l -1.45,-1.66 -1.46,0.07"
         style="fill:#17282f;fill-opacity:1;fill-rule:nonzero;stroke:none"
         id="path274" /><path
         d="m 1915.47,2897.56 -15.05,9.94 c 0,0 4.44,-15.57 15.05,-9.94"
         style="fill:#17282f;fill-opacity:1;fill-rule:nonzero;stroke:none"
         id="path276" /></g></g></svg>
