<?xml version="1.0" encoding="UTF-8" standalone="no"?>
<!-- Created with Inkscape (http://www.inkscape.org/) -->

<svg
   version="1.1"
   id="svg2"
   xml:space="preserve"
   width="666.66669"
   height="530"
   viewBox="0 0 666.66669 530"
   sodipodi:docname="8030428_3828543.eps"
   xmlns:inkscape="http://www.inkscape.org/namespaces/inkscape"
   xmlns:sodipodi="http://sodipodi.sourceforge.net/DTD/sodipodi-0.dtd"
   xmlns="http://www.w3.org/2000/svg"
   xmlns:svg="http://www.w3.org/2000/svg"><defs
     id="defs6" /><sodipodi:namedview
     id="namedview4"
     pagecolor="#ffffff"
     bordercolor="#666666"
     borderopacity="1.0"
     inkscape:pageshadow="2"
     inkscape:pageopacity="0.0"
     inkscape:pagecheckerboard="0" /><g
     id="g8"
     inkscape:groupmode="layer"
     inkscape:label="ink_ext_XXXXXX"
     transform="matrix(1.3333333,0,0,-1.3333333,0,530)"><g
       id="g10"
       transform="scale(0.1)"><path
         d="M 5000,449.129 H 0 v 2.5 h 5000 v -2.5"
         style="fill:#e7e8e5;fill-opacity:1;fill-rule:nonzero;stroke:none"
         id="path12" /><path
         d="M 1116.67,365.238 H 785.445 v 2.5 h 331.225 v -2.5"
         style="fill:#e7e8e5;fill-opacity:1;fill-rule:nonzero;stroke:none"
         id="path14" /><path
         d="m 1635,293.121 h -301.67 v 2.5 H 1635 v -2.5"
         style="fill:#e7e8e5;fill-opacity:1;fill-rule:nonzero;stroke:none"
         id="path16" /><path
         d="M 951.059,272.379 H 568.543 v 2.5 h 382.516 v -2.5"
         style="fill:#e7e8e5;fill-opacity:1;fill-rule:nonzero;stroke:none"
         id="path18" /><path
         d="M 4499.01,277.84 H 4340 v 2.5 h 159.01 v -2.5"
         style="fill:#e7e8e5;fill-opacity:1;fill-rule:nonzero;stroke:none"
         id="path20" /><path
         d="m 4307.92,277.84 h -393.21 v 2.5 h 393.21 v -2.5"
         style="fill:#e7e8e5;fill-opacity:1;fill-rule:nonzero;stroke:none"
         id="path22" /><path
         d="M 2803.33,366.488 H 2500 v 2.5 h 303.33 v -2.5"
         style="fill:#e7e8e5;fill-opacity:1;fill-rule:nonzero;stroke:none"
         id="path24" /><path
         d="m 3567.62,366.488 h -720.95 v 2.5 h 720.95 v -2.5"
         style="fill:#e7e8e5;fill-opacity:1;fill-rule:nonzero;stroke:none"
         id="path26" /><path
         d="m 439.148,3723.59 c -30.093,0 -54.578,-24.49 -54.578,-54.57 V 954.699 c 0,-30.097 24.485,-54.578 54.578,-54.578 H 2370.14 c 30.08,0 54.57,24.481 54.57,54.578 V 3669.02 c 0,30.08 -24.49,54.57 -54.57,54.57 z M 2370.14,897.621 H 439.148 c -31.472,0 -57.078,25.598 -57.078,57.078 V 3669.02 c 0,31.46 25.606,57.07 57.078,57.07 H 2370.14 c 31.46,0 57.07,-25.61 57.07,-57.07 V 954.699 c 0,-31.48 -25.61,-57.078 -57.07,-57.078"
         style="fill:#e7e8e5;fill-opacity:1;fill-rule:nonzero;stroke:none"
         id="path28" /><path
         d="m 2602.12,3723.59 c -30.09,0 -54.57,-24.49 -54.57,-54.57 V 954.699 c 0,-30.097 24.48,-54.578 54.57,-54.578 h 1930.99 c 30.09,0 54.58,24.481 54.58,54.578 V 3669.02 c 0,30.08 -24.49,54.57 -54.58,54.57 z M 4533.11,897.621 H 2602.12 c -31.47,0 -57.07,25.598 -57.07,57.078 V 3669.02 c 0,31.46 25.6,57.07 57.07,57.07 h 1930.99 c 31.47,0 57.08,-25.61 57.08,-57.07 V 954.699 c 0,-31.48 -25.61,-57.078 -57.08,-57.078"
         style="fill:#e7e8e5;fill-opacity:1;fill-rule:nonzero;stroke:none"
         id="path30" /><path
         d="M 4292.78,1914.6 4139.54,2067.84 2727.65,655.949 2880.89,502.719 4292.78,1914.6"
         style="fill:#e7e8e5;fill-opacity:1;fill-rule:nonzero;stroke:none"
         id="path32" /><path
         d="m 3619.31,1241.13 -153.24,153.25 -208.89,-208.89 140.53,-224.049 221.6,279.689"
         style="fill:#dadbd8;fill-opacity:1;fill-rule:nonzero;stroke:none"
         id="path34" /><path
         d="m 4292.78,1914.6 51.08,-51.08 -1411.89,-1411.891 -51.08,51.09 1411.89,1411.881"
         style="fill:#dadbd8;fill-opacity:1;fill-rule:nonzero;stroke:none"
         id="path36" /><path
         d="M 2880.89,2016.76 2727.65,1863.52 4139.54,451.629 4292.78,604.871 2880.89,2016.76"
         style="fill:#e7e8e5;fill-opacity:1;fill-rule:nonzero;stroke:none"
         id="path38" /><path
         d="m 2880.89,2016.76 51.08,51.08 L 4343.86,655.949 4292.78,604.871 2880.89,2016.76"
         style="fill:#dadbd8;fill-opacity:1;fill-rule:nonzero;stroke:none"
         id="path40" /><path
         d="M 1761.93,1590.21 1642.67,1709.46 543.855,610.648 663.117,491.391 1761.93,1590.21"
         style="fill:#e7e8e5;fill-opacity:1;fill-rule:nonzero;stroke:none"
         id="path42" /><path
         d="M 1237.8,1066.07 1118.54,1185.33 955.973,1022.76 1065.34,848.391 1237.8,1066.07"
         style="fill:#dadbd8;fill-opacity:1;fill-rule:nonzero;stroke:none"
         id="path44" /><path
         d="m 1761.93,1590.21 39.76,-39.76 L 702.871,451.629 663.117,491.391 1761.93,1590.21"
         style="fill:#dadbd8;fill-opacity:1;fill-rule:nonzero;stroke:none"
         id="path46" /><path
         d="M 663.117,1669.71 543.855,1550.45 1642.67,451.629 1761.93,570.891 663.117,1669.71"
         style="fill:#e7e8e5;fill-opacity:1;fill-rule:nonzero;stroke:none"
         id="path48" /><path
         d="m 663.117,1669.71 39.754,39.75 L 1801.69,610.648 1761.93,570.891 663.117,1669.71"
         style="fill:#dadbd8;fill-opacity:1;fill-rule:nonzero;stroke:none"
         id="path50" /><path
         d="M 3188.68,1524.46 H 3012.62 V 451.629 h 176.06 V 1524.46"
         style="fill:#f3f2f1;fill-opacity:1;fill-rule:nonzero;stroke:none"
         id="path52" /><path
         d="M 3188.68,1078.67 H 3012.62 V 950.012 l 176.06,38.039 v 90.619"
         style="fill:#e7e8e5;fill-opacity:1;fill-rule:nonzero;stroke:none"
         id="path54" /><path
         d="m 3188.68,1524.46 h 58.69 V 451.629 h -58.69 V 1524.46"
         style="fill:#e7e8e5;fill-opacity:1;fill-rule:nonzero;stroke:none"
         id="path56" /><path
         d="M 1343.92,1524.46 H 1167.86 V 451.629 h 176.06 V 1524.46"
         style="fill:#f3f2f1;fill-opacity:1;fill-rule:nonzero;stroke:none"
         id="path58" /><path
         d="M 1343.92,1078.67 H 1167.86 V 950.012 l 176.06,38.039 v 90.619"
         style="fill:#e7e8e5;fill-opacity:1;fill-rule:nonzero;stroke:none"
         id="path60" /><path
         d="m 1343.92,1524.46 h 58.69 V 451.629 h -58.69 V 1524.46"
         style="fill:#e7e8e5;fill-opacity:1;fill-rule:nonzero;stroke:none"
         id="path62" /><path
         d="M 3281.13,1367.27 H 1033.61 v -330.22 h 2247.52 v 330.22"
         style="fill:#f3f2f1;fill-opacity:1;fill-rule:nonzero;stroke:none"
         id="path64" /><path
         d="m 3281.13,1037.05 h 32.9805 v 330.219 H 3281.13 Z"
         style="fill:#e7e8e5;fill-opacity:1;fill-rule:nonzero;stroke:none"
         id="path66" /><path
         d="m 2427.31,1703.89 h -439.39 l -310.7,-310.71 V 953.789 l 310.7,-310.699 h 439.39 l 310.7,310.699 v 439.391 l -310.7,310.71"
         style="fill:#fafaf9;fill-opacity:1;fill-rule:nonzero;stroke:none"
         id="path68" /><path
         d="M 2407.22,1655.38 H 2008.01 L 1725.71,1373.1 V 973.879 l 282.3,-282.301 h 399.21 l 282.29,282.301 V 1373.1 l -282.29,282.28"
         style="fill:#dadbd8;fill-opacity:1;fill-rule:nonzero;stroke:none"
         id="path70" /><path
         d="m 1821.89,1127.42 56.22,5.02 c 1.2,-13 3.69,-22.9 7.43,-29.7 6.08,-11.02 14.77,-16.54 26.08,-16.54 8.43,0 14.93,2.81 19.5,8.46 4.56,5.62 6.85,12.17 6.85,19.58 0,7.06 -2.18,13.38 -6.52,18.93 -4.36,5.59 -14.44,10.83 -30.27,15.81 -25.9,8.28 -44.38,19.29 -55.42,33.04 -11.14,13.74 -16.7,31.25 -16.7,52.55 0,13.99 2.84,27.2 8.54,39.65 5.7,12.43 14.27,22.21 25.7,29.33 11.43,7.11 27.1,10.68 47.01,10.68 24.44,0 43.07,-6.48 55.89,-19.41 12.83,-12.93 20.46,-33.52 22.89,-61.73 l -55.69,-4.65 c -1.48,12.25 -4.59,21.17 -9.33,26.75 -4.73,5.56 -11.28,8.35 -19.62,8.35 -6.87,0 -12.04,-2.08 -15.52,-6.23 -3.49,-4.16 -5.22,-9.18 -5.22,-15.14 0,-4.32 1.44,-8.21 4.3,-11.69 2.79,-3.58 9.39,-6.93 19.83,-10.03 25.82,-7.92 44.32,-15.94 55.49,-24.04 11.17,-8.11 19.3,-18.17 24.39,-30.18 5.09,-12.01 7.63,-25.43 7.63,-40.28 0,-17.46 -3.39,-33.56 -10.17,-48.28 -6.78,-14.74 -16.26,-25.9 -28.44,-33.53 -12.17,-7.61 -27.51,-11.4 -46.03,-11.4 -32.53,0 -55.04,8.9 -67.56,26.72 -12.52,17.83 -19.61,40.49 -21.26,67.96"
         style="fill:#ffffff;fill-opacity:1;fill-rule:nonzero;stroke:none"
         id="path72" /><path
         d="m 2011.66,1309.58 h 179.59 v -67.22 h -60.26 v -204.99 h -59.08 v 204.99 h -60.25 v 67.22"
         style="fill:#ffffff;fill-opacity:1;fill-rule:nonzero;stroke:none"
         id="path74" /><path
         d="m 2260.5,1172.93 c 0,-27.49 3.58,-47.24 10.75,-59.24 7.18,-12.01 16.94,-18.02 29.28,-18.02 12.7,0 22.53,5.88 29.48,17.64 6.96,11.76 10.44,32.86 10.44,63.32 0,25.63 -3.63,44.36 -10.89,56.17 -7.27,11.83 -17.11,17.74 -29.54,17.74 -11.92,0 -21.48,-6.01 -28.7,-18.02 -7.22,-12 -10.82,-31.87 -10.82,-59.59 z m -59.08,0.36 c 0,44.45 8.69,79.03 26.08,103.81 17.39,24.75 41.6,37.13 72.64,37.13 31.83,0 56.35,-12.16 73.56,-36.49 17.22,-24.33 25.83,-58.4 25.83,-102.22 0,-31.81 -3.77,-57.9 -11.29,-78.27 -7.52,-20.36 -18.39,-36.21 -32.6,-47.52 -14.22,-11.34 -31.93,-16.99 -53.15,-16.99 -21.56,0 -39.41,4.88 -53.54,14.65 -14.13,9.78 -25.58,25.27 -34.36,46.44 -8.79,21.15 -13.17,47.65 -13.17,79.46"
         style="fill:#ffffff;fill-opacity:1;fill-rule:nonzero;stroke:none"
         id="path76" /><path
         d="m 2490.44,1193.53 h 14.47 c 11.39,0 19.39,2.82 24,8.45 4.61,5.63 6.92,12.84 6.92,21.63 0,8.54 -2.01,15.79 -6.01,21.72 -3.99,5.94 -11.52,8.91 -22.56,8.91 h -16.82 z m -59.35,116.05 h 98.21 c 21.4,0 37.41,-7.25 48.07,-21.72 10.65,-14.49 15.97,-35.1 15.97,-61.82 0,-27.49 -5.81,-48.98 -17.41,-64.45 -11.61,-15.48 -29.33,-23.21 -53.15,-23.21 h -32.34 v -101.01 h -59.35 v 272.21"
         style="fill:#ffffff;fill-opacity:1;fill-rule:nonzero;stroke:none"
         id="path78" /><path
         d="m 4113.47,3248.14 c -10.29,0 -20.67,-1.28 -30.95,-3.73 l -0.13,-0.04 c -13.17,29.51 -42.48,48.72 -82.03,48.72 -28.97,0 -58.58,-10.27 -84.36,-27.35 -16.79,56.33 -67.08,94.04 -137.34,94.04 -99.86,0 -204.47,-76.33 -242.28,-173.92 -8.78,2.02 -18.14,3.12 -28.14,3.12 -3.13,0 -6.27,-0.1 -9.4,-0.31 -86.17,-5.7 -79.69,-135.71 6.66,-135.71 h 614 c 21.55,0 42.03,10.07 54.71,27.49 10.62,14.58 18.86,30.68 23.85,47.6 19.58,66.34 -18.32,120.09 -84.59,120.09"
         style="fill:#ededeb;fill-opacity:1;fill-rule:nonzero;stroke:none"
         id="path80" /><path
         d="m 1713.59,3824.33 c -13.42,88.79 -84.2,150.7 -187.72,150.7 -84.8,0 -172.18,-41.54 -237.22,-105.45 l -0.06,-0.06 c -16.81,15.34 -40.21,24.48 -68.49,24.48 -71.77,0 -147.13,-58.19 -168.31,-129.96 -3.34,-11.31 -4.96,-22.19 -5.34,-32.65 l -0.15,-0.09 -1.46,-1 c -59.453,-40.42 -29.58,-133.84 42.32,-133.84 h 632.31 c 24.47,0 47.74,11.88 61.04,32.43 9.9,15.28 17.68,31.73 22.73,48.86 22.59,76.51 -17.18,139.41 -89.65,146.58"
         style="fill:#ededeb;fill-opacity:1;fill-rule:nonzero;stroke:none"
         id="path82" /><path
         d="m 2468.85,2832.66 c -18.45,122.07 -115.77,207.2 -258.1,207.2 -116.6,0 -236.74,-57.11 -326.17,-144.99 l -0.08,-0.07 c -23.1,21.09 -55.27,33.64 -94.16,33.64 -98.68,0 -202.3,-80 -231.42,-178.69 -4.58,-15.53 -6.82,-30.51 -7.33,-44.88 l -0.21,-0.13 -2.01,-1.36 c -81.83,-55.65 -41.24,-184.03 57.71,-184.03 h 833.2 c 69.15,0 131.53,44.31 151.47,110.52 l 0.37,1.24 c 31.04,105.2 -23.63,191.69 -123.27,201.55"
         style="fill:#f3f2f1;fill-opacity:1;fill-rule:nonzero;stroke:none"
         id="path84" /><path
         d="M 4438.89,113.23 C 4438.89,50.6914 3570.83,0 2500,0 1429.18,0 561.109,50.6914 561.109,113.23 c 0,62.54 868.071,113.239 1938.891,113.239 1070.83,0 1938.89,-50.699 1938.89,-113.239"
         style="fill:#f3f2f1;fill-opacity:1;fill-rule:nonzero;stroke:none"
         id="path86" /><path
         d="m 1287.43,3200.18 v 312.12 l -265.24,-312.12 z m 0,-213.79 H 785.445 v 226.64 l 501.985,596.7 h 240.17 v -609.55 h 124.48 V 2986.39 H 1527.6 v -185.36 h -240.17 v 185.36"
         style="fill:#17282f;fill-opacity:1;fill-rule:nonzero;stroke:none"
         id="path88" /><path
         d="m 3649.1,3809.73 v -1008.7 h -278.73 v 660.96 c -45.11,-34.28 -88.74,-62.02 -130.91,-83.21 -42.18,-21.2 -95.05,-41.5 -158.64,-60.89 v 225.96 c 93.8,30.21 166.65,66.53 218.52,108.94 51.86,42.38 92.45,94.7 121.77,156.94 h 227.99"
         style="fill:#17282f;fill-opacity:1;fill-rule:nonzero;stroke:none"
         id="path90" /><path
         d="m 3118.17,2543.68 c -4.4,-7.85 -7.77,-13.53 -11.69,-20.08 -3.79,-6.31 -7.77,-12.41 -11.7,-18.55 -7.88,-12.23 -16.24,-24.08 -24.74,-35.86 -17.12,-23.44 -35.33,-46.22 -55.12,-68.03 -19.74,-21.85 -40.82,-42.95 -64.1,-62.56 -23.12,-19.73 -48.29,-38.16 -76.68,-53.76 -5.84,-3.37 -17.23,-9.42 -26.95,-12.94 -10.01,-3.78 -20,-6.55 -29.77,-8.33 -19.59,-3.58 -37.97,-3.81 -55.28,-2.65 -34.57,2.44 -64.89,11.4 -93.38,21.62 -28.32,10.77 -54.72,23.55 -79.82,37.97 -25.25,14.64 -48.52,29.85 -72.03,48.61 -15.08,12.02 -17.56,34.01 -5.53,49.09 9.7,12.15 25.87,16.12 39.67,10.9 l 1.85,-0.72 c 47.4,-18 97.95,-35.22 145.27,-44.05 23.58,-4.74 46.85,-6.63 66.56,-5.57 9.78,0.65 18.65,2.24 25.52,4.72 3.45,1.21 6.45,2.46 8.96,3.89 2.84,1.62 3.34,2.16 8.97,6.03 36.12,25.24 70.3,60.45 101.76,98.59 15.66,19.22 30.95,39.14 45.5,59.71 7.35,10.23 14.39,20.7 21.45,31.08 l 10.3,15.65 9.42,14.7 1.58,2.46 c 20.85,32.54 64.13,42.02 96.67,21.17 31.29,-20.06 41.15,-61.04 23.31,-93.09"
         style="fill:#f46b74;fill-opacity:1;fill-rule:nonzero;stroke:none"
         id="path92" /><path
         d="m 2567.4,2421.01 -76.7,50.76 -32.47,-101.98 c 0,0 49.51,-28.61 98.56,5.03 l 10.61,46.19"
         style="fill:#f46b74;fill-opacity:1;fill-rule:nonzero;stroke:none"
         id="path94" /><path
         d="m 2420.27,2456.49 -5.99,-32.46 c -2.17,-11.77 2.57,-23.76 12.21,-30.87 l 31.74,-23.37 32.47,101.98 -30.84,9.06 c -17.8,5.24 -36.23,-6.09 -39.59,-24.34"
         style="fill:#f46b74;fill-opacity:1;fill-rule:nonzero;stroke:none"
         id="path96" /><path
         d="m 3120.6,2706.25 c -78.09,-12.37 -157.1,-104.07 -204.59,-189.54 52.21,-90.95 135.34,-124.17 135.34,-124.17 0,0 92.6,87.63 130.11,152.34 37.51,64.72 12.61,173.01 -60.86,161.37"
         style="fill:#406fbf;fill-opacity:1;fill-rule:nonzero;stroke:none"
         id="path98" /><path
         d="m 3037.92,2398.95 c -4.6,2.41 -10.2,5.54 -16.52,9.45 -27.24,16.82 -67.9,48.05 -99.51,98.51 -2,3.19 -3.95,6.45 -5.88,9.8 38.79,69.82 98.63,143.8 161.81,175.29 0.05,0 0.27,0 0.65,0 1.29,0 4.37,0.02 8.84,0.14 -37.51,-27.22 -61.56,-72.66 -61.17,-120.97 0.41,-49.72 3.17,-108.72 11.78,-172.22"
         style="fill:#3563b7;fill-opacity:1;fill-rule:nonzero;stroke:none"
         id="path100" /><path
         d="m 2919.01,2536.32 c 0,0 -14.74,-17.25 -16.69,-27.89 19.49,-30.01 65.75,-110.29 152.23,-127.06 14.66,8.87 18,21.32 18,21.32 0,0 -99.35,49.05 -153.54,133.63"
         style="fill:#17282f;fill-opacity:1;fill-rule:nonzero;stroke:none"
         id="path102" /><path
         d="m 3435.3,2708.96 c -91.97,14.94 -197.81,19.41 -285.66,8.15 -71,-9.1 -124.08,-74.36 -123.5,-145.94 0.51,-62.61 4.76,-139.94 19.72,-222.42 -26.09,-137.58 -35.47,-324.38 -7.97,-365.6 l 491.96,-6.95 c 21.04,58.87 -5.41,313.26 22.65,578.98 7.85,74.32 -43.42,141.78 -117.2,153.78"
         style="fill:#406fbf;fill-opacity:1;fill-rule:nonzero;stroke:none"
         id="path104" /><path
         d="m 3257.8,1998.14 c -3.36,0 -6.71,0.01 -10.06,0.02 -24.94,222.65 1.56,575.88 1.83,579.51 l 9.98,-0.77 c -0.28,-3.62 -26.8,-357.17 -1.75,-578.76"
         style="fill:#3563b7;fill-opacity:1;fill-rule:nonzero;stroke:none"
         id="path106" /><path
         d="m 3196.47,2710.2 c 16.94,6.31 10.62,15.72 10.62,15.72 0,0 -76.82,0 -129.91,-14.32 -8.12,-8.62 0.62,-19.6 0.62,-19.6 0,0 68.4,-0.57 118.67,18.2"
         style="fill:#17282f;fill-opacity:1;fill-rule:nonzero;stroke:none"
         id="path108" /><path
         d="m 3208.23,2722.23 c -0.05,0.85 -0.23,1.59 -0.44,2.19 4.02,1.2 9.03,1.5 13.05,1.5 1.23,0 2.36,-0.03 3.35,-0.07 -1.79,-1.1 -3.7,-2.16 -5.74,-3.16 -3.42,-0.13 -6.83,-0.29 -10.22,-0.46"
         style="fill:#c3c5c2;fill-opacity:1;fill-rule:nonzero;stroke:none"
         id="path110" /><path
         d="m 3183.31,2556.45 c 0,0 -58.02,80.61 4.83,150.86 2.82,0.91 5.61,1.87 8.33,2.89 2.3,0.85 4.16,1.76 5.68,2.7 -4.36,-4.54 -7.1,-10.18 -8.18,-16.07 -5.03,-23.52 24.05,-60.47 44.65,-83.11 -33.59,-0.23 -55.31,-57.27 -55.31,-57.27 m 23.09,160.14 c 1.56,2.05 1.93,4.03 1.83,5.64 3.39,0.17 6.8,0.33 10.22,0.46 -1.67,-0.82 -3.42,-1.61 -5.27,-2.37 -2.49,-1.02 -4.76,-2.28 -6.78,-3.73"
         style="fill:#3563b7;fill-opacity:1;fill-rule:nonzero;stroke:none"
         id="path112" /><path
         d="m 3188.14,2707.31 c 4,4.46 8.49,8.89 13.5,13.25 1.18,1.82 3.44,3.04 6.15,3.86 0.21,-0.6 0.39,-1.34 0.44,-2.19 0.1,-1.61 -0.27,-3.59 -1.83,-5.64 -1.56,-1.12 -2.98,-2.36 -4.25,-3.69 -1.52,-0.94 -3.38,-1.85 -5.68,-2.7 -2.72,-1.02 -5.51,-1.98 -8.33,-2.89"
         style="fill:#111d23;fill-opacity:1;fill-rule:nonzero;stroke:none"
         id="path114" /><path
         d="m 3194.05,2697.21 c -8.24,-35.76 63.84,-103.3 63.84,-103.3 0,0 127.5,61.59 135.57,96.93 l -199.41,6.37"
         style="fill:#ffffff;fill-opacity:1;fill-rule:nonzero;stroke:none"
         id="path116" /><path
         d="m 3538.79,2299.62 c -33.75,30.73 -53.28,88.86 -59.32,133.42 27.43,-30.43 50.29,-52.7 50.29,-52.7 0,0 4.11,1.58 11.09,5.01 -1.07,-29.38 -1.7,-58.06 -2.06,-85.73"
         style="fill:#3563b7;fill-opacity:1;fill-rule:nonzero;stroke:none"
         id="path118" /><path
         d="m 3366.94,2903.14 -131.64,-86.37 c 15.58,-38.26 22.86,-78.08 -22.12,-96.45 -26.05,-10.63 -26.52,-47.71 -0.3,-57.92 10.55,-4.11 24.08,-7.16 41.24,-8.74 45.26,-4.17 92.66,4.31 123.82,19.7 17.51,8.65 22.48,30.6 11.35,46.65 -34.15,49.25 -29.98,134.02 -22.35,183.13"
         style="fill:#f46b74;fill-opacity:1;fill-rule:nonzero;stroke:none"
         id="path120" /><path
         d="m 3245.51,2784.44 c -0.14,0.76 -0.29,1.51 -0.45,2.27 0.17,-0.76 0.33,-1.51 0.47,-2.26 0,-0.01 -0.01,-0.01 -0.02,-0.01"
         style="fill:#c3c5c2;fill-opacity:1;fill-rule:nonzero;stroke:none"
         id="path122" /><path
         d="m 3245.53,2784.45 c -0.14,0.75 -0.3,1.5 -0.47,2.26 -1.83,8.82 -4.83,17.89 -8.42,26.92 15.91,-9.07 33.85,-14.1 52.05,-14.1 0.45,0 0.91,0.01 1.36,0.01 -13.59,-8.5 -30.07,-14.27 -44.52,-15.09"
         style="fill:#ea5b5b;fill-opacity:1;fill-rule:nonzero;stroke:none"
         id="path124" /><path
         d="m 3220.76,3067.9 c 33.56,0.67 42.65,-47.42 30.38,-63.66 25.39,-5.53 37.64,-35.24 30.34,-50.31 -7.31,-15.08 -37.03,-31.54 -63.28,-24.94 -44.86,11.27 -52.65,48.54 -40.36,65.52 -24.39,20.15 -12.18,80.85 42.92,73.39"
         style="fill:#17282f;fill-opacity:1;fill-rule:nonzero;stroke:none"
         id="path126" /><path
         d="m 3178.5,2955.97 c -4.05,6.94 -5.9,14.26 -5.89,21.01 0.01,6.73 1.87,12.89 5.23,17.53 v 0 0 c -7.91,6.53 -11.96,17.32 -11.97,28.66 0,12.51 4.93,25.7 15.08,34.61 6.76,-1.66 14.6,-3.34 23.54,-5.03 -15.67,-28.36 -23.75,-63.25 -25.99,-96.78"
         style="fill:#405158;fill-opacity:1;fill-rule:nonzero;stroke:none"
         id="path128" /><path
         d="m 3409.62,2988.66 c -10.05,-78.93 -11.92,-125.68 -54.66,-163.4 -64.28,-56.73 -159.85,-13.14 -173.61,67.43 -12.38,72.51 6.14,189.4 85.88,215.18 78.55,25.4 152.45,-40.28 142.39,-119.21"
         style="fill:#f46b74;fill-opacity:1;fill-rule:nonzero;stroke:none"
         id="path130" /><path
         d="m 3400.53,2928.27 c -33.56,0.49 -40.97,48.88 -28.13,64.68 -25.18,6.41 -36.39,36.53 -28.56,51.35 7.82,14.81 38.11,30.22 64.11,22.7 44.43,-12.83 50.92,-50.35 38.05,-66.89 23.66,-20.99 9.33,-81.22 -45.47,-71.84"
         style="fill:#17282f;fill-opacity:1;fill-rule:nonzero;stroke:none"
         id="path132" /><path
         d="m 3411.65,2927.29 c -3.11,0 -6.39,0.25 -9.83,0.77 -0.42,0.07 -0.85,0.14 -1.29,0.21 -23.4,0.34 -34.09,23.97 -34.06,43.6 0.01,8.53 2.04,16.3 5.93,21.08 v 0 0 c -19.87,5.06 -31.04,24.88 -31.03,40.3 0.01,1.11 0.07,2.21 0.19,3.27 9.79,-0.47 18.41,-0.66 25.96,-0.66 11.29,0 20.21,0.43 27.14,1.03 31.27,-9.52 51.05,-16.99 57.17,-19.37 -0.23,-6.75 -2.3,-12.88 -5.83,-17.41 v 0 0 c 7.29,-6.47 10.98,-16.67 10.98,-27.42 0,-21.6 -14.92,-45.4 -45.33,-45.4"
         style="fill:#405158;fill-opacity:1;fill-rule:nonzero;stroke:none"
         id="path134" /><path
         d="m 3340.05,2972.77 c -11.46,0 -20.05,3.25 -20.05,3.25 0,0 3.95,1.11 9.16,1.11 4.64,0 10.27,-0.88 14.98,-4.22 -1.39,-0.1 -2.76,-0.14 -4.09,-0.14"
         style="fill:#ea5b5b;fill-opacity:1;fill-rule:nonzero;stroke:none"
         id="path136" /><path
         d="m 3340.13,2962.02 c -12.03,1.96 -20.49,8.2 -20.49,8.2 0,0 0.34,0.02 0.94,0.02 3.17,0 13.58,-0.61 19.55,-8.22"
         style="fill:#ea5b5b;fill-opacity:1;fill-rule:nonzero;stroke:none"
         id="path138" /><path
         d="m 3185.55,2978.46 c -0.6,0 -1.22,0.05 -1.86,0.15 2.14,3.33 4.71,4.21 6.82,4.21 2.36,0 4.17,-1.11 4.17,-1.11 0,0 -3.92,-3.25 -9.13,-3.25"
         style="fill:#ea5b5b;fill-opacity:1;fill-rule:nonzero;stroke:none"
         id="path140" /><path
         d="m 3185.52,2967.72 c 2.71,7.6 7.43,8.21 8.88,8.21 0.28,0 0.44,-0.02 0.44,-0.02 0,0 -3.85,-6.24 -9.32,-8.19"
         style="fill:#ea5b5b;fill-opacity:1;fill-rule:nonzero;stroke:none"
         id="path142" /><path
         d="m 3433.83,2908.22 c -10.49,-18.44 -27.14,-30.38 -42.27,-34.78 -22.75,-6.63 -31.85,16.13 -23.61,39.81 7.41,21.31 28.18,50.45 50.1,46.6 21.59,-3.79 27.78,-30.52 15.78,-51.63"
         style="fill:#f46b74;fill-opacity:1;fill-rule:nonzero;stroke:none"
         id="path144" /><path
         d="m 3304.05,2975.45 c -0.42,-6.46 -4.19,-11.44 -8.41,-11.12 -4.22,0.31 -7.31,5.8 -6.89,12.25 0.43,6.46 4.19,11.44 8.42,11.13 4.22,-0.32 7.3,-5.8 6.88,-12.26"
         style="fill:#17282f;fill-opacity:1;fill-rule:nonzero;stroke:none"
         id="path146" /><path
         d="m 3272.02,2858.1 c -8.26,-1.56 -15.73,1.57 -16.7,6.98 -0.97,5.41 4.93,11.06 13.19,12.62 8.25,1.55 15.73,-1.58 16.7,-6.99 0.97,-5.41 -4.94,-11.05 -13.19,-12.61"
         style="fill:#17282f;fill-opacity:1;fill-rule:nonzero;stroke:none"
         id="path148" /><path
         d="m 3216.46,2982.54 c -0.42,-6.45 -4.19,-11.44 -8.41,-11.12 -4.22,0.31 -7.3,5.8 -6.88,12.25 0.42,6.47 4.19,11.44 8.41,11.13 4.22,-0.32 7.3,-5.8 6.88,-12.26"
         style="fill:#17282f;fill-opacity:1;fill-rule:nonzero;stroke:none"
         id="path150" /><path
         d="m 3236.42,2918.14 c -46.85,-3.2 -55.78,-26.05 -47.62,-36.04 8.16,-10 28.23,-0.18 28.23,-0.18 0,0 37.83,-8.07 48.98,3.96 17.88,-7.61 45.15,6.62 37.49,17.42 -7.66,10.8 -27.05,17.58 -67.08,14.84"
         style="fill:#17282f;fill-opacity:1;fill-rule:nonzero;stroke:none"
         id="path152" /><path
         d="m 3199.89,2877.61 c -4.23,0 -8.34,1.12 -11.09,4.49 -1.72,2.11 -2.68,4.79 -2.69,7.73 -0.02,11.03 13.34,25.79 50.31,28.31 6.03,0.41 11.59,0.61 16.72,0.61 28.89,0 43.86,-6.28 50.36,-15.45 0.91,-1.29 1.33,-2.62 1.32,-3.97 -0.02,-7.7 -13.93,-15.6 -27.51,-15.6 -3.91,0 -7.78,0.65 -11.3,2.15 -4.76,-5.14 -14.38,-6.61 -23.84,-6.61 -12.71,0 -25.14,2.65 -25.14,2.65 0,0 -8.82,-4.31 -17.14,-4.31"
         style="fill:#405158;fill-opacity:1;fill-rule:nonzero;stroke:none"
         id="path154" /><path
         d="m 3237.8,2975.94 c 0,0 -17.12,-36.15 -34.47,-52.92 10.73,-11.52 30.48,-8.09 30.48,-8.09 l 3.99,61.01"
         style="fill:#f14358;fill-opacity:1;fill-rule:nonzero;stroke:none"
         id="path156" /><path
         d="m 3318.12,3009.24 1.83,0.6 c 1.75,1.14 2.24,3.49 1.08,5.26 -11.57,17.67 -29.12,17.94 -29.86,17.95 -2.11,0.01 -3.8,-1.69 -3.79,-3.79 0.01,-2.09 1.71,-3.8 3.8,-3.82 0.58,-0.01 14.27,-0.37 23.5,-14.47 0.78,-1.19 2.12,-1.81 3.44,-1.73"
         style="fill:#17282f;fill-opacity:1;fill-rule:nonzero;stroke:none"
         id="path158" /><path
         d="m 3187.79,3016.71 c 1.23,-0.01 2.44,0.57 3.18,1.66 9.33,13.87 23.02,13.89 23.6,13.89 2.1,-0.02 3.81,1.65 3.82,3.74 0.01,2.09 -1.66,3.82 -3.75,3.86 -0.76,0 -18.3,0.17 -29.99,-17.2 -1.17,-1.74 -0.7,-4.11 1.04,-5.28 l 2.1,-0.67"
         style="fill:#17282f;fill-opacity:1;fill-rule:nonzero;stroke:none"
         id="path160" /><path
         d="m 3316.89,1167.62 c 22.36,360.77 17.43,731.01 -21.49,811.6 l -257.51,3.93 c 0,0 31.91,-603.25 42.04,-843.57 10.5,-249.869 32.84,-899.631 32.84,-899.631 l 148.98,-1.828 c 0,0 87.56,650.399 55.14,929.499"
         style="fill:#17282f;fill-opacity:1;fill-rule:nonzero;stroke:none"
         id="path162" /><path
         d="m 3321.51,1249.81 c 0.31,6.32 0.62,12.62 0.93,18.92 l 0.04,-0.04 c -0.3,-6.27 -0.61,-12.55 -0.92,-18.83 l -0.05,-0.05"
         style="fill:#c3c5c2;fill-opacity:1;fill-rule:nonzero;stroke:none"
         id="path164" /><path
         d="m 3319.49,1210.92 c -0.01,0.05 -0.03,0.11 -0.04,0.17 0.72,12.91 1.41,25.83 2.06,38.72 l 0.05,0.05 c -0.66,-12.96 -1.34,-25.96 -2.07,-38.94"
         style="fill:#a7aaa9;fill-opacity:1;fill-rule:nonzero;stroke:none"
         id="path166" /><path
         d="m 3322.48,1268.69 -0.04,0.04 c 2.76,57.84 4.8,115.21 6.1,170.86 0.01,-0.05 0.01,-0.04 0.01,-0.08 -1.28,-55.64 -3.32,-112.98 -6.07,-170.82"
         style="fill:#b1b3b1;fill-opacity:1;fill-rule:nonzero;stroke:none"
         id="path168" /><path
         d="m 3319.45,1211.09 c -30.29,115.84 -62.3,306.28 -30.85,428.3 13.07,-64.89 26.77,-133.32 39.94,-199.8 -1.3,-55.65 -3.34,-113.02 -6.1,-170.86 -0.31,-6.3 -0.62,-12.6 -0.93,-18.92 -0.65,-12.89 -1.34,-25.81 -2.06,-38.72"
         style="fill:#111d23;fill-opacity:1;fill-rule:nonzero;stroke:none"
         id="path170" /><path
         d="m 3259.72,218.988 -131.06,1.68 c -8.01,0.141 -16.62,-1.68 -23.19,-6.879 -37.93,-29.93 -66.88,-30.898 -109.99,-38.617 -51.68,-9.262 -26.11,-61.231 11.98,-61.832 63.01,-1 57.78,1.32 111.5,0.48 12.13,-0.199 37.26,-0.48 37.26,-0.48 l 16.83,17.109 14.84,-17.109 c 0,0 41.25,0 68.76,0 7.61,0 13.65,6.281 12.84,13.851 l -9.77,91.797"
         style="fill:#17282f;fill-opacity:1;fill-rule:nonzero;stroke:none"
         id="path172" /><path
         d="m 3270.32,206.039 c -2.32,0.41 -171.88,5.41 -171.88,5.41 l -6.94,60.84 188.06,-4.168 -9.24,-62.082"
         style="fill:#406fbf;fill-opacity:1;fill-rule:nonzero;stroke:none"
         id="path174" /><path
         d="m 3619.27,1167.62 c -27.58,360.77 -39.34,728 -89.42,808.58 l -310.57,4 c 0,0 123.52,-600.3 166.92,-840.62 45.1,-249.869 166.52,-899.631 166.52,-899.631 l 149.23,-1.828 c 0,0 -11.61,650.399 -82.68,929.499"
         style="fill:#17282f;fill-opacity:1;fill-rule:nonzero;stroke:none"
         id="path176" /><path
         d="m 3709.3,218.988 -131.06,1.68 c -8.01,0.141 -16.61,-1.68 -23.19,-6.879 -37.93,-29.93 -20.59,-30.898 -63.69,-38.617 -51.68,-9.262 -26.12,-61.231 11.98,-61.832 63,-1 57.77,1.32 111.5,0.48 12.13,-0.199 58.33,-0.48 58.33,-0.48 l 7.78,17.109 10.28,-17.109 h 15.36 c 7.46,0 13.28,6.469 12.48,13.89 l -9.77,91.758"
         style="fill:#17282f;fill-opacity:1;fill-rule:nonzero;stroke:none"
         id="path178" /><path
         d="m 3719.15,206.039 c -2.38,0.41 -172.69,5.41 -172.69,5.41 l -16.05,60.84 188.68,-4.168 0.06,-62.082"
         style="fill:#406fbf;fill-opacity:1;fill-rule:nonzero;stroke:none"
         id="path180" /><path
         d="m 3233.15,2732.67 c 0,0 -36.92,-65.67 5.47,-118.95 -33.59,-0.22 -55.59,-36.43 -55.59,-36.43 0,0 -44.72,89.78 21.32,149.58 4.67,7.22 28.8,5.8 28.8,5.8"
         style="fill:#406fbf;fill-opacity:1;fill-rule:nonzero;stroke:none"
         id="path182" /><path
         d="m 3543.32,1948.77 c -175.72,-7.27 -377.25,-9.49 -503.26,0.01 -1.39,0.11 -2.67,0.75 -3.48,1.89 -7.88,11.19 -11.76,30.41 -10.85,46.46 0.14,2.46 2.31,4.31 4.78,4.24 166.33,-4.46 331.6,-4.23 505.37,0.04 1.95,0.05 3.78,-1.11 4.5,-2.92 5.55,-14.06 8.5,-29.31 7.45,-45.36 -0.16,-2.38 -2.13,-4.26 -4.51,-4.36"
         style="fill:#17282f;fill-opacity:1;fill-rule:nonzero;stroke:none"
         id="path184" /><path
         d="m 3255.89,1942.46 c -81.55,0 -156.93,1.88 -215.83,6.32 -1.39,0.11 -2.67,0.75 -3.48,1.89 -7.14,10.14 -10.99,26.88 -10.98,41.87 0,1.55 0.05,3.09 0.13,4.59 0.14,2.42 2.23,4.24 4.64,4.24 0.05,0 0.09,0 0.14,0 81.9,-2.19 163.55,-3.25 246.09,-3.25 85.07,0 171.08,1.12 259.28,3.29 0.04,0 0.08,0 0.12,0 1.9,0 3.67,-1.14 4.38,-2.92 4.79,-12.13 7.65,-25.16 7.66,-38.83 0,-2.16 -0.07,-4.34 -0.21,-6.53 -0.16,-2.38 -2.13,-4.26 -4.51,-4.36 -93.59,-3.87 -194.51,-6.31 -287.43,-6.31"
         style="fill:#111d23;fill-opacity:1;fill-rule:nonzero;stroke:none"
         id="path186" /><path
         d="m 3199.98,2004.18 c 0,0 -3.78,-40.25 5.31,-65.89 38.13,-5.9 116.35,-1.47 116.35,-1.47 0,0 2.09,37.21 -2.48,66.43 -59.96,2.79 -119.18,0.93 -119.18,0.93"
         style="fill:#ffffff;fill-opacity:1;fill-rule:nonzero;stroke:none"
         id="path188" /><path
         d="m 3551.33,2608.38 5.67,-5.05 4.52,-4.2 8.46,-8.16 c 5.51,-5.41 10.55,-10.88 15.62,-16.37 10.03,-10.94 19.5,-22.14 28.48,-33.53 17.96,-22.84 34.66,-46.31 49.61,-70.7 15,-24.34 29.08,-49.13 41.38,-74.7 12.75,-25.34 23.97,-51.32 33.96,-77.68 2.64,-7.04 4.74,-11.35 8.58,-23.46 3.23,-10.36 5.22,-20.48 6.34,-30.09 2.21,-19.35 1.29,-37.01 -0.7,-53.55 -4.01,-33.05 -13.52,-61.74 -23.91,-89.11 -10.91,-27.16 -23.42,-52.67 -37.46,-77.02 -14.17,-24.52 -28.88,-47.33 -46.73,-70.34 -11.84,-15.27 -33.81,-18.04 -49.08,-6.21 -12.17,9.45 -16.4,25.34 -11.61,39.12 l 0.6,1.7 c 16.52,47.32 33.03,96.98 42.39,143.9 4.9,23.32 7.75,46.57 7.55,66.46 -0.14,9.89 -1.32,18.9 -3.2,25.75 -2.22,7.92 -2.65,7.37 -9.75,21.71 -22.44,44.43 -47.04,87.4 -74.81,127.63 -13.73,20.22 -28.37,39.59 -43.38,58.26 -7.44,9.42 -15.29,18.32 -22.94,27.11 l -11.58,12.64 -5.61,5.9 -2.64,2.68 -1.65,1.68 c -29.17,25.38 -32.24,69.58 -6.87,98.76 25.37,29.16 69.59,32.24 98.76,6.87"
         style="fill:#f46b74;fill-opacity:1;fill-rule:nonzero;stroke:none"
         id="path190" /><path
         d="m 3465.06,2695.02 c 77.9,-13.5 155.58,-106.33 201.82,-192.47 -53.53,-90.19 -137.12,-122.21 -137.12,-122.21 0,0 -91.32,88.97 -127.89,154.21 -36.57,65.26 -10.1,173.17 63.19,160.47"
         style="fill:#406fbf;fill-opacity:1;fill-rule:nonzero;stroke:none"
         id="path192" /><path
         d="m 3664.16,2522.19 c 0,0 14.49,-17.46 16.29,-28.13 -19.92,-29.72 -67.34,-109.32 -154.05,-124.84 -14.54,9.09 -17.7,21.57 -17.7,21.57 0,0 100.05,47.62 155.46,131.4"
         style="fill:#17282f;fill-opacity:1;fill-rule:nonzero;stroke:none"
         id="path194" /><path
         d="m 3408.68,2701.97 c -16.11,6.91 -9.68,16.09 -9.68,16.09 0,0 74.1,-2.63 124.8,-18.75 7.53,-8.9 -1.3,-19.56 -1.3,-19.56 0,0 -65.99,1.75 -113.82,22.22"
         style="fill:#17282f;fill-opacity:1;fill-rule:nonzero;stroke:none"
         id="path196" /><path
         d="m 3397.76,2714.37 c -1.87,0.24 -3.74,0.47 -5.63,0.7 -0.79,1.69 -1.74,3.35 -2.84,4.94 0,0 2.25,0.55 5.17,0.55 2.91,0 6.48,-0.55 9.15,-2.71 -2.97,0.15 -4.61,0.21 -4.61,0.21 0,0 -1.04,-1.48 -1.24,-3.69"
         style="fill:#c3c5c2;fill-opacity:1;fill-rule:nonzero;stroke:none"
         id="path198" /><path
         d="m 3351.83,2552.29 c 0,0 -22.55,61.1 -56.14,61.32 0,0.01 0,0.01 0.01,0.01 38.27,21.08 92.55,54.54 97.75,77.2 2.68,7.68 2.36,16.39 -1.32,24.25 1.89,-0.23 3.76,-0.46 5.63,-0.7 -0.28,-3.16 1.13,-7.82 9.68,-11.84 0.9,-10.3 0.55,-20.54 -0.72,-30.56 -13.08,-17 -20.31,-41.18 -21.11,-66.48 -15.65,-31.77 -33.78,-53.2 -33.78,-53.2"
         style="fill:#3563b7;fill-opacity:1;fill-rule:nonzero;stroke:none"
         id="path200" /><path
         d="m 3295.7,2613.62 c 26.68,16.62 46.12,34.54 60.13,50.85 8,2.61 15.43,5.59 22.11,8.89 7.69,3.8 12.96,10.16 15.51,17.46 -5.2,-22.66 -59.48,-56.12 -97.75,-77.2"
         style="fill:#c3c5c2;fill-opacity:1;fill-rule:nonzero;stroke:none"
         id="path202" /><path
         d="m 3355.83,2664.47 c 26.3,30.61 33.46,55.54 33.46,55.54 v 0 c 1.1,-1.59 2.05,-3.25 2.84,-4.94 3.68,-7.86 4,-16.57 1.32,-24.25 -2.55,-7.3 -7.82,-13.66 -15.51,-17.46 -6.68,-3.3 -14.11,-6.28 -22.11,-8.89"
         style="fill:#ea5b5b;fill-opacity:1;fill-rule:nonzero;stroke:none"
         id="path204" /><path
         d="m 3385.61,2605.49 c 0.8,25.3 8.03,49.48 21.11,66.48 -3.1,-24.31 -11.65,-47.28 -21.11,-66.48"
         style="fill:#3563b7;fill-opacity:1;fill-rule:nonzero;stroke:none"
         id="path206" /><path
         d="m 3407.44,2702.53 c -8.55,4.02 -9.96,8.68 -9.68,11.84 0.2,2.21 1.24,3.69 1.24,3.69 0,0 1.64,-0.06 4.61,-0.21 0.75,-0.61 1.43,-1.35 2.01,-2.23 0.84,-4.37 1.45,-8.74 1.82,-13.09"
         style="fill:#111d23;fill-opacity:1;fill-rule:nonzero;stroke:none"
         id="path208" /><path
         d="m 3387.06,2730.62 c 0,0 -19.97,-63.44 -91.37,-117.01 33.59,-0.22 56.92,-36.32 56.92,-36.32 0,0 68.78,57.21 53.01,138.33 -4.67,7.22 -18.56,15 -18.56,15"
         style="fill:#406fbf;fill-opacity:1;fill-rule:nonzero;stroke:none"
         id="path210" /><path
         d="m 3459.1,2489.91 c -4.65,-86.4 -59.25,-106.96 -66.97,-106.96 -7.72,0 -60.12,20.56 -55.48,106.96 l 62.55,24.59 59.9,-24.59"
         style="fill:#ffffff;fill-opacity:1;fill-rule:nonzero;stroke:none"
         id="path212" /><path
         d="m 3593.72,2014.6 -61.58,-52.97 81.68,-53.08 c 0,0 49.93,54.72 25.14,85.95 l -45.24,20.1"
         style="fill:#f46b74;fill-opacity:1;fill-rule:nonzero;stroke:none"
         id="path214" /><path
         d="m 3525.17,1877.55 31.76,-13.77 c 12.64,-5.49 27.4,-1.02 34.86,10.58 l 22.03,34.19 -81.68,53.08 -21.35,-46.51 c -6.58,-14.34 -0.1,-31.29 14.38,-37.57"
         style="fill:#f46b74;fill-opacity:1;fill-rule:nonzero;stroke:none"
         id="path216" /><path
         d="m 3176.95,3084.27 c -54.88,-7.4 -36.43,-24.86 85.97,-40.49 122.4,-15.62 153.03,-3.3 153.03,-3.3 0,0 -140.54,44.16 -239,43.79"
         style="fill:#17282f;fill-opacity:1;fill-rule:nonzero;stroke:none"
         id="path218" /><path
         d="m 3453.87,3016.71 c 0,0 -107.49,43.74 -276.92,67.56 -2.08,24.9 18.44,51.3 18.44,51.3 0,0 -37.76,18.95 -26.04,55.09 11.72,36.15 65.71,31.34 128.8,60.36 23.14,-25.44 86.62,-66.72 129.93,-72.02 10.75,-22.07 38.73,-77.34 84.1,-98.7 -0.65,-24.09 -45.76,-30.34 -45.76,-30.34 0,0 2.12,-16.23 -12.55,-33.25"
         style="fill:#406fbf;fill-opacity:1;fill-rule:nonzero;stroke:none"
         id="path220" /><path
         d="m 3465.83,3040.64 c 1.06,5.66 0.59,9.32 0.59,9.32 v 0 0 c 0,0 0.48,-3.65 -0.59,-9.32"
         style="fill:#0f191d;fill-opacity:1;fill-rule:nonzero;stroke:none"
         id="path222" /><path
         d="m 3453.87,3016.71 v 0 c -0.21,0.09 -107.66,43.77 -276.92,67.56 v 0 0 c -0.1,1.21 -0.15,2.43 -0.15,3.65 0.02,23.77 18.59,47.65 18.59,47.65 9.38,1.55 19.25,2.27 29.46,2.27 90.04,0 206.29,-55.81 241.57,-87.88 v 0 c 0,0 0.47,-3.66 -0.59,-9.32 -1.18,-6.26 -4.25,-14.98 -11.96,-23.93 v 0"
         style="fill:#2d5bb2;fill-opacity:1;fill-rule:nonzero;stroke:none"
         id="path224" /><path
         d="m 3314.39,3177.22 c -12.09,-61.64 -54.13,-72.68 -59.78,-72.15 -5.65,0.53 -41.95,18.83 -29.86,80.47 l 48.26,13.39 41.38,-21.71"
         style="fill:#ffffff;fill-opacity:1;fill-rule:nonzero;stroke:none"
         id="path226" /><path
         d="m 2517.5,2167.82 c -12.46,0 -23.24,9.29 -24.79,21.96 l -71.38,581.97 c -1.68,13.71 8.06,26.18 21.77,27.86 13.68,1.77 26.18,-8.07 27.86,-21.77 l 71.38,-581.97 c 1.68,-13.71 -8.07,-26.18 -21.77,-27.86 -1.03,-0.13 -2.06,-0.19 -3.07,-0.19"
         style="fill:#17282f;fill-opacity:1;fill-rule:nonzero;stroke:none"
         id="path228" /><path
         d="m 2501.56,2429.58 c -6.04,22.39 5.41,25.76 -5.66,57.53 -5.89,16.9 13.46,29.95 15.91,16.39 8.94,-49.48 74.74,-77.17 51.87,-108.44 -23.23,-31.76 -56.08,12.12 -62.12,34.52"
         style="fill:#f46b74;fill-opacity:1;fill-rule:nonzero;stroke:none"
         id="path230" /><path
         d="m 2828.19,2954.04 c -192.87,-246.79 -549.29,-290.51 -796.09,-97.64 -246.8,192.87 -290.52,549.28 -97.65,796.08 192.87,246.81 549.29,290.53 796.09,97.66 246.8,-192.87 290.51,-549.29 97.65,-796.1"
         style="fill:#406fbf;fill-opacity:1;fill-rule:nonzero;stroke:none"
         id="path232" /><path
         d="m 2835.92,3359.02 c 30.79,-251.06 -147.77,-479.56 -398.84,-510.36 -251.07,-30.79 -479.57,147.78 -510.36,398.84 -30.8,251.07 147.76,479.57 398.83,510.36 251.07,30.8 479.57,-147.76 510.37,-398.84"
         style="fill:#ffffff;fill-opacity:1;fill-rule:nonzero;stroke:none"
         id="path234" /><path
         d="m 2678.72,3380.75 c -37.62,50.73 -109.71,-0.03 -131.7,-53.46 -5.82,-14.16 -11.5,-32.41 -11.57,-41.5 l -23.82,163.17 -18.96,154.55 c -3.78,30.79 -33.73,51.26 -63.78,43.59 -25.08,-6.4 -41.51,-30.43 -38.36,-56.12 l -4.72,38.51 c -3.78,30.78 -33.73,51.25 -63.78,43.59 -25.09,-6.39 -41.51,-30.43 -38.36,-56.12 l 6.58,-53.68 c -3.77,30.79 -33.72,51.26 -63.78,43.6 -25.08,-6.4 -41.5,-30.43 -38.35,-56.13 l 8.2,-66.9 c -3.77,30.79 -33.73,51.26 -63.78,43.59 -25.08,-6.39 -41.51,-30.43 -38.36,-56.12 l 16.41,-133.72 11.76,-95.88 15.45,-125.95 c 10.98,-89.5 46.1,-140.71 98.24,-163.61 80.12,-35.18 226.45,-35.59 292.27,17.83 57.56,46.71 94.62,159.26 103.54,228.91 8.87,69.28 62.12,161.31 46.87,181.85"
         style="fill:#17282f;fill-opacity:1;fill-rule:nonzero;stroke:none"
         id="path236" /><path
         d="m 2090.77,2835.26 -93.36,72.96 674.46,863.05 93.35,-72.96 -674.45,-863.05"
         style="fill:#406fbf;fill-opacity:1;fill-rule:nonzero;stroke:none"
         id="path238" /><path
         d="m 804.414,2474.79 v 182.07 h 131.649 v -21.49 H 828.508 v -55.76 H 929.23 v -21.37 H 828.508 v -61.97 h 111.773 v -21.48 H 804.414"
         style="fill:#17282f;fill-opacity:1;fill-rule:nonzero;stroke:none"
         id="path240" /><path
         d="m 970.465,2474.79 v 131.89 h 20.121 v -19.99 c 5.129,9.36 9.874,15.53 14.214,18.5 4.35,2.98 9.13,4.48 14.35,4.48 7.53,0 15.19,-2.41 22.98,-7.22 l -7.7,-20.73 c -5.47,3.23 -10.94,4.84 -16.4,4.84 -4.89,0 -9.28,-1.47 -13.16,-4.4 -3.9,-2.95 -6.671,-7.02 -8.323,-12.24 -2.488,-7.95 -3.727,-16.64 -3.727,-26.08 v -69.05 h -22.355"
         style="fill:#17282f;fill-opacity:1;fill-rule:nonzero;stroke:none"
         id="path242" /><path
         d="m 1055.17,2474.79 v 131.89 h 20.12 v -19.99 c 5.13,9.36 9.87,15.53 14.21,18.5 4.35,2.98 9.14,4.48 14.35,4.48 7.54,0 15.19,-2.41 22.98,-7.22 l -7.7,-20.73 c -5.47,3.23 -10.93,4.84 -16.4,4.84 -4.88,0 -9.27,-1.47 -13.16,-4.4 -3.9,-2.95 -6.67,-7.02 -8.32,-12.24 -2.49,-7.95 -3.73,-16.64 -3.73,-26.08 v -69.05 h -22.35"
         style="fill:#17282f;fill-opacity:1;fill-rule:nonzero;stroke:none"
         id="path244" /><path
         d="m 1154.77,2540.74 c 0,-16.89 3.68,-29.54 11.05,-37.95 7.37,-8.39 16.64,-12.6 27.82,-12.6 11.1,0 20.33,4.22 27.7,12.66 7.37,8.44 11.05,21.32 11.05,38.63 0,16.31 -3.7,28.67 -11.11,37.08 -7.41,8.39 -16.62,12.59 -27.64,12.59 -11.18,0 -20.45,-4.18 -27.82,-12.54 -7.37,-8.37 -11.05,-20.99 -11.05,-37.87 z m -22.98,0 c 0,24.42 6.79,42.51 20.37,54.27 11.35,9.77 25.17,14.66 41.48,14.66 18.14,0 32.96,-5.95 44.47,-17.83 11.5,-11.88 17.26,-28.3 17.26,-49.24 0,-16.97 -2.55,-30.32 -7.64,-40.05 -5.09,-9.74 -12.5,-17.3 -22.23,-22.68 -9.73,-5.38 -20.35,-8.07 -31.86,-8.07 -18.46,0 -33.38,5.92 -44.77,17.76 -11.38,11.85 -17.08,28.91 -17.08,51.18"
         style="fill:#17282f;fill-opacity:1;fill-rule:nonzero;stroke:none"
         id="path246" /><path
         d="m 1281.33,2474.79 v 131.89 h 20.12 v -19.99 c 5.13,9.36 9.87,15.53 14.22,18.5 4.34,2.98 9.13,4.48 14.34,4.48 7.54,0 15.2,-2.41 22.98,-7.22 l -7.7,-20.73 c -5.46,3.23 -10.93,4.84 -16.39,4.84 -4.89,0 -9.28,-1.47 -13.17,-4.4 -3.89,-2.95 -6.66,-7.02 -8.32,-12.24 -2.49,-7.95 -3.73,-16.64 -3.73,-26.08 v -69.05 h -22.35"
         style="fill:#17282f;fill-opacity:1;fill-rule:nonzero;stroke:none"
         id="path248" /><path
         d="m 887.504,2248.73 v 19.38 c -10.274,-14.91 -24.223,-22.37 -41.856,-22.37 -7.785,0 -15.046,1.5 -21.796,4.49 -6.75,2.97 -11.758,6.72 -15.028,11.24 -3.273,4.5 -5.57,10.03 -6.894,16.57 -0.91,4.39 -1.367,11.35 -1.367,20.87 v 81.72 h 22.359 v -73.16 c 0,-11.67 0.453,-19.54 1.363,-23.58 1.406,-5.89 4.387,-10.51 8.942,-13.86 4.554,-3.35 10.179,-5.03 16.886,-5.03 6.711,0 13,1.72 18.883,5.16 5.875,3.43 10.039,8.11 12.484,14.03 2.438,5.92 3.661,14.5 3.661,25.77 v 70.67 H 907.5 v -131.9 h -19.996"
         style="fill:#17282f;fill-opacity:1;fill-rule:nonzero;stroke:none"
         id="path250" /><path
         d="m 942.523,2248.73 v 131.9 h 20.122 v -18.75 c 9.687,14.48 23.679,21.73 41.975,21.73 7.95,0 15.26,-1.42 21.92,-4.28 6.67,-2.86 11.65,-6.6 14.97,-11.24 3.31,-4.64 5.63,-10.15 6.95,-16.53 0.83,-4.13 1.24,-11.38 1.24,-21.73 v -81.1 h -22.35 v 80.23 c 0,9.12 -0.87,15.91 -2.61,20.44 -1.73,4.51 -4.82,8.11 -9.25,10.81 -4.43,2.67 -9.63,4.03 -15.584,4.03 -9.523,0 -17.75,-3.03 -24.66,-9.07 -6.91,-6.05 -10.367,-17.51 -10.367,-34.41 v -72.03 h -22.356"
         style="fill:#17282f;fill-opacity:1;fill-rule:nonzero;stroke:none"
         id="path252" /><path
         d="m 1168.19,2314.92 c -8.12,-3.31 -20.28,-6.12 -36.51,-8.43 -9.19,-1.33 -15.7,-2.82 -19.5,-4.49 -3.81,-1.65 -6.75,-4.07 -8.82,-7.25 -2.07,-3.2 -3.11,-6.73 -3.11,-10.63 0,-5.96 2.26,-10.93 6.77,-14.9 4.52,-3.98 11.12,-5.96 19.81,-5.96 8.61,0 16.27,1.88 22.98,5.66 6.7,3.76 11.63,8.91 14.78,15.46 2.4,5.04 3.6,12.5 3.6,22.35 z m 1.86,-49.92 c -8.28,-7.04 -16.25,-12 -23.9,-14.9 -7.66,-2.9 -15.88,-4.36 -24.66,-4.36 -14.49,0 -25.63,3.55 -33.4,10.64 -7.79,7.07 -11.68,16.11 -11.68,27.13 0,6.45 1.47,12.36 4.41,17.7 2.93,5.33 6.79,9.62 11.55,12.84 4.76,3.25 10.12,5.68 16.08,7.34 4.39,1.16 11.02,2.27 19.88,3.36 18.04,2.14 31.33,4.7 39.86,7.69 0.08,3.06 0.13,5 0.13,5.83 0,9.11 -2.12,15.53 -6.34,19.26 -5.71,5.05 -14.2,7.57 -25.46,7.57 -10.52,0 -18.28,-1.84 -23.29,-5.52 -5.01,-3.69 -8.71,-10.2 -11.11,-19.56 l -21.86,2.98 c 1.99,9.35 5.26,16.91 9.81,22.65 4.55,5.77 11.13,10.19 19.75,13.31 8.61,3.1 18.59,4.65 29.93,4.65 11.26,0 20.41,-1.32 27.44,-3.97 7.04,-2.66 12.22,-6 15.53,-10.01 3.31,-4.01 5.63,-9.08 6.96,-15.21 0.74,-3.8 1.11,-10.68 1.11,-20.61 v -29.82 c 0,-20.78 0.48,-33.92 1.43,-39.43 0.96,-5.51 2.84,-10.78 5.65,-15.83 h -23.34 c -2.33,4.64 -3.81,10.06 -4.48,16.27"
         style="fill:#17282f;fill-opacity:1;fill-rule:nonzero;stroke:none"
         id="path254" /><path
         d="m 1311.89,2248.73 v 19.38 c -10.27,-14.91 -24.22,-22.37 -41.86,-22.37 -7.78,0 -15.04,1.5 -21.79,4.49 -6.75,2.97 -11.76,6.72 -15.03,11.24 -3.27,4.5 -5.57,10.03 -6.89,16.57 -0.91,4.39 -1.37,11.35 -1.37,20.87 v 81.72 h 22.36 v -73.16 c 0,-11.67 0.45,-19.54 1.36,-23.58 1.41,-5.89 4.39,-10.51 8.94,-13.86 4.56,-3.35 10.19,-5.03 16.89,-5.03 6.71,0 13,1.72 18.88,5.16 5.88,3.43 10.04,8.11 12.49,14.03 2.44,5.92 3.66,14.5 3.66,25.77 v 70.67 h 22.35 v -131.9 h -19.99"
         style="fill:#17282f;fill-opacity:1;fill-rule:nonzero;stroke:none"
         id="path256" /><path
         d="m 1415.72,2268.72 3.23,-19.73 c -6.3,-1.33 -11.93,-2 -16.89,-2 -8.12,0 -14.41,1.29 -18.88,3.85 -4.47,2.57 -7.62,5.95 -9.44,10.13 -1.82,4.17 -2.73,12.97 -2.73,26.38 v 75.89 h -16.39 v 17.39 h 16.39 v 32.66 l 22.23,13.41 v -46.07 h 22.48 v -17.39 h -22.48 v -77.13 c 0,-6.36 0.39,-10.46 1.18,-12.28 0.78,-1.84 2.07,-3.28 3.85,-4.36 1.78,-1.07 4.32,-1.62 7.64,-1.62 2.48,0 5.75,0.3 9.81,0.87"
         style="fill:#17282f;fill-opacity:1;fill-rule:nonzero;stroke:none"
         id="path258" /><path
         d="m 1437.58,2248.73 v 182.07 h 22.35 v -65.32 c 10.44,12.09 23.6,18.13 39.5,18.13 9.77,0 18.26,-1.92 25.46,-5.78 7.2,-3.84 12.35,-9.17 15.46,-15.95 3.11,-6.8 4.66,-16.64 4.66,-29.56 v -83.59 h -22.36 v 83.59 c 0,11.18 -2.42,19.3 -7.26,24.4 -4.85,5.09 -11.7,7.64 -20.56,7.64 -6.62,0 -12.85,-1.72 -18.69,-5.16 -5.84,-3.44 -9.99,-8.09 -12.48,-13.96 -2.49,-5.88 -3.73,-14 -3.73,-24.35 v -72.16 h -22.35"
         style="fill:#17282f;fill-opacity:1;fill-rule:nonzero;stroke:none"
         id="path260" /><path
         d="m 1593.69,2314.69 c 0,-16.9 3.69,-29.54 11.06,-37.95 7.37,-8.4 16.64,-12.61 27.82,-12.61 11.09,0 20.32,4.23 27.69,12.67 7.37,8.44 11.06,21.32 11.06,38.62 0,16.32 -3.71,28.68 -11.11,37.08 -7.42,8.4 -16.63,12.6 -27.64,12.6 -11.18,0 -20.45,-4.18 -27.82,-12.54 -7.37,-8.37 -11.06,-21 -11.06,-37.87 z m -22.97,0 c 0,24.41 6.78,42.51 20.37,54.27 11.34,9.76 25.17,14.65 41.48,14.65 18.13,0 32.95,-5.94 44.46,-17.83 11.51,-11.87 17.27,-28.3 17.27,-49.24 0,-16.97 -2.55,-30.32 -7.64,-40.05 -5.1,-9.73 -12.5,-17.29 -22.23,-22.67 -9.73,-5.38 -20.35,-8.08 -31.86,-8.08 -18.47,0 -33.39,5.92 -44.77,17.78 -11.39,11.83 -17.08,28.89 -17.08,51.17"
         style="fill:#17282f;fill-opacity:1;fill-rule:nonzero;stroke:none"
         id="path262" /><path
         d="m 1720.26,2248.73 v 131.9 h 20.12 v -19.99 c 5.13,9.35 9.87,15.52 14.21,18.49 4.35,2.99 9.13,4.48 14.35,4.48 7.53,0 15.19,-2.41 22.98,-7.21 l -7.7,-20.74 c -5.47,3.24 -10.94,4.85 -16.4,4.85 -4.89,0 -9.27,-1.48 -13.16,-4.41 -3.9,-2.95 -6.67,-7.02 -8.32,-12.23 -2.49,-7.95 -3.73,-16.64 -3.73,-26.09 v -69.05 h -22.35"
         style="fill:#17282f;fill-opacity:1;fill-rule:nonzero;stroke:none"
         id="path264" /><path
         d="m 1805.33,2248.73 v 131.9 h 22.36 v -131.9 z m 0,156.37 v 25.7 h 22.36 v -25.7 h -22.36"
         style="fill:#17282f;fill-opacity:1;fill-rule:nonzero;stroke:none"
         id="path266" /><path
         d="m 1849.91,2248.73 v 18.14 l 83.96,96.37 c -9.52,-0.5 -17.93,-0.75 -25.21,-0.75 h -53.78 v 18.14 h 107.8 v -14.78 l -71.41,-83.71 -13.78,-15.27 c 10.01,0.74 19.41,1.11 28.19,1.11 h 60.98 v -19.25 h -116.75"
         style="fill:#17282f;fill-opacity:1;fill-rule:nonzero;stroke:none"
         id="path268" /><path
         d="m 2005.78,2327.35 h 73.65 c -0.99,11.09 -3.81,19.42 -8.45,24.96 -7.12,8.61 -16.35,12.92 -27.69,12.92 -10.27,0 -18.9,-3.44 -25.9,-10.32 -7,-6.86 -10.87,-16.06 -11.61,-27.56 z m 73.4,-36.14 23.1,-2.86 c -3.64,-13.5 -10.39,-23.96 -20.24,-31.42 -9.86,-7.46 -22.44,-11.19 -37.76,-11.19 -19.29,0 -34.59,5.96 -45.89,17.83 -11.3,11.88 -16.95,28.55 -16.95,49.99 0,22.19 5.71,39.41 17.14,51.67 11.42,12.25 26.24,18.38 44.46,18.38 17.64,0 32.04,-6.01 43.22,-18 11.18,-12.02 16.76,-28.9 16.76,-50.69 0,-1.32 -0.04,-3.31 -0.11,-5.95 h -98.37 c 0.82,-14.49 4.92,-25.59 12.3,-33.29 7.36,-7.7 16.55,-11.55 27.56,-11.55 8.2,0 15.2,2.16 21,6.46 5.79,4.3 10.38,11.18 13.78,20.62"
         style="fill:#17282f;fill-opacity:1;fill-rule:nonzero;stroke:none"
         id="path270" /><path
         d="m 2145.25,2314.56 c 0,-16.89 3.57,-29.52 10.69,-37.89 7.11,-8.36 15.52,-12.54 25.21,-12.54 9.77,0 18.07,4 24.9,11.98 6.83,7.99 10.24,20.19 10.24,36.59 0,18.04 -3.47,31.29 -10.43,39.73 -6.95,8.46 -15.52,12.67 -25.71,12.67 -9.93,0 -18.24,-4.05 -24.9,-12.17 -6.67,-8.11 -10,-20.9 -10,-38.37 z m 70.67,-65.83 v 16.64 c -8.36,-13.07 -20.66,-19.63 -36.88,-19.63 -10.52,0 -20.19,2.9 -29,8.7 -8.82,5.8 -15.65,13.9 -20.5,24.28 -4.84,10.4 -7.26,22.35 -7.26,35.84 0,13.16 2.19,25.1 6.58,35.82 4.39,10.72 10.97,18.95 19.75,24.66 8.77,5.71 18.59,8.57 29.43,8.57 7.95,0 15.03,-1.68 21.24,-5.04 6.21,-3.34 11.26,-7.71 15.15,-13.09 v 65.32 h 22.24 v -182.07 h -20.75"
         style="fill:#17282f;fill-opacity:1;fill-rule:nonzero;stroke:none"
         id="path272" /></g></g></svg>
